Black.ufo
<glyph name="exclam" format="2">
  <advance width="1000"/>
  <unicode hex="0021"/>
  <outline>
    <contour>
      <point x="780" y="2048" type="line"/>
      <point x="728" y="640" type="line"/>
      <point x="272" y="640" type="line"/>
      <point x="220" y="2048" type="line"/>
    </contour>
    <contour>
      <point x="500" y="-32" type="qcurve"/>
      <point x="384" y="-32"/>
      <point x="219" y="131"/>
      <point x="220" y="248" type="qcurve"/>
      <point x="219" y="362"/>
      <point x="384" y="524"/>
      <point x="500" y="524" type="qcurve"/>
      <point x="610" y="524"/>
      <point x="779" y="362"/>
      <point x="780" y="248" type="qcurve"/>
      <point x="779" y="131"/>
      <point x="610" y="-32"/>
    </contour>
  </outline>
</glyph>
<glyph name="numbersign" format="2">
  <advance width="1864"/>
  <unicode hex="0023"/>
  <outline>
    <contour>
      <point x="924" y="0" type="line"/>
      <point x="1260" y="2048" type="line"/>
      <point x="1660" y="2048" type="line"/>
      <point x="1324" y="0" type="line"/>
    </contour>
    <contour>
      <point x="16" y="468" type="line"/>
      <point x="84" y="868" type="line"/>
      <point x="1732" y="868" type="line"/>
      <point x="1664" y="468" type="line"/>
    </contour>
    <contour>
      <point x="204" y="0" type="line"/>
      <point x="540" y="2048" type="line"/>
      <point x="940" y="2048" type="line"/>
      <point x="604" y="0" type="line"/>
    </contour>
    <contour>
      <point x="132" y="1180" type="line"/>
      <point x="200" y="1580" type="line"/>
      <point x="1848" y="1580" type="line"/>
      <point x="1780" y="1180" type="line"/>
    </contour>
  </outline>
</glyph>
<glyph name="dollar" format="2">
  <advance width="1876"/>
  <unicode hex="0024"/>
  <outline>
    <contour>
      <point x="880" y="-256" type="line"/>
      <point x="880" y="2304" type="line"/>
      <point x="1044" y="2304" type="line"/>
      <point x="1044" y="-256" type="line"/>
    </contour>
    <contour>
      <point x="1236" y="1408" type="line"/>
      <point x="1228" y="1508"/>
      <point x="1095" y="1620"/>
      <point x="960" y="1620" type="qcurve"/>
      <point x="874" y="1620"/>
      <point x="765" y="1579"/>
      <point x="713" y="1509"/>
      <point x="712" y="1464" type="qcurve"/>
      <point x="710" y="1415"/>
      <point x="767" y="1342"/>
      <point x="891" y="1289"/>
      <point x="988" y="1268" type="qcurve"/>
      <point x="1156" y="1232" type="line"/>
      <point x="1326" y="1196"/>
      <point x="1568" y="1078"/>
      <point x="1722" y="919"/>
      <point x="1795" y="721"/>
      <point x="1796" y="604" type="qcurve"/>
      <point x="1795" y="402"/>
      <point x="1595" y="122"/>
      <point x="1224" y="-24"/>
      <point x="964" y="-24" type="qcurve"/>
      <point x="697" y="-24"/>
      <point x="300" y="134"/>
      <point x="81" y="463"/>
      <point x="80" y="720" type="qcurve"/>
      <point x="608" y="720" type="line"/>
      <point x="613" y="626"/>
      <point x="697" y="498"/>
      <point x="850" y="432"/>
      <point x="956" y="432" type="qcurve"/>
      <point x="1045" y="432"/>
      <point x="1165" y="476"/>
      <point x="1227" y="554"/>
      <point x="1228" y="604" type="qcurve"/>
      <point x="1227" y="651"/>
      <point x="1168" y="722"/>
      <point x="1034" y="779"/>
      <point x="920" y="804" type="qcurve"/>
      <point x="716" y="848" type="line"/>
      <point x="444" y="907"/>
      <point x="131" y="1184"/>
      <point x="132" y="1424" type="qcurve"/>
      <point x="131" y="1619"/>
      <point x="342" y="1912"/>
      <point x="717" y="2076"/>
      <point x="960" y="2076" type="qcurve"/>
      <point x="1208" y="2076"/>
      <point x="1570" y="1910"/>
      <point x="1767" y="1609"/>
      <point x="1768" y="1408" type="qcurve"/>
    </contour>
  </outline>
</glyph>
<glyph name="percent" format="2">
  <advance width="2508"/>
  <unicode hex="0025"/>
  <outline>
    <contour>
      <point x="1308" y="384" type="qcurve"/>
      <point x="1308" y="492" type="line"/>
      <point x="1308" y="622"/>
      <point x="1421" y="842"/>
      <point x="1637" y="976"/>
      <point x="1792" y="976" type="qcurve"/>
      <point x="1951" y="976"/>
      <point x="2168" y="844"/>
      <point x="2280" y="624"/>
      <point x="2280" y="492" type="qcurve"/>
      <point x="2280" y="384" type="line"/>
      <point x="2280" y="254"/>
      <point x="2167" y="34"/>
      <point x="1949" y="-100"/>
      <point x="1792" y="-100" type="qcurve"/>
      <point x="1635" y="-100"/>
      <point x="1419" y="34"/>
      <point x="1308" y="254"/>
    </contour>
    <contour>
      <point x="1656" y="492" type="qcurve"/>
      <point x="1656" y="384" type="line"/>
      <point x="1656" y="327"/>
      <point x="1713" y="216"/>
      <point x="1792" y="216" type="qcurve"/>
      <point x="1875" y="216"/>
      <point x="1928" y="324"/>
      <point x="1928" y="384" type="qcurve"/>
      <point x="1928" y="492" type="line"/>
      <point x="1928" y="552"/>
      <point x="1878" y="664"/>
      <point x="1792" y="664" type="qcurve"/>
      <point x="1713" y="664"/>
      <point x="1656" y="552"/>
    </contour>
    <contour>
      <point x="236" y="1556" type="qcurve"/>
      <point x="236" y="1664" type="line"/>
      <point x="236" y="1796"/>
      <point x="351" y="2016"/>
      <point x="567" y="2148"/>
      <point x="720" y="2148" type="qcurve"/>
      <point x="879" y="2148"/>
      <point x="1096" y="2016"/>
      <point x="1208" y="1796"/>
      <point x="1208" y="1664" type="qcurve"/>
      <point x="1208" y="1556" type="line"/>
      <point x="1208" y="1424"/>
      <point x="1095" y="1206"/>
      <point x="877" y="1076"/>
      <point x="720" y="1076" type="qcurve"/>
      <point x="563" y="1076"/>
      <point x="347" y="1208"/>
      <point x="236" y="1426"/>
    </contour>
    <contour>
      <point x="588" y="1664" type="qcurve"/>
      <point x="588" y="1556" type="line"/>
      <point x="588" y="1496"/>
      <point x="644" y="1388"/>
      <point x="720" y="1388" type="qcurve"/>
      <point x="803" y="1388"/>
      <point x="856" y="1496"/>
      <point x="856" y="1556" type="qcurve"/>
      <point x="856" y="1664" type="line"/>
      <point x="856" y="1724"/>
      <point x="806" y="1836"/>
      <point x="720" y="1836" type="qcurve"/>
      <point x="641" y="1836"/>
      <point x="588" y="1721"/>
    </contour>
    <contour>
      <point x="406" y="0" type="line"/>
      <point x="1814" y="2048" type="line"/>
      <point x="2098" y="2048" type="line"/>
      <point x="690" y="0" type="line"/>
    </contour>
  </outline>
</glyph>
<glyph name="ampersand" format="2">
  <advance width="1964"/>
  <unicode hex="0026"/>
  <outline>
    <contour>
      <point x="800" y="-32" type="qcurve"/>
      <point x="580" y="-32"/>
      <point x="262" y="124"/>
      <point x="92" y="386"/>
      <point x="92" y="544" type="qcurve"/>
      <point x="92" y="659"/>
      <point x="180" y="836"/>
      <point x="338" y="984"/>
      <point x="444" y="1056" type="qcurve"/>
      <point x="908" y="1344" type="line"/>
      <point x="978" y="1388"/>
      <point x="1028" y="1483"/>
      <point x="1028" y="1520" type="qcurve"/>
      <point x="1028" y="1569"/>
      <point x="956" y="1645"/>
      <point x="880" y="1644" type="qcurve"/>
      <point x="833" y="1644"/>
      <point x="765" y="1609"/>
      <point x="728" y="1547"/>
      <point x="728" y="1504" type="qcurve"/>
      <point x="728" y="1445"/>
      <point x="796" y="1322"/>
      <point x="914" y="1180"/>
      <point x="988" y="1092" type="qcurve"/>
      <point x="1980" y="0" type="line"/>
      <point x="1428" y="0" type="line"/>
      <point x="596" y="880" type="line"/>
      <point x="535" y="945"/>
      <point x="387" y="1134"/>
      <point x="280" y="1372"/>
      <point x="280" y="1512" type="qcurve"/>
      <point x="280" y="1668"/>
      <point x="430" y="1926"/>
      <point x="700" y="2080"/>
      <point x="880" y="2080" type="qcurve"/>
      <point x="1052" y="2080"/>
      <point x="1301" y="1938"/>
      <point x="1436" y="1702"/>
      <point x="1436" y="1560" type="qcurve"/>
      <point x="1436" y="1417"/>
      <point x="1295" y="1169"/>
      <point x="1164" y="1076" type="qcurve"/>
      <point x="740" y="776" type="line"/>
      <point x="691" y="742"/>
      <point x="620" y="654"/>
      <point x="620" y="584" type="qcurve"/>
      <point x="620" y="526"/>
      <point x="674" y="444"/>
      <point x="773" y="400"/>
      <point x="840" y="400" type="qcurve"/>
      <point x="942" y="400"/>
      <point x="1147" y="499"/>
      <point x="1317" y="678"/>
      <point x="1420" y="923"/>
      <point x="1420" y="1068" type="qcurve"/>
      <point x="1856" y="1068" type="line"/>
      <point x="1856" y="890"/>
      <point x="1782" y="560"/>
      <point x="1618" y="286"/>
      <point x="1484" y="192" type="qcurve"/>
      <point x="1442" y="171"/>
      <point x="1362" y="133"/>
      <point x="1320" y="112" type="qcurve"/>
      <point x="1197" y="33"/>
      <point x="929" y="-32"/>
    </contour>
  </outline>
</glyph>
<glyph name="quotesingle" format="2">
  <advance width="564"/>
  <unicode hex="0027"/>
  <outline>
    <contour>
      <point x="460" y="2048" type="line"/>
      <point x="460" y="1220" type="line"/>
      <point x="100" y="1220" type="line"/>
      <point x="100" y="2048" type="line"/>
    </contour>
  </outline>
</glyph>
<glyph name="parenleft" format="2">
  <advance width="1240"/>
  <unicode hex="0028"/>
  <outline>
    <contour>
      <point x="240" y="792" type="qcurve"/>
      <point x="240" y="1161"/>
      <point x="441" y="1781"/>
      <point x="660" y="2048" type="qcurve"/>
      <point x="1200" y="2048" type="line"/>
      <point x="1090" y="1916"/>
      <point x="916" y="1507"/>
      <point x="816" y="1028"/>
      <point x="816" y="792" type="qcurve"/>
      <point x="816" y="556"/>
      <point x="916" y="77"/>
      <point x="1090" y="-332"/>
      <point x="1200" y="-464" type="qcurve"/>
      <point x="660" y="-464" type="line"/>
      <point x="441" y="-197"/>
      <point x="240" y="423"/>
    </contour>
  </outline>
</glyph>
<glyph name="parenright" format="2">
  <advance width="1240"/>
  <unicode hex="0029"/>
  <outline>
    <contour>
      <point x="1000" y="792" type="qcurve"/>
      <point x="1000" y="423"/>
      <point x="799" y="-197"/>
      <point x="580" y="-464" type="qcurve"/>
      <point x="40" y="-464" type="line"/>
      <point x="150" y="-332"/>
      <point x="324" y="77"/>
      <point x="424" y="556"/>
      <point x="424" y="792" type="qcurve"/>
      <point x="424" y="1028"/>
      <point x="324" y="1507"/>
      <point x="150" y="1916"/>
      <point x="40" y="2048" type="qcurve"/>
      <point x="580" y="2048" type="line"/>
      <point x="799" y="1781"/>
      <point x="1000" y="1161"/>
    </contour>
  </outline>
</glyph>
<glyph name="asterisk" format="2">
  <advance width="1712"/>
  <unicode hex="002A"/>
  <outline>
    <contour>
      <point x="696" y="896" type="line"/>
      <point x="728" y="1248" type="line"/>
      <point x="436" y="1044" type="line"/>
      <point x="276" y="1324" type="line"/>
      <point x="596" y="1472" type="line"/>
      <point x="276" y="1620" type="line"/>
      <point x="436" y="1900" type="line"/>
      <point x="728" y="1696" type="line"/>
      <point x="696" y="2048" type="line"/>
      <point x="1016" y="2048" type="line"/>
      <point x="984" y="1696" type="line"/>
      <point x="1276" y="1900" type="line"/>
      <point x="1436" y="1620" type="line"/>
      <point x="1116" y="1472" type="line"/>
      <point x="1436" y="1324" type="line"/>
      <point x="1276" y="1044" type="line"/>
      <point x="984" y="1248" type="line"/>
      <point x="1016" y="896" type="line"/>
    </contour>
  </outline>
</glyph>
<glyph name="plus" format="2">
  <advance width="1952"/>
  <unicode hex="002B"/>
  <outline>
    <contour>
      <point x="752" y="92" type="line"/>
      <point x="752" y="1572" type="line"/>
      <point x="1200" y="1572" type="line"/>
      <point x="1200" y="92" type="line"/>
    </contour>
    <contour>
      <point x="236" y="608" type="line"/>
      <point x="236" y="1056" type="line"/>
      <point x="1716" y="1056" type="line"/>
      <point x="1716" y="608" type="line"/>
    </contour>
  </outline>
</glyph>
<glyph name="comma" format="2">
  <advance width="896"/>
  <unicode hex="002C"/>
  <outline>
    <contour>
      <point x="676" y="280" type="line"/>
      <point x="668" y="168" type="line"/>
      <point x="658" y="24"/>
      <point x="583" y="-240"/>
      <point x="500" y="-444"/>
      <point x="476" y="-500" type="qcurve"/>
      <point x="136" y="-500" type="line"/>
      <point x="152" y="-444"/>
      <point x="211" y="-233"/>
      <point x="260" y="32"/>
      <point x="260" y="168" type="qcurve"/>
      <point x="260" y="280" type="line"/>
    </contour>
  </outline>
</glyph>
<glyph name="period" format="2">
  <advance width="880"/>
  <unicode hex="002E"/>
  <outline>
    <contour>
      <point x="440" y="-32" type="qcurve"/>
      <point x="324" y="-32"/>
      <point x="159" y="131"/>
      <point x="160" y="248" type="qcurve"/>
      <point x="159" y="362"/>
      <point x="324" y="524"/>
      <point x="440" y="524" type="qcurve"/>
      <point x="550" y="524"/>
      <point x="719" y="362"/>
      <point x="720" y="248" type="qcurve"/>
      <point x="719" y="131"/>
      <point x="550" y="-32"/>
    </contour>
  </outline>
</glyph>
<glyph name="slash" format="2">
  <advance width="1160"/>
  <unicode hex="002F"/>
  <outline>
    <contour>
      <point x="1144" y="2144" type="line"/>
      <point x="484" y="-308" type="line"/>
      <point x="16" y="-308" type="line"/>
      <point x="676" y="2144" type="line"/>
    </contour>
  </outline>
</glyph>
<glyph name="zero" format="2">
  <advance width="2056"/>
  <unicode hex="0030"/>
  <outline>
    <contour>
      <point x="1028" y="-56" type="qcurve"/>
      <point x="749" y="-55"/>
      <point x="343" y="201"/>
      <point x="123" y="683"/>
      <point x="124" y="1020" type="qcurve"/>
      <point x="125" y="1358"/>
      <point x="344" y="1830"/>
      <point x="749" y="2076"/>
      <point x="1028" y="2076" type="qcurve"/>
      <point x="1307" y="2076"/>
      <point x="1713" y="1829"/>
      <point x="1933" y="1357"/>
      <point x="1932" y="1020" type="qcurve"/>
      <point x="1932" y="681"/>
      <point x="1712" y="199"/>
      <point x="1307" y="-56"/>
    </contour>
    <contour>
      <point x="1028" y="396" type="qcurve"/>
      <point x="1172" y="396"/>
      <point x="1357" y="697"/>
      <point x="1356" y="1020" type="qcurve"/>
      <point x="1355" y="1336"/>
      <point x="1172" y="1628"/>
      <point x="1028" y="1628" type="qcurve"/>
      <point x="884" y="1628"/>
      <point x="702" y="1336"/>
      <point x="700" y="1020" type="qcurve"/>
      <point x="699" y="697"/>
      <point x="884" y="396"/>
    </contour>
  </outline>
</glyph>
<glyph name="one" format="2">
  <advance width="1396"/>
  <unicode hex="0031"/>
  <unicode hex="E06C"/>
  <outline>
    <contour>
      <point x="1112" y="2048" type="line"/>
      <point x="1112" y="0" type="line"/>
      <point x="556" y="0" type="line"/>
      <point x="556" y="1404" type="line"/>
      <point x="536" y="1404" type="line"/>
      <point x="508" y="1367"/>
      <point x="401" y="1297"/>
      <point x="239" y="1252"/>
      <point x="128" y="1252" type="qcurve"/>
      <point x="128" y="1688" type="line"/>
      <point x="214" y="1688"/>
      <point x="367" y="1745"/>
      <point x="485" y="1845"/>
      <point x="552" y="1975"/>
      <point x="552" y="2048" type="qcurve"/>
    </contour>
  </outline>
</glyph>
<glyph name="two" format="2">
  <advance width="1820"/>
  <unicode hex="0032"/>
  <outline>
    <contour>
      <point x="136" y="0" type="line"/>
      <point x="136" y="400" type="line"/>
      <point x="900" y="1032" type="line"/>
      <point x="976" y="1095"/>
      <point x="1085" y="1206"/>
      <point x="1144" y="1324"/>
      <point x="1144" y="1396" type="qcurve"/>
      <point x="1144" y="1475"/>
      <point x="1077" y="1587"/>
      <point x="959" y="1648"/>
      <point x="882" y="1648" type="qcurve"/>
      <point x="805" y="1648"/>
      <point x="688" y="1586"/>
      <point x="624" y="1466"/>
      <point x="624" y="1380" type="qcurve"/>
      <point x="96" y="1380" type="line"/>
      <point x="96" y="1596"/>
      <point x="290" y="1908"/>
      <point x="644" y="2076"/>
      <point x="882" y="2076" type="qcurve"/>
      <point x="1128" y="2076"/>
      <point x="1489" y="1919"/>
      <point x="1686" y="1635"/>
      <point x="1686" y="1444" type="qcurve"/>
      <point x="1686" y="1326"/>
      <point x="1588" y="1093"/>
      <point x="1334" y="811"/>
      <point x="1100" y="616" type="qcurve"/>
      <point x="908" y="456" type="line"/>
      <point x="908" y="444" type="line"/>
      <point x="1708" y="444" type="line"/>
      <point x="1708" y="0" type="line"/>
    </contour>
  </outline>
</glyph>
<glyph name="four" format="2">
  <advance width="1976"/>
  <unicode hex="0034"/>
  <unicode hex="E06E"/>
  <outline>
    <contour>
      <point x="116" y="320" type="line"/>
      <point x="116" y="752" type="line"/>
      <point x="844" y="2048" type="line"/>
      <point x="1376" y="2048" type="line"/>
      <point x="664" y="768" type="line"/>
      <point x="664" y="752" type="line"/>
      <point x="1880" y="752" type="line"/>
      <point x="1880" y="320" type="line"/>
    </contour>
    <contour>
      <point x="1112" y="0" type="line"/>
      <point x="1112" y="448" type="line"/>
      <point x="1132" y="640" type="line"/>
      <point x="1132" y="1280" type="line"/>
      <point x="1632" y="1280" type="line"/>
      <point x="1632" y="0" type="line"/>
    </contour>
  </outline>
</glyph>
<glyph name="five" format="2">
  <advance width="1884"/>
  <unicode hex="0035"/>
  <outline>
    <contour>
      <point x="956" y="-28" type="qcurve"/>
      <point x="720" y="-28"/>
      <point x="355" y="139"/>
      <point x="146" y="433"/>
      <point x="144" y="624" type="qcurve"/>
      <point x="684" y="624" type="line"/>
      <point x="687" y="518"/>
      <point x="846" y="392"/>
      <point x="956" y="392" type="qcurve"/>
      <point x="1041" y="392"/>
      <point x="1171" y="465"/>
      <point x="1245" y="599"/>
      <point x="1244" y="688" type="qcurve"/>
      <point x="1245" y="778"/>
      <point x="1171" y="911"/>
      <point x="1041" y="984"/>
      <point x="956" y="984" type="qcurve"/>
      <point x="868" y="984"/>
      <point x="719" y="899"/>
      <point x="684" y="824" type="qcurve"/>
      <point x="196" y="824" type="line"/>
      <point x="276" y="2048" type="line"/>
      <point x="1652" y="2048" type="line"/>
      <point x="1652" y="1604" type="line"/>
      <point x="732" y="1604" type="line"/>
      <point x="692" y="1152" type="line"/>
      <point x="704" y="1152" type="line"/>
      <point x="752" y="1245"/>
      <point x="988" y="1368"/>
      <point x="1144" y="1368" type="qcurve"/>
      <point x="1327" y="1368"/>
      <point x="1614" y="1198"/>
      <point x="1781" y="899"/>
      <point x="1780" y="704" type="qcurve"/>
      <point x="1781" y="490"/>
      <point x="1576" y="159"/>
      <point x="1206" y="-28"/>
    </contour>
  </outline>
</glyph>
<glyph name="six" format="2">
  <advance width="1888"/>
  <unicode hex="0036"/>
  <unicode hex="E06F"/>
  <outline>
    <contour>
      <point x="160" y="676" type="qcurve"/>
      <point x="160" y="792"/>
      <point x="218" y="1011"/>
      <point x="326" y="1224"/>
      <point x="400" y="1332" type="qcurve"/>
      <point x="884" y="2048" type="line"/>
      <point x="1428" y="2048" type="line"/>
      <point x="960" y="1360" type="line"/>
      <point x="999" y="1366"/>
      <point x="1083" y="1376"/>
      <point x="1128" y="1376" type="qcurve"/>
      <point x="1318" y="1376"/>
      <point x="1610" y="1208"/>
      <point x="1776" y="906"/>
      <point x="1776" y="704" type="qcurve"/>
      <point x="1776" y="480"/>
      <point x="1570" y="151"/>
      <point x="1210" y="-28"/>
      <point x="980" y="-28" type="qcurve"/>
      <point x="764" y="-28"/>
      <point x="390" y="129"/>
      <point x="160" y="442"/>
    </contour>
    <contour>
      <point x="708" y="680" type="qcurve"/>
      <point x="708" y="596"/>
      <point x="775" y="466"/>
      <point x="896" y="392"/>
      <point x="976" y="392" type="qcurve"/>
      <point x="1054" y="392"/>
      <point x="1173" y="466"/>
      <point x="1240" y="596"/>
      <point x="1240" y="680" type="qcurve"/>
      <point x="1240" y="764"/>
      <point x="1171" y="894"/>
      <point x="1052" y="968"/>
      <point x="976" y="968" type="qcurve"/>
      <point x="896" y="968"/>
      <point x="775" y="894"/>
      <point x="708" y="764"/>
    </contour>
  </outline>
</glyph>
<glyph name="seven" format="2">
  <advance width="1720"/>
  <unicode hex="0037"/>
  <outline>
    <contour>
      <point x="228" y="0" type="line"/>
      <point x="1032" y="1592" type="line"/>
      <point x="1032" y="1604" type="line"/>
      <point x="88" y="1604" type="line"/>
      <point x="88" y="2048" type="line"/>
      <point x="1608" y="2048" type="line"/>
      <point x="1608" y="1604" type="line"/>
      <point x="800" y="0" type="line"/>
    </contour>
  </outline>
</glyph>
<glyph name="eight" format="2">
  <advance width="1944"/>
  <unicode hex="0038"/>
  <outline>
    <contour>
      <point x="972" y="-28" type="qcurve"/>
      <point x="724" y="-28"/>
      <point x="335" y="126"/>
      <point x="112" y="390"/>
      <point x="112" y="556" type="qcurve"/>
      <point x="112" y="683"/>
      <point x="239" y="893"/>
      <point x="455" y="1032"/>
      <point x="588" y="1052" type="qcurve"/>
      <point x="588" y="1068" type="line"/>
      <point x="413" y="1098"/>
      <point x="188" y="1349"/>
      <point x="188" y="1520" type="qcurve"/>
      <point x="188" y="1681"/>
      <point x="392" y="1932"/>
      <point x="746" y="2076"/>
      <point x="972" y="2076" type="qcurve"/>
      <point x="1198" y="2076"/>
      <point x="1552" y="1931"/>
      <point x="1756" y="1680"/>
      <point x="1756" y="1520" type="qcurve"/>
      <point x="1756" y="1348"/>
      <point x="1528" y="1098"/>
      <point x="1356" y="1068" type="qcurve"/>
      <point x="1356" y="1052" type="line"/>
      <point x="1488" y="1032"/>
      <point x="1704" y="893"/>
      <point x="1832" y="683"/>
      <point x="1832" y="556" type="qcurve"/>
      <point x="1832" y="390"/>
      <point x="1609" y="126"/>
      <point x="1220" y="-28"/>
    </contour>
    <contour>
      <point x="972" y="356" type="qcurve"/>
      <point x="1051" y="356"/>
      <point x="1173" y="420"/>
      <point x="1244" y="533"/>
      <point x="1244" y="604" type="qcurve"/>
      <point x="1244" y="675"/>
      <point x="1173" y="785"/>
      <point x="1051" y="848"/>
      <point x="972" y="848" type="qcurve"/>
      <point x="894" y="848"/>
      <point x="771" y="785"/>
      <point x="700" y="675"/>
      <point x="700" y="604" type="qcurve"/>
      <point x="700" y="533"/>
      <point x="771" y="421"/>
      <point x="894" y="356"/>
    </contour>
    <contour>
      <point x="972" y="1232" type="qcurve"/>
      <point x="1042" y="1232"/>
      <point x="1150" y="1290"/>
      <point x="1212" y="1392"/>
      <point x="1212" y="1456" type="qcurve"/>
      <point x="1212" y="1520"/>
      <point x="1150" y="1619"/>
      <point x="1042" y="1676"/>
      <point x="972" y="1676" type="qcurve"/>
      <point x="903" y="1676"/>
      <point x="794" y="1619"/>
      <point x="732" y="1520"/>
      <point x="732" y="1456" type="qcurve"/>
      <point x="732" y="1392"/>
      <point x="794" y="1291"/>
      <point x="903" y="1232"/>
    </contour>
  </outline>
</glyph>
<glyph name="nine" format="2">
  <advance width="1888"/>
  <unicode hex="0039"/>
  <unicode hex="E070"/>
  <outline>
    <contour>
      <point x="112" y="1344" type="qcurve"/>
      <point x="112" y="1568"/>
      <point x="317" y="1897"/>
      <point x="676" y="2076"/>
      <point x="908" y="2076" type="qcurve"/>
      <point x="1122" y="2076"/>
      <point x="1496" y="1921"/>
      <point x="1728" y="1608"/>
      <point x="1728" y="1372" type="qcurve"/>
      <point x="1728" y="1256"/>
      <point x="1668" y="1037"/>
      <point x="1560" y="824"/>
      <point x="1488" y="716" type="qcurve"/>
      <point x="1004" y="0" type="line"/>
      <point x="460" y="0" type="line"/>
      <point x="928" y="692" type="line"/>
      <point x="889" y="683"/>
      <point x="805" y="672"/>
      <point x="760" y="672" type="qcurve"/>
      <point x="568" y="672"/>
      <point x="276" y="840"/>
      <point x="112" y="1142"/>
    </contour>
    <contour>
      <point x="648" y="1368" type="qcurve"/>
      <point x="648" y="1284"/>
      <point x="715" y="1154"/>
      <point x="834" y="1080"/>
      <point x="912" y="1080" type="qcurve"/>
      <point x="990" y="1080"/>
      <point x="1111" y="1154"/>
      <point x="1180" y="1284"/>
      <point x="1180" y="1368" type="qcurve"/>
      <point x="1180" y="1452"/>
      <point x="1111" y="1582"/>
      <point x="990" y="1656"/>
      <point x="912" y="1656" type="qcurve"/>
      <point x="834" y="1656"/>
      <point x="715" y="1582"/>
      <point x="648" y="1452"/>
    </contour>
  </outline>
</glyph>
<glyph name="colon" format="2">
  <advance width="880"/>
  <unicode hex="003A"/>
  <outline>
    <contour>
      <point x="440" y="-32" type="qcurve"/>
      <point x="324" y="-32"/>
      <point x="159" y="131"/>
      <point x="160" y="248" type="qcurve"/>
      <point x="159" y="362"/>
      <point x="324" y="524"/>
      <point x="440" y="524" type="qcurve"/>
      <point x="550" y="524"/>
      <point x="719" y="362"/>
      <point x="720" y="248" type="qcurve"/>
      <point x="719" y="131"/>
      <point x="550" y="-32"/>
    </contour>
    <contour>
      <point x="440" y="1000" type="qcurve"/>
      <point x="324" y="1000"/>
      <point x="159" y="1163"/>
      <point x="160" y="1280" type="qcurve"/>
      <point x="159" y="1394"/>
      <point x="324" y="1556"/>
      <point x="440" y="1556" type="qcurve"/>
      <point x="550" y="1556"/>
      <point x="719" y="1394"/>
      <point x="720" y="1280" type="qcurve"/>
      <point x="719" y="1163"/>
      <point x="550" y="1000"/>
    </contour>
  </outline>
</glyph>
<glyph name="semicolon" format="2">
  <advance width="896"/>
  <unicode hex="003B"/>
  <outline>
    <contour>
      <point x="676" y="280" type="line"/>
      <point x="668" y="168" type="line"/>
      <point x="658" y="24"/>
      <point x="583" y="-240"/>
      <point x="500" y="-444"/>
      <point x="476" y="-500" type="qcurve"/>
      <point x="136" y="-500" type="line"/>
      <point x="152" y="-444"/>
      <point x="211" y="-233"/>
      <point x="260" y="32"/>
      <point x="260" y="168" type="qcurve"/>
      <point x="260" y="280" type="line"/>
    </contour>
    <contour>
      <point x="476" y="1000" type="qcurve"/>
      <point x="360" y="1000"/>
      <point x="195" y="1163"/>
      <point x="196" y="1280" type="qcurve"/>
      <point x="195" y="1394"/>
      <point x="360" y="1556"/>
      <point x="476" y="1556" type="qcurve"/>
      <point x="586" y="1556"/>
      <point x="755" y="1394"/>
      <point x="756" y="1280" type="qcurve"/>
      <point x="755" y="1163"/>
      <point x="586" y="1000"/>
    </contour>
  </outline>
</glyph>
<glyph name="less" format="2">
  <advance width="1952"/>
  <unicode hex="003C"/>
  <outline>
    <contour>
      <point x="232" y="592" type="line"/>
      <point x="232" y="1072" type="line"/>
      <point x="1720" y="1668" type="line"/>
      <point x="1720" y="1164" type="line"/>
      <point x="772" y="836" type="line"/>
      <point x="788" y="860" type="line"/>
      <point x="788" y="804" type="line"/>
      <point x="772" y="828" type="line"/>
      <point x="1720" y="500" type="line"/>
      <point x="1720" y="-4" type="line"/>
    </contour>
  </outline>
</glyph>
<glyph name="equal" format="2">
  <advance width="1952"/>
  <unicode hex="003D"/>
  <outline>
    <contour>
      <point x="236" y="964" type="line"/>
      <point x="236" y="1412" type="line"/>
      <point x="1716" y="1412" type="line"/>
      <point x="1716" y="964" type="line"/>
    </contour>
    <contour>
      <point x="236" y="252" type="line"/>
      <point x="236" y="700" type="line"/>
      <point x="1716" y="700" type="line"/>
      <point x="1716" y="252" type="line"/>
    </contour>
  </outline>
</glyph>
<glyph name="greater" format="2">
  <advance width="1952"/>
  <unicode hex="003E"/>
  <outline>
    <contour>
      <point x="1720" y="592" type="line"/>
      <point x="232" y="-4" type="line"/>
      <point x="232" y="500" type="line"/>
      <point x="1180" y="828" type="line"/>
      <point x="1164" y="804" type="line"/>
      <point x="1164" y="860" type="line"/>
      <point x="1180" y="836" type="line"/>
      <point x="232" y="1164" type="line"/>
      <point x="232" y="1668" type="line"/>
      <point x="1720" y="1072" type="line"/>
    </contour>
  </outline>
</glyph>
<glyph name="question" format="2">
  <advance width="1688"/>
  <unicode hex="003F"/>
  <outline>
    <contour>
      <point x="544" y="640" type="line"/>
      <point x="544" y="688" type="line"/>
      <point x="544" y="853"/>
      <point x="596" y="1049"/>
      <point x="698" y="1168"/>
      <point x="772" y="1216" type="qcurve"/>
      <point x="867" y="1278"/>
      <point x="996" y="1396"/>
      <point x="996" y="1480" type="qcurve"/>
      <point x="996" y="1530"/>
      <point x="948" y="1606"/>
      <point x="866" y="1648"/>
      <point x="816" y="1648" type="qcurve"/>
      <point x="762" y="1648"/>
      <point x="671" y="1598"/>
      <point x="616" y="1510"/>
      <point x="616" y="1452" type="qcurve"/>
      <point x="104" y="1452" type="line"/>
      <point x="106" y="1672"/>
      <point x="302" y="1947"/>
      <point x="626" y="2076"/>
      <point x="820" y="2076" type="qcurve"/>
      <point x="1034" y="2076"/>
      <point x="1370" y="1951"/>
      <point x="1564" y="1700"/>
      <point x="1564" y="1512" type="qcurve"/>
      <point x="1564" y="1330"/>
      <point x="1382" y="1098"/>
      <point x="1236" y="1012" type="qcurve"/>
      <point x="1164" y="970"/>
      <point x="1066" y="881"/>
      <point x="1016" y="768"/>
      <point x="1016" y="688" type="qcurve"/>
      <point x="1016" y="640" type="line"/>
    </contour>
    <contour>
      <point x="788" y="-32" type="qcurve"/>
      <point x="672" y="-32"/>
      <point x="507" y="131"/>
      <point x="508" y="248" type="qcurve"/>
      <point x="507" y="362"/>
      <point x="672" y="524"/>
      <point x="788" y="524" type="qcurve"/>
      <point x="898" y="524"/>
      <point x="1067" y="362"/>
      <point x="1068" y="248" type="qcurve"/>
      <point x="1067" y="131"/>
      <point x="898" y="-32"/>
    </contour>
  </outline>
</glyph>
<glyph name="at" format="2">
  <advance width="3080"/>
  <unicode hex="0040"/>
  <outline>
    <contour>
      <point x="1588" y="-624" type="qcurve"/>
      <point x="1260" y="-624"/>
      <point x="743" y="-447"/>
      <point x="383" y="-107"/>
      <point x="193" y="379"/>
      <point x="192" y="688" type="qcurve"/>
      <point x="193" y="996"/>
      <point x="383" y="1507"/>
      <point x="750" y="1880"/>
      <point x="1284" y="2084"/>
      <point x="1628" y="2084" type="qcurve"/>
      <point x="1938" y="2084"/>
      <point x="2437" y="1915"/>
      <point x="2792" y="1588"/>
      <point x="2981" y="1112"/>
      <point x="2980" y="804" type="qcurve"/>
      <point x="2981" y="594"/>
      <point x="2891" y="279"/>
      <point x="2715" y="63"/>
      <point x="2460" y="-57"/>
      <point x="2296" y="-72" type="qcurve"/>
      <point x="2149" y="-86"/>
      <point x="2021" y="-30"/>
      <point x="1983" y="74"/>
      <point x="1972" y="132" type="qcurve"/>
      <point x="1960" y="132" type="line"/>
      <point x="1937" y="70"/>
      <point x="1769" y="-22"/>
      <point x="1541" y="-68"/>
      <point x="1428" y="-60" type="qcurve"/>
      <point x="1318" y="-52"/>
      <point x="1098" y="38"/>
      <point x="915" y="218"/>
      <point x="805" y="501"/>
      <point x="804" y="700" type="qcurve"/>
      <point x="805" y="900"/>
      <point x="914" y="1180"/>
      <point x="1087" y="1362"/>
      <point x="1288" y="1460"/>
      <point x="1380" y="1476" type="qcurve"/>
      <point x="1501" y="1498"/>
      <point x="1729" y="1465"/>
      <point x="1889" y="1388"/>
      <point x="1908" y="1344" type="qcurve"/>
      <point x="1924" y="1344" type="line"/>
      <point x="1924" y="1456" type="line"/>
      <point x="2304" y="1456" type="line"/>
      <point x="2304" y="432" type="line"/>
      <point x="2306" y="372"/>
      <point x="2343" y="332"/>
      <point x="2368" y="332" type="qcurve"/>
      <point x="2415" y="332"/>
      <point x="2498" y="441"/>
      <point x="2549" y="666"/>
      <point x="2548" y="840" type="qcurve"/>
      <point x="2549" y="1064"/>
      <point x="2432" y="1365"/>
      <point x="2236" y="1548"/>
      <point x="1995" y="1641"/>
      <point x="1741" y="1672"/>
      <point x="1628" y="1672" type="qcurve"/>
      <point x="1369" y="1672"/>
      <point x="996" y="1517"/>
      <point x="756" y="1248"/>
      <point x="641" y="903"/>
      <point x="640" y="712" type="qcurve"/>
      <point x="641" y="487"/>
      <point x="770" y="143"/>
      <point x="1019" y="-89"/>
      <point x="1384" y="-208"/>
      <point x="1620" y="-208" type="qcurve"/>
      <point x="1739" y="-208"/>
      <point x="1963" y="-181"/>
      <point x="2151" y="-136"/>
      <point x="2216" y="-108" type="qcurve"/>
      <point x="2344" y="-468" type="line"/>
      <point x="2281" y="-510"/>
      <point x="2054" y="-581"/>
      <point x="1757" y="-624"/>
    </contour>
    <contour>
      <point x="1588" y="352" type="qcurve"/>
      <point x="1703" y="352"/>
      <point x="1834" y="437"/>
      <point x="1887" y="600"/>
      <point x="1884" y="716" type="qcurve"/>
      <point x="1883" y="804"/>
      <point x="1840" y="957"/>
      <point x="1711" y="1052"/>
      <point x="1580" y="1052" type="qcurve"/>
      <point x="1471" y="1052"/>
      <point x="1320" y="975"/>
      <point x="1241" y="824"/>
      <point x="1240" y="712" type="qcurve"/>
      <point x="1241" y="620"/>
      <point x="1306" y="455"/>
      <point x="1457" y="352"/>
    </contour>
  </outline>
</glyph>
<glyph name="A" format="2">
  <advance width="2240"/>
  <unicode hex="0041"/>
  <outline>
    <contour>
      <point x="664" y="0" type="line"/>
      <point x="64" y="0" type="line"/>
      <point x="740" y="2048" type="line"/>
      <point x="1500" y="2048" type="line"/>
      <point x="2176" y="0" type="line"/>
      <point x="1576" y="0" type="line"/>
      <point x="1128" y="1484" type="line"/>
      <point x="1112" y="1484" type="line"/>
    </contour>
    <contour>
      <point x="552" y="808" type="line"/>
      <point x="1680" y="808" type="line"/>
      <point x="1680" y="392" type="line"/>
      <point x="552" y="392" type="line"/>
    </contour>
  </outline>
</glyph>
<glyph name="B" format="2">
  <advance width="1880"/>
  <unicode hex="0042"/>
  <outline>
    <contour>
      <point x="132" y="0" type="line"/>
      <point x="132" y="2048" type="line"/>
      <point x="1020" y="2048" type="line"/>
      <point x="1254" y="2048"/>
      <point x="1573" y="1922"/>
      <point x="1736" y="1692"/>
      <point x="1736" y="1536" type="qcurve"/>
      <point x="1736" y="1423"/>
      <point x="1637" y="1237"/>
      <point x="1459" y="1112"/>
      <point x="1340" y="1088" type="qcurve"/>
      <point x="1340" y="1068" type="line"/>
      <point x="1472" y="1063"/>
      <point x="1688" y="940"/>
      <point x="1816" y="725"/>
      <point x="1816" y="580" type="qcurve"/>
      <point x="1816" y="412"/>
      <point x="1641" y="150"/>
      <point x="1319" y="0"/>
      <point x="1096" y="0" type="qcurve"/>
    </contour>
    <contour>
      <point x="688" y="444" type="line"/>
      <point x="948" y="444" type="line"/>
      <point x="1088" y="444"/>
      <point x="1228" y="549"/>
      <point x="1228" y="652" type="qcurve"/>
      <point x="1228" y="724"/>
      <point x="1162" y="824"/>
      <point x="1041" y="876"/>
      <point x="956" y="876" type="qcurve"/>
      <point x="688" y="876" type="line"/>
    </contour>
    <contour>
      <point x="688" y="1220" type="line"/>
      <point x="916" y="1220" type="line"/>
      <point x="989" y="1220"/>
      <point x="1101" y="1266"/>
      <point x="1164" y="1353"/>
      <point x="1164" y="1416" type="qcurve"/>
      <point x="1164" y="1511"/>
      <point x="1028" y="1612"/>
      <point x="924" y="1612" type="qcurve"/>
      <point x="688" y="1612" type="line"/>
    </contour>
  </outline>
</glyph>
<glyph name="D" format="2">
  <advance width="2064"/>
  <unicode hex="0044"/>
  <outline>
    <contour>
      <point x="920" y="0" type="qcurve"/>
      <point x="132" y="0" type="line"/>
      <point x="132" y="2048" type="line"/>
      <point x="912" y="2048" type="line"/>
      <point x="1228" y="2048"/>
      <point x="1689" y="1803"/>
      <point x="1940" y="1344"/>
      <point x="1940" y="1024" type="qcurve"/>
      <point x="1940" y="704"/>
      <point x="1690" y="245"/>
      <point x="1232" y="0"/>
    </contour>
    <contour>
      <point x="688" y="472" type="line"/>
      <point x="900" y="472" type="line"/>
      <point x="1052" y="472"/>
      <point x="1267" y="570"/>
      <point x="1380" y="810"/>
      <point x="1380" y="1024" type="qcurve"/>
      <point x="1380" y="1238"/>
      <point x="1265" y="1478"/>
      <point x="1044" y="1576"/>
      <point x="884" y="1576" type="qcurve"/>
      <point x="688" y="1576" type="line"/>
    </contour>
  </outline>
</glyph>
<glyph name="F" format="2">
  <advance width="1644"/>
  <unicode hex="0046"/>
  <outline>
    <contour>
      <point x="132" y="0" type="line"/>
      <point x="132" y="2048" type="line"/>
      <point x="1572" y="2048" type="line"/>
      <point x="1572" y="1600" type="line"/>
      <point x="688" y="1600" type="line"/>
      <point x="688" y="1248" type="line"/>
      <point x="1484" y="1248" type="line"/>
      <point x="1484" y="800" type="line"/>
      <point x="688" y="800" type="line"/>
      <point x="688" y="0" type="line"/>
    </contour>
  </outline>
</glyph>
<glyph name="H" format="2">
  <advance width="2112"/>
  <unicode hex="0048"/>
  <outline>
    <contour>
      <point x="132" y="0" type="line"/>
      <point x="132" y="2048" type="line"/>
      <point x="688" y="2048" type="line"/>
      <point x="688" y="1248" type="line"/>
      <point x="1424" y="1248" type="line"/>
      <point x="1424" y="2048" type="line"/>
      <point x="1980" y="2048" type="line"/>
      <point x="1980" y="0" type="line"/>
      <point x="1424" y="0" type="line"/>
      <point x="1424" y="800" type="line"/>
      <point x="688" y="800" type="line"/>
      <point x="688" y="0" type="line"/>
    </contour>
  </outline>
</glyph>
<glyph name="I" format="2">
  <advance width="1420"/>
  <unicode hex="0049"/>
  <unicode hex="E00C"/>
  <outline>
    <contour>
      <point x="76" y="1600" type="line"/>
      <point x="76" y="2048" type="line"/>
      <point x="1344" y="2048" type="line"/>
      <point x="1344" y="1600" type="line"/>
    </contour>
    <contour>
      <point x="76" y="0" type="line"/>
      <point x="76" y="448" type="line"/>
      <point x="1344" y="448" type="line"/>
      <point x="1344" y="0" type="line"/>
    </contour>
    <contour>
      <point x="988" y="2048" type="line"/>
      <point x="988" y="0" type="line"/>
      <point x="432" y="0" type="line"/>
      <point x="432" y="2048" type="line"/>
    </contour>
  </outline>
</glyph>
<glyph name="J" format="2">
  <advance width="1656"/>
  <unicode hex="004A"/>
  <outline>
    <contour>
      <point x="976" y="2048" type="line"/>
      <point x="1524" y="2048" type="line"/>
      <point x="1524" y="644" type="line"/>
      <point x="1523" y="444"/>
      <point x="1324" y="141"/>
      <point x="975" y="-28"/>
      <point x="748" y="-28" type="qcurve"/>
      <point x="551" y="-28"/>
      <point x="225" y="109"/>
      <point x="31" y="404"/>
      <point x="32" y="640" type="qcurve"/>
      <point x="588" y="640" type="line"/>
      <point x="591" y="563"/>
      <point x="638" y="457"/>
      <point x="723" y="404"/>
      <point x="784" y="404" type="qcurve"/>
      <point x="846" y="404"/>
      <point x="931" y="458"/>
      <point x="975" y="565"/>
      <point x="976" y="644" type="qcurve"/>
    </contour>
    <contour>
      <point x="524" y="2048" type="line"/>
      <point x="1399" y="2048" type="line"/>
      <point x="1399" y="1619" type="line"/>
      <point x="524" y="1619" type="line"/>
    </contour>
  </outline>
</glyph>
<glyph name="K" format="2">
  <advance width="2012"/>
  <unicode hex="004B"/>
  <outline>
    <contour>
      <point x="132" y="0" type="line"/>
      <point x="132" y="2048" type="line"/>
      <point x="688" y="2048" type="line"/>
      <point x="688" y="1220" type="line"/>
      <point x="716" y="1220" type="line"/>
      <point x="1332" y="2048" type="line"/>
      <point x="1980" y="2048" type="line"/>
      <point x="1288" y="1136" type="line"/>
      <point x="1996" y="0" type="line"/>
      <point x="1332" y="0" type="line"/>
      <point x="872" y="768" type="line"/>
      <point x="688" y="528" type="line"/>
      <point x="688" y="0" type="line"/>
    </contour>
  </outline>
</glyph>
<glyph name="L" format="2">
  <advance width="1608"/>
  <unicode hex="004C"/>
  <outline>
    <contour>
      <point x="132" y="0" type="line"/>
      <point x="132" y="2048" type="line"/>
      <point x="688" y="2048" type="line"/>
      <point x="688" y="448" type="line"/>
      <point x="1516" y="448" type="line"/>
      <point x="1516" y="0" type="line"/>
    </contour>
  </outline>
</glyph>
<glyph name="M" format="2">
  <advance width="2624"/>
  <unicode hex="004D"/>
  <outline>
    <contour>
      <point x="132" y="2048" type="line"/>
      <point x="824" y="2048" type="line"/>
      <point x="1300" y="888" type="line"/>
      <point x="1324" y="888" type="line"/>
      <point x="1800" y="2048" type="line"/>
      <point x="2492" y="2048" type="line"/>
      <point x="2492" y="0" type="line"/>
      <point x="1948" y="0" type="line"/>
      <point x="1948" y="1184" type="line"/>
      <point x="1932" y="1184" type="line"/>
      <point x="1476" y="16" type="line"/>
      <point x="1148" y="16" type="line"/>
      <point x="692" y="1192" type="line"/>
      <point x="676" y="1192" type="line"/>
      <point x="676" y="0" type="line"/>
      <point x="132" y="0" type="line"/>
    </contour>
  </outline>
</glyph>
<glyph name="N" format="2">
  <advance width="2036"/>
  <unicode hex="004E"/>
  <outline>
    <contour>
      <point x="1904" y="2048" type="line"/>
      <point x="1904" y="0" type="line"/>
      <point x="1440" y="0" type="line"/>
      <point x="700" y="1076" type="line"/>
      <point x="688" y="1076" type="line"/>
      <point x="688" y="0" type="line"/>
      <point x="132" y="0" type="line"/>
      <point x="132" y="2048" type="line"/>
      <point x="604" y="2048" type="line"/>
      <point x="1332" y="976" type="line"/>
      <point x="1348" y="976" type="line"/>
      <point x="1348" y="2048" type="line"/>
    </contour>
  </outline>
</glyph>
<glyph name="P" format="2">
  <advance width="1848"/>
  <unicode hex="0050"/>
  <outline>
    <contour>
      <point x="132" y="0" type="line"/>
      <point x="132" y="2048" type="line"/>
      <point x="1016" y="2048" type="line"/>
      <point x="1244" y="2048"/>
      <point x="1586" y="1868"/>
      <point x="1776" y="1542"/>
      <point x="1776" y="1324" type="qcurve"/>
      <point x="1776" y="1104"/>
      <point x="1581" y="782"/>
      <point x="1230" y="608"/>
      <point x="996" y="608" type="qcurve"/>
      <point x="468" y="608" type="line"/>
      <point x="468" y="1040" type="line"/>
      <point x="884" y="1040" type="line"/>
      <point x="982" y="1040"/>
      <point x="1121" y="1109"/>
      <point x="1196" y="1237"/>
      <point x="1196" y="1325" type="qcurve"/>
      <point x="1196" y="1412"/>
      <point x="1121" y="1537"/>
      <point x="982" y="1604"/>
      <point x="884" y="1604" type="qcurve"/>
      <point x="688" y="1604" type="line"/>
      <point x="688" y="0" type="line"/>
    </contour>
  </outline>
</glyph>
<glyph name="Q" format="2">
  <advance width="2244"/>
  <unicode hex="0051"/>
  <outline>
    <contour>
      <point x="924" y="760" type="line"/>
      <point x="1356" y="760" type="line"/>
      <point x="1512" y="564" type="line"/>
      <point x="1776" y="264" type="line"/>
      <point x="2120" y="-152" type="line"/>
      <point x="1628" y="-152" type="line"/>
      <point x="1384" y="132" type="line"/>
      <point x="1220" y="368" type="line"/>
    </contour>
    <contour>
      <point x="2116" y="1024" type="qcurve"/>
      <point x="2116" y="682"/>
      <point x="1850" y="213"/>
      <point x="1398" y="-28"/>
      <point x="1120" y="-28" type="qcurve"/>
      <point x="840" y="-28"/>
      <point x="389" y="215"/>
      <point x="124" y="684"/>
      <point x="124" y="1024" type="qcurve"/>
      <point x="124" y="1366"/>
      <point x="389" y="1835"/>
      <point x="840" y="2076"/>
      <point x="1120" y="2076" type="qcurve"/>
      <point x="1398" y="2076"/>
      <point x="1850" y="1835"/>
      <point x="2116" y="1366"/>
    </contour>
    <contour>
      <point x="1544" y="1024" type="qcurve"/>
      <point x="1544" y="1208"/>
      <point x="1447" y="1461"/>
      <point x="1258" y="1592"/>
      <point x="1120" y="1592" type="qcurve"/>
      <point x="982" y="1592"/>
      <point x="793" y="1461"/>
      <point x="696" y="1208"/>
      <point x="696" y="1024" type="qcurve"/>
      <point x="696" y="840"/>
      <point x="793" y="587"/>
      <point x="982" y="456"/>
      <point x="1120" y="456" type="qcurve"/>
      <point x="1258" y="456"/>
      <point x="1447" y="587"/>
      <point x="1544" y="840"/>
    </contour>
  </outline>
</glyph>
<glyph name="R" format="2">
  <advance width="1880"/>
  <unicode hex="0052"/>
  <outline>
    <contour>
      <point x="132" y="0" type="line"/>
      <point x="132" y="2048" type="line"/>
      <point x="1016" y="2048" type="line"/>
      <point x="1244" y="2048"/>
      <point x="1586" y="1882"/>
      <point x="1776" y="1570"/>
      <point x="1776" y="1352" type="qcurve"/>
      <point x="1776" y="1132"/>
      <point x="1581" y="830"/>
      <point x="1230" y="676"/>
      <point x="996" y="676" type="qcurve"/>
      <point x="468" y="676" type="line"/>
      <point x="468" y="1108" type="line"/>
      <point x="884" y="1108" type="line"/>
      <point x="982" y="1108"/>
      <point x="1121" y="1157"/>
      <point x="1196" y="1265"/>
      <point x="1196" y="1352" type="qcurve"/>
      <point x="1196" y="1440"/>
      <point x="1121" y="1551"/>
      <point x="982" y="1604"/>
      <point x="884" y="1604" type="qcurve"/>
      <point x="688" y="1604" type="line"/>
      <point x="688" y="0" type="line"/>
    </contour>
    <contour>
      <point x="1332" y="940" type="line"/>
      <point x="1844" y="0" type="line"/>
      <point x="1240" y="0" type="line"/>
      <point x="740" y="940" type="line"/>
    </contour>
  </outline>
</glyph>
<glyph name="U" format="2">
  <advance width="2032"/>
  <unicode hex="0055"/>
  <outline>
    <contour>
      <point x="1344" y="2048" type="line"/>
      <point x="1900" y="2048" type="line"/>
      <point x="1900" y="736" type="line"/>
      <point x="1900" y="502"/>
      <point x="1677" y="161"/>
      <point x="1279" y="-24"/>
      <point x="1016" y="-24" type="qcurve"/>
      <point x="751" y="-24"/>
      <point x="353" y="161"/>
      <point x="132" y="502"/>
      <point x="132" y="736" type="qcurve"/>
      <point x="132" y="2048" type="line"/>
      <point x="688" y="2048" type="line"/>
      <point x="688" y="784" type="line"/>
      <point x="688" y="689"/>
      <point x="772" y="540"/>
      <point x="921" y="456"/>
      <point x="1016" y="456" type="qcurve"/>
      <point x="1112" y="456"/>
      <point x="1260" y="540"/>
      <point x="1344" y="689"/>
      <point x="1344" y="784" type="qcurve"/>
    </contour>
  </outline>
</glyph>
<glyph name="W" format="2">
  <advance width="3080"/>
  <unicode hex="0057"/>
  <outline>
    <contour>
      <point x="652" y="0" type="line"/>
      <point x="48" y="2048" type="line"/>
      <point x="668" y="2048" type="line"/>
      <point x="948" y="788" type="line"/>
      <point x="964" y="788" type="line"/>
      <point x="1296" y="2048" type="line"/>
      <point x="1784" y="2048" type="line"/>
      <point x="2116" y="784" type="line"/>
      <point x="2132" y="784" type="line"/>
      <point x="2412" y="2048" type="line"/>
      <point x="3032" y="2048" type="line"/>
      <point x="2428" y="0" type="line"/>
      <point x="1896" y="0" type="line"/>
      <point x="1548" y="1144" type="line"/>
      <point x="1532" y="1144" type="line"/>
      <point x="1184" y="0" type="line"/>
    </contour>
  </outline>
</glyph>
<glyph name="X" format="2">
  <advance width="2148"/>
  <unicode hex="0058"/>
  <outline>
    <contour>
      <point x="728" y="2048" type="line"/>
      <point x="1064" y="1452" type="line"/>
      <point x="1080" y="1452" type="line"/>
      <point x="1420" y="2048" type="line"/>
      <point x="2040" y="2048" type="line"/>
      <point x="1428" y="1024" type="line"/>
      <point x="2064" y="0" type="line"/>
      <point x="1428" y="0" type="line"/>
      <point x="1080" y="608" type="line"/>
      <point x="1064" y="608" type="line"/>
      <point x="716" y="0" type="line"/>
      <point x="84" y="0" type="line"/>
      <point x="712" y="1024" type="line"/>
      <point x="104" y="2048" type="line"/>
    </contour>
  </outline>
</glyph>
<glyph name="Y" format="2">
  <advance width="2152"/>
  <unicode hex="0059"/>
  <outline>
    <contour>
      <point x="48" y="2048" type="line"/>
      <point x="668" y="2048" type="line"/>
      <point x="1068" y="1216" type="line"/>
      <point x="1084" y="1216" type="line"/>
      <point x="1484" y="2048" type="line"/>
      <point x="2104" y="2048" type="line"/>
      <point x="1352" y="644" type="line"/>
      <point x="1352" y="0" type="line"/>
      <point x="800" y="0" type="line"/>
      <point x="800" y="644" type="line"/>
    </contour>
  </outline>
</glyph>
<glyph name="Z" format="2">
  <advance width="1956"/>
  <unicode hex="005A"/>
  <outline>
    <contour>
      <point x="140" y="0" type="line"/>
      <point x="140" y="308" type="line"/>
      <point x="1108" y="1600" type="line"/>
      <point x="144" y="1600" type="line"/>
      <point x="144" y="2048" type="line"/>
      <point x="1816" y="2048" type="line"/>
      <point x="1816" y="1740" type="line"/>
      <point x="848" y="448" type="line"/>
      <point x="1812" y="448" type="line"/>
      <point x="1812" y="0" type="line"/>
    </contour>
  </outline>
</glyph>
<glyph name="bracketleft" format="2">
  <advance width="1240"/>
  <unicode hex="005B"/>
  <outline>
    <contour>
      <point x="276" y="-464" type="line"/>
      <point x="276" y="2048" type="line"/>
      <point x="1196" y="2048" type="line"/>
      <point x="1196" y="1648" type="line"/>
      <point x="812" y="1648" type="line"/>
      <point x="812" y="-64" type="line"/>
      <point x="1196" y="-64" type="line"/>
      <point x="1196" y="-464" type="line"/>
    </contour>
  </outline>
</glyph>
<glyph name="backslash" format="2">
  <advance width="1160"/>
  <unicode hex="005C"/>
  <outline>
    <contour>
      <point x="676" y="-308" type="line"/>
      <point x="16" y="2144" type="line"/>
      <point x="484" y="2144" type="line"/>
      <point x="1144" y="-308" type="line"/>
    </contour>
  </outline>
</glyph>
<glyph name="bracketright" format="2">
  <advance width="1240"/>
  <unicode hex="005D"/>
  <outline>
    <contour>
      <point x="964" y="2048" type="line"/>
      <point x="964" y="-464" type="line"/>
      <point x="44" y="-464" type="line"/>
      <point x="44" y="-64" type="line"/>
      <point x="428" y="-64" type="line"/>
      <point x="428" y="1648" type="line"/>
      <point x="44" y="1648" type="line"/>
      <point x="44" y="2048" type="line"/>
    </contour>
  </outline>
</glyph>
<glyph name="asciicircum" format="2">
  <advance width="1408"/>
  <unicode hex="005E"/>
  <outline>
    <contour>
      <point x="668" y="1796" type="line"/>
      <point x="740" y="1796" type="line"/>
      <point x="740" y="1680" type="line"/>
      <point x="668" y="1680" type="line"/>
    </contour>
    <contour>
      <point x="80" y="1120" type="line"/>
      <point x="508" y="2016" type="line"/>
      <point x="900" y="2016" type="line"/>
      <point x="1328" y="1120" type="line"/>
      <point x="948" y="1120" type="line"/>
      <point x="696" y="1720" type="line"/>
      <point x="712" y="1720" type="line"/>
      <point x="460" y="1120" type="line"/>
    </contour>
  </outline>
</glyph>
<glyph name="grave" format="2">
  <advance width="1400"/>
  <unicode hex="0060"/>
  <outline>
    <contour>
      <point x="668" y="1728" type="line"/>
      <point x="368" y="2176" type="line"/>
      <point x="840" y="2176" type="line"/>
      <point x="1032" y="1728" type="line"/>
    </contour>
  </outline>
</glyph>
<glyph name="a" format="2">
  <advance width="1664"/>
  <unicode hex="0061"/>
  <outline>
    <contour>
      <point x="568" y="-24" type="qcurve"/>
      <point x="421" y="-24"/>
      <point x="196" y="73"/>
      <point x="68" y="271"/>
      <point x="68" y="424" type="qcurve"/>
      <point x="68" y="550"/>
      <point x="154" y="729"/>
      <point x="308" y="843"/>
      <point x="513" y="903"/>
      <point x="632" y="912" type="qcurve"/>
      <point x="761" y="922"/>
      <point x="918" y="951"/>
      <point x="988" y="1004"/>
      <point x="988" y="1048" type="qcurve"/>
      <point x="988" y="1052" type="line"/>
      <point x="988" y="1112"/>
      <point x="896" y="1176"/>
      <point x="824" y="1176" type="qcurve"/>
      <point x="745" y="1176"/>
      <point x="646" y="1107"/>
      <point x="636" y="1036" type="qcurve"/>
      <point x="128" y="1036" type="line"/>
      <point x="135" y="1141"/>
      <point x="228" y="1329"/>
      <point x="402" y="1473"/>
      <point x="660" y="1556"/>
      <point x="832" y="1556" type="qcurve"/>
      <point x="997" y="1556"/>
      <point x="1259" y="1479"/>
      <point x="1443" y="1342"/>
      <point x="1540" y="1159"/>
      <point x="1540" y="1052" type="qcurve"/>
      <point x="1540" y="0" type="line"/>
      <point x="1024" y="0" type="line"/>
      <point x="1024" y="216" type="line"/>
      <point x="1012" y="216" type="line"/>
      <point x="966" y="130"/>
      <point x="835" y="24"/>
      <point x="668" y="-24"/>
    </contour>
    <contour>
      <point x="748" y="324" type="qcurve"/>
      <point x="811" y="324"/>
      <point x="922" y="376"/>
      <point x="992" y="474"/>
      <point x="992" y="544" type="qcurve"/>
      <point x="992" y="672" type="line"/>
      <point x="970" y="663"/>
      <point x="921" y="647"/>
      <point x="866" y="633"/>
      <point x="805" y="621"/>
      <point x="772" y="616" type="qcurve"/>
      <point x="708" y="606"/>
      <point x="627" y="561"/>
      <point x="588" y="496"/>
      <point x="588" y="456" type="qcurve"/>
      <point x="588" y="392"/>
      <point x="678" y="324"/>
    </contour>
  </outline>
</glyph>
<glyph name="f" format="2">
  <advance width="1132"/>
  <unicode hex="0066"/>
  <outline>
    <contour>
      <point x="1060" y="1536" type="line"/>
      <point x="1060" y="1136" type="line"/>
      <point x="32" y="1136" type="line"/>
      <point x="32" y="1536" type="line"/>
    </contour>
    <contour>
      <point x="228" y="0" type="line"/>
      <point x="228" y="1580" type="line"/>
      <point x="228" y="1770"/>
      <point x="364" y="2020"/>
      <point x="612" y="2144"/>
      <point x="780" y="2144" type="qcurve"/>
      <point x="885" y="2144"/>
      <point x="1084" y="2112"/>
      <point x="1132" y="2100" type="qcurve"/>
      <point x="1052" y="1704" type="line"/>
      <point x="1022" y="1713"/>
      <point x="942" y="1724"/>
      <point x="912" y="1724" type="qcurve"/>
      <point x="834" y="1724"/>
      <point x="780" y="1658"/>
      <point x="780" y="1604" type="qcurve"/>
      <point x="780" y="0" type="line"/>
    </contour>
  </outline>
</glyph>
<glyph name="g" format="2">
  <advance width="1828"/>
  <unicode hex="0067"/>
  <outline>
    <contour>
      <point x="880" y="-608" type="curve" smooth="yes"/>
      <point x="1366" y="-608"/>
      <point x="1688" y="-386"/>
      <point x="1688" y="4" type="curve"/>
      <point x="1688" y="1536" type="line"/>
      <point x="1136" y="1536" type="line"/>
      <point x="1136" y="1268" type="line"/>
      <point x="1124" y="1268" type="line"/>
      <point x="1064" y="1424"/>
      <point x="920" y="1556"/>
      <point x="692" y="1556" type="curve"/>
      <point x="388" y="1556"/>
      <point x="92" y="1324"/>
      <point x="92" y="768" type="curve"/>
      <point x="92" y="236"/>
      <point x="368" y="20"/>
      <point x="696" y="20" type="curve"/>
      <point x="904" y="20"/>
      <point x="1068" y="108"/>
      <point x="1128" y="264" type="curve"/>
      <point x="1144" y="264" type="line"/>
      <point x="1144" y="4" type="line"/>
      <point x="1144" y="-177"/>
      <point x="1039" y="-236"/>
      <point x="896" y="-236" type="curve"/>
      <point x="769" y="-236"/>
      <point x="676" y="-198"/>
      <point x="660" y="-100" type="curve"/>
      <point x="128" y="-100" type="line"/>
      <point x="149" y="-396"/>
      <point x="418" y="-608"/>
    </contour>
    <contour>
      <point x="900" y="412" type="curve" smooth="yes"/>
      <point x="748" y="412"/>
      <point x="660" y="540"/>
      <point x="660" y="768" type="curve"/>
      <point x="660" y="996"/>
      <point x="748" y="1132"/>
      <point x="900" y="1132" type="curve"/>
      <point x="1052" y="1132"/>
      <point x="1144" y="996"/>
      <point x="1144" y="768" type="curve"/>
      <point x="1144" y="544"/>
      <point x="1052" y="412"/>
    </contour>
  </outline>
</glyph>
<glyph name="i" format="2">
  <advance width="832"/>
  <unicode hex="0069"/>
  <outline>
    <contour>
      <point x="140" y="0" type="line"/>
      <point x="140" y="1536" type="line"/>
      <point x="692" y="1536" type="line"/>
      <point x="692" y="0" type="line"/>
    </contour>
    <contour>
      <point x="416" y="1696" type="qcurve"/>
      <point x="304" y="1696"/>
      <point x="144" y="1844"/>
      <point x="144" y="1948" type="qcurve"/>
      <point x="144" y="2052"/>
      <point x="304" y="2200"/>
      <point x="416" y="2200" type="qcurve"/>
      <point x="529" y="2200"/>
      <point x="688" y="2052"/>
      <point x="688" y="1948" type="qcurve"/>
      <point x="688" y="1844"/>
      <point x="529" y="1696"/>
    </contour>
  </outline>
</glyph>
<glyph name="j" format="2">
  <advance width="832"/>
  <unicode hex="006A"/>
  <outline>
    <contour>
      <point x="140" y="1536" type="line"/>
      <point x="692" y="1536" type="line"/>
      <point x="692" y="-52" type="line"/>
      <point x="692" y="-254"/>
      <point x="523" y="-482"/>
      <point x="219" y="-576"/>
      <point x="16" y="-576" type="qcurve"/>
      <point x="-14" y="-576"/>
      <point x="-65" y="-574"/>
      <point x="-96" y="-572" type="qcurve"/>
      <point x="-96" y="-164" type="line"/>
      <point x="-76" y="-166"/>
      <point x="-47" y="-168"/>
      <point x="-32" y="-168" type="qcurve"/>
      <point x="67" y="-168"/>
      <point x="140" y="-107"/>
      <point x="140" y="-40" type="qcurve"/>
    </contour>
    <contour>
      <point x="416" y="1696" type="qcurve"/>
      <point x="304" y="1696"/>
      <point x="144" y="1844"/>
      <point x="144" y="1948" type="qcurve"/>
      <point x="144" y="2052"/>
      <point x="304" y="2200"/>
      <point x="416" y="2200" type="qcurve"/>
      <point x="529" y="2200"/>
      <point x="688" y="2052"/>
      <point x="688" y="1948" type="qcurve"/>
      <point x="688" y="1844"/>
      <point x="529" y="1696"/>
    </contour>
  </outline>
</glyph>
<glyph name="k" format="2">
  <advance width="1708"/>
  <unicode hex="006B"/>
  <outline>
    <contour>
      <point x="636" y="364" type="line"/>
      <point x="640" y="1020" type="line"/>
      <point x="712" y="1020" type="line"/>
      <point x="1084" y="1536" type="line"/>
      <point x="1704" y="1536" type="line"/>
      <point x="1080" y="732" type="line"/>
      <point x="924" y="732" type="line"/>
    </contour>
    <contour>
      <point x="140" y="0" type="line"/>
      <point x="140" y="2048" type="line"/>
      <point x="692" y="2048" type="line"/>
      <point x="692" y="0" type="line"/>
    </contour>
    <contour>
      <point x="1088" y="0" type="line"/>
      <point x="736" y="608" type="line"/>
      <point x="1096" y="1000" type="line"/>
      <point x="1720" y="0" type="line"/>
    </contour>
  </outline>
</glyph>
<glyph name="l" format="2">
  <advance width="928"/>
  <unicode hex="006C"/>
  <unicode hex="E050"/>
  <outline>
    <contour>
      <point x="140" y="2048" type="line"/>
      <point x="692" y="2048" type="line"/>
      <point x="692" y="500" type="line"/>
      <point x="693" y="453"/>
      <point x="746" y="404"/>
      <point x="796" y="404" type="qcurve"/>
      <point x="822" y="404"/>
      <point x="854" y="408"/>
      <point x="864" y="412" type="qcurve"/>
      <point x="944" y="32" type="line"/>
      <point x="910" y="21"/>
      <point x="814" y="-3"/>
      <point x="716" y="-8" type="qcurve"/>
      <point x="419" y="-23"/>
      <point x="141" y="192"/>
      <point x="140" y="448" type="qcurve"/>
    </contour>
  </outline>
</glyph>
<glyph name="m" format="2">
  <advance width="2648"/>
  <unicode hex="006D"/>
  <outline>
    <contour>
      <point x="140" y="0" type="line"/>
      <point x="140" y="1536" type="line"/>
      <point x="664" y="1536" type="line"/>
      <point x="664" y="1244" type="line"/>
      <point x="680" y="1244" type="line"/>
      <point x="728" y="1388"/>
      <point x="960" y="1556"/>
      <point x="1120" y="1556" type="qcurve"/>
      <point x="1282" y="1556"/>
      <point x="1516" y="1385"/>
      <point x="1540" y="1244" type="qcurve"/>
      <point x="1556" y="1244" type="line"/>
      <point x="1595" y="1385"/>
      <point x="1849" y="1556"/>
      <point x="2020" y="1556" type="qcurve"/>
      <point x="2241" y="1556"/>
      <point x="2516" y="1272"/>
      <point x="2516" y="1036" type="qcurve"/>
      <point x="2516" y="0" type="line"/>
      <point x="1964" y="0" type="line"/>
      <point x="1964" y="896" type="line"/>
      <point x="1964" y="997"/>
      <point x="1862" y="1112"/>
      <point x="1776" y="1112" type="qcurve"/>
      <point x="1691" y="1112"/>
      <point x="1592" y="997"/>
      <point x="1592" y="896" type="qcurve"/>
      <point x="1592" y="0" type="line"/>
      <point x="1064" y="0" type="line"/>
      <point x="1064" y="896" type="line"/>
      <point x="1064" y="997"/>
      <point x="962" y="1112"/>
      <point x="876" y="1112" type="qcurve"/>
      <point x="819" y="1112"/>
      <point x="737" y="1060"/>
      <point x="692" y="963"/>
      <point x="692" y="896" type="qcurve"/>
      <point x="692" y="0" type="line"/>
    </contour>
  </outline>
</glyph>
<glyph name="n" format="2">
  <advance width="1820"/>
  <unicode hex="006E"/>
  <outline>
    <contour>
      <point x="692" y="864" type="qcurve"/>
      <point x="692" y="0" type="line"/>
      <point x="140" y="0" type="line"/>
      <point x="140" y="1536" type="line"/>
      <point x="664" y="1536" type="line"/>
      <point x="664" y="1244" type="line"/>
      <point x="680" y="1244" type="line"/>
      <point x="730" y="1390"/>
      <point x="983" y="1556"/>
      <point x="1152" y="1556" type="qcurve"/>
      <point x="1315" y="1556"/>
      <point x="1556" y="1407"/>
      <point x="1689" y="1147"/>
      <point x="1688" y="980" type="qcurve"/>
      <point x="1688" y="0" type="line"/>
      <point x="1136" y="0" type="line"/>
      <point x="1136" y="864" type="line"/>
      <point x="1137" y="978"/>
      <point x="1020" y="1108"/>
      <point x="916" y="1108" type="qcurve"/>
      <point x="848" y="1108"/>
      <point x="747" y="1049"/>
      <point x="693" y="940"/>
    </contour>
  </outline>
</glyph>
<glyph name="p" format="2">
  <advance width="1824"/>
  <unicode hex="0070"/>
  <outline>
    <contour>
      <point x="140" y="-576" type="line"/>
      <point x="140" y="1536" type="line"/>
      <point x="688" y="1536" type="line"/>
      <point x="688" y="1268" type="line"/>
      <point x="700" y="1268" type="line"/>
      <point x="730" y="1346"/>
      <point x="846" y="1477"/>
      <point x="1018" y="1556"/>
      <point x="1132" y="1556" type="qcurve"/>
      <point x="1284" y="1556"/>
      <point x="1559" y="1394"/>
      <point x="1732" y="1046"/>
      <point x="1732" y="768" type="qcurve"/>
      <point x="1732" y="502"/>
      <point x="1567" y="152"/>
      <point x="1292" y="-20"/>
      <point x="1128" y="-20" type="qcurve"/>
      <point x="1020" y="-20"/>
      <point x="851" y="51"/>
      <point x="732" y="174"/>
      <point x="700" y="252" type="qcurve"/>
      <point x="692" y="252" type="line"/>
      <point x="692" y="-576" type="line"/>
    </contour>
    <contour>
      <point x="680" y="768" type="qcurve"/>
      <point x="680" y="656"/>
      <point x="739" y="493"/>
      <point x="848" y="404"/>
      <point x="924" y="404" type="qcurve"/>
      <point x="1000" y="404"/>
      <point x="1107" y="491"/>
      <point x="1164" y="654"/>
      <point x="1164" y="768" type="qcurve"/>
      <point x="1164" y="882"/>
      <point x="1107" y="1045"/>
      <point x="1000" y="1132"/>
      <point x="924" y="1132" type="qcurve"/>
      <point x="848" y="1132"/>
      <point x="739" y="1045"/>
      <point x="680" y="882"/>
    </contour>
  </outline>
</glyph>
<glyph name="q" format="2">
  <advance width="1824"/>
  <unicode hex="0071"/>
  <outline>
    <contour>
      <point x="1132" y="-576" type="line"/>
      <point x="1132" y="252" type="line"/>
      <point x="1124" y="252" type="line"/>
      <point x="1092" y="174"/>
      <point x="973" y="51"/>
      <point x="804" y="-20"/>
      <point x="696" y="-20" type="qcurve"/>
      <point x="532" y="-20"/>
      <point x="257" y="152"/>
      <point x="92" y="502"/>
      <point x="92" y="768" type="qcurve"/>
      <point x="92" y="1046"/>
      <point x="265" y="1394"/>
      <point x="540" y="1556"/>
      <point x="692" y="1556" type="qcurve"/>
      <point x="806" y="1556"/>
      <point x="978" y="1477"/>
      <point x="1094" y="1346"/>
      <point x="1124" y="1268" type="qcurve"/>
      <point x="1136" y="1268" type="line"/>
      <point x="1136" y="1536" type="line"/>
      <point x="1684" y="1536" type="line"/>
      <point x="1684" y="-576" type="line"/>
    </contour>
    <contour>
      <point x="900" y="404" type="qcurve"/>
      <point x="976" y="404"/>
      <point x="1085" y="493"/>
      <point x="1144" y="656"/>
      <point x="1144" y="768" type="qcurve"/>
      <point x="1144" y="882"/>
      <point x="1085" y="1045"/>
      <point x="976" y="1132"/>
      <point x="900" y="1132" type="qcurve"/>
      <point x="824" y="1132"/>
      <point x="717" y="1045"/>
      <point x="660" y="882"/>
      <point x="660" y="768" type="qcurve"/>
      <point x="660" y="654"/>
      <point x="717" y="491"/>
      <point x="824" y="404"/>
    </contour>
  </outline>
</glyph>
<glyph name="r" format="2">
  <advance width="1260"/>
  <unicode hex="0072"/>
  <unicode hex="E05F"/>
  <outline>
    <contour>
      <point x="140" y="0" type="line"/>
      <point x="140" y="1536" type="line"/>
      <point x="676" y="1536" type="line"/>
      <point x="676" y="1244" type="line"/>
      <point x="692" y="1244" type="line"/>
      <point x="735" y="1406"/>
      <point x="917" y="1556"/>
      <point x="1040" y="1556" type="qcurve"/>
      <point x="1100" y="1556"/>
      <point x="1214" y="1526"/>
      <point x="1260" y="1500" type="qcurve"/>
      <point x="1100" y="1048" type="line"/>
      <point x="1066" y="1064"/>
      <point x="992" y="1088"/>
      <point x="948" y="1088" type="qcurve"/>
      <point x="880" y="1088"/>
      <point x="763" y="1017"/>
      <point x="693" y="888"/>
      <point x="692" y="800" type="qcurve"/>
      <point x="692" y="0" type="line"/>
    </contour>
  </outline>
</glyph>
<glyph name="s" format="2">
  <advance width="1656"/>
  <unicode hex="0073"/>
  <outline>
    <contour>
      <point x="1544" y="1036" type="line"/>
      <point x="1530" y="1361"/>
      <point x="1260" y="1556"/>
      <point x="816" y="1556" type="curve"/>
      <point x="377" y="1556"/>
      <point x="106" y="1376"/>
      <point x="108" y="1056" type="curve"/>
      <point x="106" y="814"/>
      <point x="263" y="659"/>
      <point x="576" y="604" type="curve"/>
      <point x="848" y="556" type="line"/>
      <point x="968" y="534"/>
      <point x="1022" y="502"/>
      <point x="1024" y="444" type="curve"/>
      <point x="1022" y="380"/>
      <point x="949" y="344"/>
      <point x="848" y="344" type="curve"/>
      <point x="723" y="344"/>
      <point x="635" y="398"/>
      <point x="620" y="496" type="curve"/>
      <point x="72" y="496" type="line"/>
      <point x="102" y="181"/>
      <point x="374" y="-28"/>
      <point x="844" y="-28" type="curve"/>
      <point x="1269" y="-28"/>
      <point x="1582" y="179"/>
      <point x="1584" y="508" type="curve"/>
      <point x="1582" y="735"/>
      <point x="1430" y="867"/>
      <point x="1116" y="924" type="curve"/>
      <point x="804" y="980" type="line"/>
      <point x="687" y="1001"/>
      <point x="654" y="1043"/>
      <point x="656" y="1088" type="curve"/>
      <point x="654" y="1152"/>
      <point x="733" y="1188"/>
      <point x="828" y="1188" type="curve"/>
      <point x="937" y="1188"/>
      <point x="1028" y="1130"/>
      <point x="1036" y="1036" type="curve"/>
    </contour>
  </outline>
</glyph>
<glyph name="t" format="2">
  <advance width="1140"/>
  <unicode hex="0074"/>
  <outline>
    <contour>
      <point x="1056" y="1536" type="line"/>
      <point x="1056" y="1136" type="line"/>
      <point x="44" y="1136" type="line"/>
      <point x="44" y="1536" type="line"/>
    </contour>
    <contour>
      <point x="240" y="1904" type="line"/>
      <point x="792" y="1904" type="line"/>
      <point x="792" y="494" type="line"/>
      <point x="792" y="462"/>
      <point x="814" y="419"/>
      <point x="860" y="398"/>
      <point x="896" y="398" type="qcurve"/>
      <point x="921" y="398"/>
      <point x="988" y="410"/>
      <point x="1004" y="414" type="qcurve"/>
      <point x="1084" y="26" type="line"/>
      <point x="1047" y="15"/>
      <point x="910" y="-17"/>
      <point x="816" y="-22" type="qcurve"/>
      <point x="626" y="-32"/>
      <point x="368" y="67"/>
      <point x="238" y="281"/>
      <point x="240" y="442" type="qcurve"/>
    </contour>
  </outline>
</glyph>
<glyph name="u" format="2">
  <advance width="1828"/>
  <unicode hex="0075"/>
  <outline>
    <contour>
      <point x="1136" y="672" type="qcurve"/>
      <point x="1136" y="1536" type="line"/>
      <point x="1688" y="1536" type="line"/>
      <point x="1688" y="0" type="line"/>
      <point x="1164" y="0" type="line"/>
      <point x="1164" y="292" type="line"/>
      <point x="1148" y="292" type="line"/>
      <point x="1098" y="145"/>
      <point x="848" y="-20"/>
      <point x="676" y="-20" type="qcurve"/>
      <point x="515" y="-20"/>
      <point x="274" y="128"/>
      <point x="141" y="388"/>
      <point x="140" y="556" type="qcurve"/>
      <point x="140" y="1536" type="line"/>
      <point x="692" y="1536" type="line"/>
      <point x="692" y="672" type="line"/>
      <point x="693" y="558"/>
      <point x="808" y="428"/>
      <point x="912" y="428" type="qcurve"/>
      <point x="981" y="428"/>
      <point x="1082" y="487"/>
      <point x="1137" y="596"/>
    </contour>
  </outline>
</glyph>
<glyph name="v" format="2">
  <advance width="1704"/>
  <unicode hex="0076"/>
  <outline>
    <contour>
      <point x="1688" y="1536" type="line"/>
      <point x="1172" y="0" type="line"/>
      <point x="532" y="0" type="line"/>
      <point x="16" y="1536" type="line"/>
      <point x="596" y="1536" type="line"/>
      <point x="844" y="520" type="line"/>
      <point x="860" y="520" type="line"/>
      <point x="1108" y="1536" type="line"/>
    </contour>
  </outline>
</glyph>
<glyph name="w" format="2">
  <advance width="2464"/>
  <unicode hex="0077"/>
  <outline>
    <contour>
      <point x="412" y="0" type="line"/>
      <point x="28" y="1536" type="line"/>
      <point x="580" y="1536" type="line"/>
      <point x="756" y="600" type="line"/>
      <point x="768" y="600" type="line"/>
      <point x="964" y="1536" type="line"/>
      <point x="1500" y="1536" type="line"/>
      <point x="1704" y="608" type="line"/>
      <point x="1716" y="608" type="line"/>
      <point x="1884" y="1536" type="line"/>
      <point x="2436" y="1536" type="line"/>
      <point x="2052" y="0" type="line"/>
      <point x="1456" y="0" type="line"/>
      <point x="1240" y="824" type="line"/>
      <point x="1224" y="824" type="line"/>
      <point x="1008" y="0" type="line"/>
    </contour>
  </outline>
</glyph>
<glyph name="x" format="2">
  <advance width="1680"/>
  <unicode hex="0078"/>
  <outline>
    <contour>
      <point x="616" y="1536" type="line"/>
      <point x="840" y="1060" type="line"/>
      <point x="1076" y="1536" type="line"/>
      <point x="1624" y="1536" type="line"/>
      <point x="1212" y="768" type="line"/>
      <point x="1644" y="0" type="line"/>
      <point x="1100" y="0" type="line"/>
      <point x="840" y="488" type="line"/>
      <point x="588" y="0" type="line"/>
      <point x="36" y="0" type="line"/>
      <point x="472" y="768" type="line"/>
      <point x="64" y="1536" type="line"/>
    </contour>
  </outline>
</glyph>
<glyph name="z" format="2">
  <advance width="1668"/>
  <unicode hex="007A"/>
  <outline>
    <contour>
      <point x="156" y="0" type="line"/>
      <point x="156" y="304" type="line"/>
      <point x="828" y="1108" type="line"/>
      <point x="828" y="1116" type="line"/>
      <point x="180" y="1116" type="line"/>
      <point x="180" y="1536" type="line"/>
      <point x="1480" y="1536" type="line"/>
      <point x="1480" y="1200" type="line"/>
      <point x="868" y="428" type="line"/>
      <point x="868" y="420" type="line"/>
      <point x="1504" y="420" type="line"/>
      <point x="1504" y="0" type="line"/>
    </contour>
  </outline>
</glyph>
<glyph name="braceleft" format="2">
  <advance width="1240"/>
  <unicode hex="007B"/>
  <outline>
    <contour>
      <point x="76" y="780" type="qcurve"/>
      <point x="76" y="1032" type="line"/>
      <point x="252" y="1032"/>
      <point x="388" y="1169"/>
      <point x="388" y="1316" type="qcurve"/>
      <point x="388" y="1472" type="line"/>
      <point x="388" y="1688"/>
      <point x="523" y="1925"/>
      <point x="752" y="2027"/>
      <point x="1042" y="2048"/>
      <point x="1196" y="2048" type="qcurve"/>
      <point x="1196" y="1648" type="line"/>
      <point x="1076" y="1648"/>
      <point x="960" y="1594"/>
      <point x="924" y="1484"/>
      <point x="924" y="1400" type="qcurve"/>
      <point x="924" y="1180" type="line"/>
      <point x="924" y="1105"/>
      <point x="857" y="962"/>
      <point x="677" y="848"/>
      <point x="343" y="780"/>
    </contour>
    <contour>
      <point x="1196" y="-464" type="line"/>
      <point x="1042" y="-464"/>
      <point x="752" y="-443"/>
      <point x="523" y="-341"/>
      <point x="388" y="-104"/>
      <point x="388" y="112" type="qcurve"/>
      <point x="388" y="268" type="line"/>
      <point x="388" y="415"/>
      <point x="252" y="552"/>
      <point x="76" y="552" type="qcurve"/>
      <point x="76" y="804" type="line"/>
      <point x="343" y="804"/>
      <point x="677" y="736"/>
      <point x="857" y="622"/>
      <point x="924" y="479"/>
      <point x="924" y="404" type="qcurve"/>
      <point x="924" y="184" type="line"/>
      <point x="924" y="101"/>
      <point x="960" y="-10"/>
      <point x="1076" y="-64"/>
      <point x="1196" y="-64" type="qcurve"/>
    </contour>
    <contour>
      <point x="76" y="552" type="line"/>
      <point x="76" y="1032" type="line"/>
      <point x="516" y="1032" type="line"/>
      <point x="516" y="552" type="line"/>
    </contour>
  </outline>
</glyph>
<glyph name="bar" format="2">
  <advance width="1140"/>
  <unicode hex="007C"/>
  <outline>
    <contour>
      <point x="840" y="2708" type="line"/>
      <point x="840" y="-660" type="line"/>
      <point x="300" y="-660" type="line"/>
      <point x="300" y="2708" type="line"/>
    </contour>
  </outline>
</glyph>
<glyph name="braceright" format="2">
  <advance width="1240"/>
  <unicode hex="007D"/>
  <outline>
    <contour>
      <point x="1164" y="804" type="qcurve"/>
      <point x="1164" y="552" type="line"/>
      <point x="989" y="552"/>
      <point x="852" y="415"/>
      <point x="852" y="268" type="qcurve"/>
      <point x="852" y="112" type="line"/>
      <point x="852" y="-104"/>
      <point x="717" y="-341"/>
      <point x="488" y="-443"/>
      <point x="199" y="-464"/>
      <point x="44" y="-464" type="qcurve"/>
      <point x="44" y="-64" type="line"/>
      <point x="164" y="-64"/>
      <point x="280" y="-10"/>
      <point x="316" y="101"/>
      <point x="316" y="184" type="qcurve"/>
      <point x="316" y="404" type="line"/>
      <point x="316" y="479"/>
      <point x="383" y="622"/>
      <point x="563" y="736"/>
      <point x="897" y="804"/>
    </contour>
    <contour>
      <point x="44" y="2048" type="line"/>
      <point x="199" y="2048"/>
      <point x="488" y="2027"/>
      <point x="717" y="1925"/>
      <point x="852" y="1688"/>
      <point x="852" y="1472" type="qcurve"/>
      <point x="852" y="1316" type="line"/>
      <point x="852" y="1169"/>
      <point x="989" y="1032"/>
      <point x="1164" y="1032" type="qcurve"/>
      <point x="1164" y="780" type="line"/>
      <point x="897" y="780"/>
      <point x="563" y="848"/>
      <point x="383" y="962"/>
      <point x="316" y="1105"/>
      <point x="316" y="1180" type="qcurve"/>
      <point x="316" y="1400" type="line"/>
      <point x="316" y="1484"/>
      <point x="280" y="1594"/>
      <point x="164" y="1648"/>
      <point x="44" y="1648" type="qcurve"/>
    </contour>
    <contour>
      <point x="1164" y="1032" type="line"/>
      <point x="1164" y="552" type="line"/>
      <point x="724" y="552" type="line"/>
      <point x="724" y="1032" type="line"/>
    </contour>
  </outline>
</glyph>
<glyph name="asciitilde" format="2">
  <advance width="1952"/>
  <unicode hex="007E"/>
  <outline>
    <contour>
      <point x="204" y="516" type="line"/>
      <point x="196" y="721"/>
      <point x="293" y="1023"/>
      <point x="502" y="1188"/>
      <point x="660" y="1188" type="qcurve"/>
      <point x="749" y="1188"/>
      <point x="922" y="1118"/>
      <point x="1032" y="1020" type="qcurve"/>
      <point x="1079" y="979"/>
      <point x="1152" y="924"/>
      <point x="1204" y="924" type="qcurve"/>
      <point x="1265" y="924"/>
      <point x="1352" y="1027"/>
      <point x="1348" y="1148" type="qcurve"/>
      <point x="1748" y="1148" type="line"/>
      <point x="1757" y="943"/>
      <point x="1655" y="641"/>
      <point x="1445" y="476"/>
      <point x="1292" y="476" type="qcurve"/>
      <point x="1195" y="476"/>
      <point x="1018" y="554"/>
      <point x="916" y="644" type="qcurve"/>
      <point x="861" y="693"/>
      <point x="798" y="740"/>
      <point x="748" y="740" type="qcurve"/>
      <point x="685" y="740"/>
      <point x="601" y="637"/>
      <point x="604" y="516" type="qcurve"/>
    </contour>
  </outline>
</glyph>
<glyph name="exclamdown" format="2">
  <advance width="1000"/>
  <unicode hex="00A1"/>
  <outline>
    <contour>
      <point x="780" y="-516" type="line"/>
      <point x="220" y="-516" type="line"/>
      <point x="272" y="892" type="line"/>
      <point x="728" y="892" type="line"/>
    </contour>
    <contour>
      <point x="500" y="1564" type="qcurve"/>
      <point x="610" y="1564"/>
      <point x="779" y="1401"/>
      <point x="780" y="1284" type="qcurve"/>
      <point x="779" y="1170"/>
      <point x="610" y="1008"/>
      <point x="500" y="1008" type="qcurve"/>
      <point x="384" y="1008"/>
      <point x="219" y="1170"/>
      <point x="220" y="1284" type="qcurve"/>
      <point x="219" y="1401"/>
      <point x="384" y="1564"/>
    </contour>
  </outline>
</glyph>
<glyph name="cent" format="2">
  <advance width="1708"/>
  <unicode hex="00A2"/>
  <outline>
    <contour>
      <point x="804" y="0" type="line"/>
      <point x="804" y="2048" type="line"/>
      <point x="968" y="2048" type="line"/>
      <point x="968" y="0" type="line"/>
    </contour>
    <contour>
      <point x="880" y="232" type="qcurve"/>
      <point x="630" y="232"/>
      <point x="274" y="431"/>
      <point x="84" y="788"/>
      <point x="84" y="1024" type="qcurve"/>
      <point x="84" y="1260"/>
      <point x="274" y="1617"/>
      <point x="630" y="1816"/>
      <point x="880" y="1816" type="qcurve"/>
      <point x="1106" y="1816"/>
      <point x="1437" y="1653"/>
      <point x="1619" y="1356"/>
      <point x="1620" y="1156" type="qcurve"/>
      <point x="1108" y="1156" type="line"/>
      <point x="1097" y="1277"/>
      <point x="980" y="1404"/>
      <point x="888" y="1404" type="qcurve"/>
      <point x="816" y="1404"/>
      <point x="708" y="1321"/>
      <point x="648" y="1154"/>
      <point x="648" y="1028" type="qcurve"/>
      <point x="648" y="902"/>
      <point x="708" y="735"/>
      <point x="816" y="652"/>
      <point x="888" y="652" type="qcurve"/>
      <point x="979" y="652"/>
      <point x="1099" y="779"/>
      <point x="1108" y="900" type="qcurve"/>
      <point x="1620" y="900" type="line"/>
      <point x="1617" y="697"/>
      <point x="1437" y="396"/>
      <point x="1108" y="232"/>
    </contour>
  </outline>
</glyph>
<glyph name="sterling" format="2">
  <advance width="1968"/>
  <unicode hex="00A3"/>
  <outline>
    <contour>
      <point x="1784" y="0" type="line"/>
      <point x="208" y="0" type="line"/>
      <point x="208" y="448" type="line"/>
      <point x="1784" y="448" type="line"/>
    </contour>
    <contour>
      <point x="1412" y="828" type="line"/>
      <point x="204" y="828" type="line"/>
      <point x="204" y="1244" type="line"/>
      <point x="1412" y="1244" type="line"/>
    </contour>
    <contour>
      <point x="972" y="1496" type="qcurve"/>
      <point x="1004" y="656" type="line"/>
      <point x="1009" y="512"/>
      <point x="848" y="349"/>
      <point x="660" y="280" type="qcurve"/>
      <point x="372" y="448" type="line"/>
      <point x="405" y="464"/>
      <point x="438" y="505"/>
      <point x="449" y="568"/>
      <point x="448" y="616" type="qcurve"/>
      <point x="416" y="1496" type="line"/>
      <point x="409" y="1676"/>
      <point x="570" y="1936"/>
      <point x="873" y="2076"/>
      <point x="1080" y="2076" type="qcurve"/>
      <point x="1246" y="2076"/>
      <point x="1497" y="2000"/>
      <point x="1671" y="1851"/>
      <point x="1766" y="1636"/>
      <point x="1776" y="1472" type="qcurve"/>
      <point x="1256" y="1472" type="line"/>
      <point x="1251" y="1544"/>
      <point x="1205" y="1618"/>
      <point x="1131" y="1644"/>
      <point x="1084" y="1644" type="qcurve"/>
      <point x="1043" y="1644"/>
      <point x="993" y="1610"/>
      <point x="971" y="1544"/>
    </contour>
  </outline>
</glyph>
<glyph name="currency" format="2">
  <advance width="2232"/>
  <unicode hex="00A4"/>
  <outline>
    <contour>
      <point x="1120" y="-28" type="qcurve"/>
      <point x="942" y="-28"/>
      <point x="630" y="103"/>
      <point x="393" y="339"/>
      <point x="259" y="653"/>
      <point x="260" y="836" type="qcurve"/>
      <point x="259" y="1019"/>
      <point x="393" y="1332"/>
      <point x="630" y="1566"/>
      <point x="942" y="1696"/>
      <point x="1120" y="1696" type="qcurve"/>
      <point x="1295" y="1696"/>
      <point x="1604" y="1566"/>
      <point x="1840" y="1332"/>
      <point x="1975" y="1019"/>
      <point x="1976" y="836" type="qcurve"/>
      <point x="1975" y="653"/>
      <point x="1840" y="339"/>
      <point x="1604" y="103"/>
      <point x="1295" y="-28"/>
    </contour>
    <contour>
      <point x="1120" y="260" type="qcurve"/>
      <point x="1279" y="260"/>
      <point x="1542" y="411"/>
      <point x="1699" y="672"/>
      <point x="1700" y="836" type="qcurve"/>
      <point x="1699" y="1002"/>
      <point x="1542" y="1262"/>
      <point x="1279" y="1412"/>
      <point x="1120" y="1412" type="qcurve"/>
      <point x="955" y="1412"/>
      <point x="692" y="1262"/>
      <point x="539" y="1002"/>
      <point x="540" y="836" type="qcurve"/>
      <point x="539" y="672"/>
      <point x="692" y="411"/>
      <point x="955" y="260"/>
    </contour>
    <contour>
      <point x="1748" y="1248" type="line"/>
      <point x="1536" y="1464" type="line"/>
      <point x="1824" y="1748" type="line"/>
      <point x="2040" y="1532" type="line"/>
    </contour>
    <contour>
      <point x="1824" y="-44" type="line"/>
      <point x="1536" y="240" type="line"/>
      <point x="1748" y="452" type="line"/>
      <point x="2040" y="172" type="line"/>
    </contour>
    <contour>
      <point x="416" y="-44" type="line"/>
      <point x="204" y="172" type="line"/>
      <point x="492" y="452" type="line"/>
      <point x="708" y="240" type="line"/>
    </contour>
    <contour>
      <point x="492" y="1248" type="line"/>
      <point x="204" y="1532" type="line"/>
      <point x="416" y="1748" type="line"/>
      <point x="708" y="1464" type="line"/>
    </contour>
  </outline>
</glyph>
<glyph name="yen" format="2">
  <advance width="1656"/>
  <unicode hex="00A5"/>
  <outline>
    <contour>
      <point x="596" y="2048" type="line"/>
      <point x="952" y="1088" type="line"/>
      <point x="592" y="772" type="line"/>
      <point x="40" y="2048" type="line"/>
    </contour>
    <contour>
      <point x="712" y="1104" type="line"/>
      <point x="1060" y="2048" type="line"/>
      <point x="1616" y="2048" type="line"/>
      <point x="1060" y="772" type="line"/>
    </contour>
    <contour>
      <point x="1092" y="1080" type="line"/>
      <point x="1092" y="0" type="line"/>
      <point x="544" y="0" type="line"/>
      <point x="544" y="1080" type="line"/>
    </contour>
    <contour>
      <point x="1468" y="1080" type="line"/>
      <point x="1468" y="788" type="line"/>
      <point x="116" y="788" type="line"/>
      <point x="116" y="1080" type="line"/>
    </contour>
    <contour>
      <point x="1468" y="684" type="line"/>
      <point x="1468" y="392" type="line"/>
      <point x="116" y="392" type="line"/>
      <point x="116" y="684" type="line"/>
    </contour>
  </outline>
</glyph>
<glyph name="brokenbar" format="2">
  <advance width="1120"/>
  <unicode hex="00A6"/>
  <outline>
    <contour>
      <point x="316" y="584" type="line"/>
      <point x="804" y="584" type="line"/>
      <point x="804" y="-384" type="line"/>
      <point x="316" y="-384" type="line"/>
    </contour>
    <contour>
      <point x="804" y="2048" type="line"/>
      <point x="804" y="1084" type="line"/>
      <point x="316" y="1084" type="line"/>
      <point x="316" y="2048" type="line"/>
    </contour>
  </outline>
</glyph>
<glyph name="section" format="2">
  <advance width="1748"/>
  <unicode hex="00A7"/>
  <outline>
    <contour>
      <point x="1492" y="1524" type="qcurve"/>
      <point x="1020" y="1524" type="line"/>
      <point x="1019" y="1566"/>
      <point x="932" y="1624"/>
      <point x="852" y="1624" type="qcurve"/>
      <point x="824" y="1624"/>
      <point x="750" y="1616"/>
      <point x="696" y="1578"/>
      <point x="696" y="1532" type="qcurve"/>
      <point x="696" y="1492"/>
      <point x="753" y="1431"/>
      <point x="834" y="1392"/>
      <point x="868" y="1384" type="qcurve"/>
      <point x="1248" y="1240" type="line"/>
      <point x="1288" y="1225"/>
      <point x="1412" y="1162"/>
      <point x="1529" y="1052"/>
      <point x="1596" y="884"/>
      <point x="1580" y="764" type="qcurve"/>
      <point x="1568" y="674"/>
      <point x="1473" y="582"/>
      <point x="1372" y="546"/>
      <point x="1348" y="540" type="qcurve"/>
      <point x="1340" y="536" type="line"/>
      <point x="1432" y="455"/>
      <point x="1531" y="258"/>
      <point x="1532" y="132" type="qcurve"/>
      <point x="1532" y="-32"/>
      <point x="1367" y="-277"/>
      <point x="1076" y="-412"/>
      <point x="884" y="-412" type="qcurve"/>
      <point x="682" y="-412"/>
      <point x="377" y="-269"/>
      <point x="208" y="-12"/>
      <point x="208" y="160" type="qcurve"/>
      <point x="680" y="160" type="line"/>
      <point x="679" y="100"/>
      <point x="786" y="35"/>
      <point x="892" y="44" type="qcurve"/>
      <point x="945" y="47"/>
      <point x="1051" y="84"/>
      <point x="1052" y="132" type="qcurve"/>
      <point x="1052" y="168"/>
      <point x="994" y="226"/>
      <point x="918" y="268"/>
      <point x="888" y="280" type="qcurve"/>
      <point x="508" y="420" type="line"/>
      <point x="466" y="435"/>
      <point x="341" y="498"/>
      <point x="224" y="609"/>
      <point x="157" y="779"/>
      <point x="172" y="900" type="qcurve"/>
      <point x="184" y="992"/>
      <point x="274" y="1082"/>
      <point x="378" y="1116"/>
      <point x="408" y="1124" type="qcurve"/>
      <point x="408" y="1124" type="line"/>
      <point x="323" y="1205"/>
      <point x="219" y="1403"/>
      <point x="220" y="1532" type="qcurve"/>
      <point x="220" y="1688"/>
      <point x="380" y="1934"/>
      <point x="666" y="2076"/>
      <point x="852" y="2076" type="qcurve"/>
      <point x="1042" y="2076"/>
      <point x="1329" y="1932"/>
      <point x="1492" y="1682"/>
    </contour>
    <contour>
      <point x="1144" y="728" type="qcurve"/>
      <point x="1152" y="746"/>
      <point x="1131" y="789"/>
      <point x="1064" y="834"/>
      <point x="1000" y="856" type="qcurve"/>
      <point x="704" y="956" type="line"/>
      <point x="674" y="966"/>
      <point x="635" y="966"/>
      <point x="612" y="950"/>
      <point x="604" y="936" type="qcurve"/>
      <point x="591" y="912"/>
      <point x="657" y="838"/>
      <point x="748" y="808" type="qcurve"/>
      <point x="1056" y="704" type="line"/>
      <point x="1080" y="696"/>
      <point x="1112" y="696"/>
      <point x="1136" y="712"/>
    </contour>
  </outline>
</glyph>
<glyph name="dieresis" format="2">
  <advance width="1400"/>
  <unicode hex="00A8"/>
  <outline>
    <contour>
      <point x="384" y="1716" type="qcurve"/>
      <point x="282" y="1716"/>
      <point x="140" y="1852"/>
      <point x="140" y="1948" type="qcurve"/>
      <point x="140" y="2044"/>
      <point x="282" y="2180"/>
      <point x="384" y="2180" type="qcurve"/>
      <point x="483" y="2180"/>
      <point x="624" y="2044"/>
      <point x="624" y="1948" type="qcurve"/>
      <point x="624" y="1852"/>
      <point x="483" y="1716"/>
    </contour>
    <contour>
      <point x="1020" y="1716" type="qcurve"/>
      <point x="918" y="1716"/>
      <point x="776" y="1852"/>
      <point x="776" y="1948" type="qcurve"/>
      <point x="776" y="2044"/>
      <point x="918" y="2180"/>
      <point x="1020" y="2180" type="qcurve"/>
      <point x="1119" y="2180"/>
      <point x="1260" y="2044"/>
      <point x="1260" y="1948" type="qcurve"/>
      <point x="1260" y="1852"/>
      <point x="1119" y="1716"/>
    </contour>
  </outline>
</glyph>
<glyph name="copyright" format="2">
  <advance width="2576"/>
  <unicode hex="00A9"/>
  <outline>
    <contour>
      <point x="750" y="1024" type="qcurve"/>
      <point x="750" y="1174"/>
      <point x="897" y="1421"/>
      <point x="1144" y="1568"/>
      <point x="1294" y="1568" type="qcurve"/>
      <point x="1427" y="1568"/>
      <point x="1652" y="1450"/>
      <point x="1797" y="1247"/>
      <point x="1810" y="1120" type="qcurve"/>
      <point x="1476" y="1120" type="line"/>
      <point x="1464" y="1177"/>
      <point x="1361" y="1248"/>
      <point x="1294" y="1248" type="qcurve"/>
      <point x="1233" y="1248"/>
      <point x="1131" y="1189"/>
      <point x="1070" y="1088"/>
      <point x="1070" y="1026" type="qcurve"/>
      <point x="1070" y="964"/>
      <point x="1131" y="861"/>
      <point x="1233" y="800"/>
      <point x="1294" y="800" type="qcurve"/>
      <point x="1361" y="800"/>
      <point x="1464" y="871"/>
      <point x="1476" y="928" type="qcurve"/>
      <point x="1810" y="928" type="line"/>
      <point x="1797" y="801"/>
      <point x="1652" y="598"/>
      <point x="1427" y="480"/>
      <point x="1294" y="480" type="qcurve"/>
      <point x="1144" y="480"/>
      <point x="897" y="627"/>
      <point x="750" y="874"/>
    </contour>
    <contour>
      <point x="1288" y="-32" type="qcurve"/>
      <point x="1070" y="-32"/>
      <point x="687" y="132"/>
      <point x="396" y="423"/>
      <point x="231" y="805"/>
      <point x="232" y="1024" type="qcurve"/>
      <point x="233" y="1243"/>
      <point x="398" y="1625"/>
      <point x="688" y="1916"/>
      <point x="1070" y="2080"/>
      <point x="1288" y="2080" type="qcurve"/>
      <point x="1507" y="2080"/>
      <point x="1890" y="1916"/>
      <point x="2179" y="1625"/>
      <point x="2343" y="1243"/>
      <point x="2344" y="1024" type="qcurve"/>
      <point x="2345" y="805"/>
      <point x="2181" y="423"/>
      <point x="1891" y="132"/>
      <point x="1507" y="-32"/>
    </contour>
    <contour>
      <point x="1288" y="368" type="qcurve"/>
      <point x="1425" y="368"/>
      <point x="1663" y="470"/>
      <point x="1843" y="650"/>
      <point x="1944" y="887"/>
      <point x="1944" y="1023" type="qcurve"/>
      <point x="1944" y="1160"/>
      <point x="1842" y="1398"/>
      <point x="1662" y="1578"/>
      <point x="1424" y="1680"/>
      <point x="1288" y="1680" type="qcurve"/>
      <point x="1153" y="1680"/>
      <point x="916" y="1578"/>
      <point x="735" y="1397"/>
      <point x="632" y="1159"/>
      <point x="632" y="1023" type="qcurve"/>
      <point x="632" y="888"/>
      <point x="734" y="651"/>
      <point x="914" y="470"/>
      <point x="1152" y="368"/>
    </contour>
  </outline>
</glyph>
<glyph name="ordfeminine" format="2">
  <advance width="1444"/>
  <unicode hex="00AA"/>
  <outline>
    <contour>
      <point x="896" y="1184" type="qcurve"/>
      <point x="896" y="1652" type="line"/>
      <point x="896" y="1733"/>
      <point x="815" y="1828"/>
      <point x="728" y="1828" type="qcurve"/>
      <point x="635" y="1828"/>
      <point x="532" y="1758"/>
      <point x="532" y="1692" type="qcurve"/>
      <point x="280" y="1708" type="line"/>
      <point x="280" y="1849"/>
      <point x="527" y="2032"/>
      <point x="728" y="2032" type="qcurve"/>
      <point x="917" y="2032"/>
      <point x="1148" y="1841"/>
      <point x="1148" y="1652" type="qcurve"/>
      <point x="1148" y="1220" type="line"/>
      <point x="1148" y="1166"/>
      <point x="1161" y="1037"/>
      <point x="1188" y="968" type="qcurve"/>
      <point x="932" y="968" type="line"/>
      <point x="917" y="1013"/>
      <point x="896" y="1124"/>
    </contour>
    <contour>
      <point x="960" y="1580" type="line"/>
      <point x="960" y="1420" type="line"/>
      <point x="752" y="1420" type="line"/>
      <point x="629" y="1420"/>
      <point x="512" y="1328"/>
      <point x="512" y="1268" type="qcurve"/>
      <point x="512" y="1214"/>
      <point x="593" y="1148"/>
      <point x="680" y="1148" type="qcurve"/>
      <point x="738" y="1148"/>
      <point x="858" y="1200"/>
      <point x="940" y="1274"/>
      <point x="940" y="1308" type="qcurve"/>
      <point x="964" y="1144" type="line"/>
      <point x="931" y="1075"/>
      <point x="763" y="952"/>
      <point x="616" y="952" type="qcurve"/>
      <point x="445" y="952"/>
      <point x="260" y="1123"/>
      <point x="260" y="1264" type="qcurve"/>
      <point x="260" y="1417"/>
      <point x="503" y="1580"/>
      <point x="752" y="1580" type="qcurve"/>
    </contour>
  </outline>
</glyph>
<glyph name="logicalnot" format="2">
  <advance width="1708"/>
  <unicode hex="00AC"/>
  <outline>
    <contour>
      <point x="1460" y="1108" type="line"/>
      <point x="1460" y="872" type="line"/>
      <point x="256" y="872" type="line"/>
      <point x="256" y="1108" type="line"/>
    </contour>
    <contour>
      <point x="1460" y="1000" type="line"/>
      <point x="1460" y="516" type="line"/>
      <point x="1172" y="516" type="line"/>
      <point x="1172" y="1000" type="line"/>
    </contour>
  </outline>
</glyph>
<glyph name="registered" format="2">
  <advance width="1856"/>
  <unicode hex="00AE"/>
  <outline>
    <contour>
      <point x="632" y="916" type="line"/>
      <point x="632" y="1654" type="line"/>
      <point x="984" y="1654" type="line"/>
      <point x="1071" y="1654"/>
      <point x="1195" y="1592"/>
      <point x="1260" y="1480"/>
      <point x="1260" y="1404" type="qcurve"/>
      <point x="1260" y="1327"/>
      <point x="1192" y="1219"/>
      <point x="1066" y="1162"/>
      <point x="978" y="1162" type="qcurve"/>
      <point x="746" y="1162" type="line"/>
      <point x="746" y="1314" type="line"/>
      <point x="944" y="1314" type="line"/>
      <point x="992" y="1314"/>
      <point x="1042" y="1360"/>
      <point x="1042" y="1404" type="qcurve"/>
      <point x="1042" y="1451"/>
      <point x="992" y="1498"/>
      <point x="944" y="1498" type="qcurve"/>
      <point x="844" y="1498" type="line"/>
      <point x="844" y="916" type="line"/>
    </contour>
    <contour>
      <point x="1120" y="1252" type="line"/>
      <point x="1278" y="916" type="line"/>
      <point x="1046" y="916" type="line"/>
      <point x="904" y="1252" type="line"/>
    </contour>
    <contour>
      <point x="928" y="476" type="qcurve"/>
      <point x="762" y="476"/>
      <point x="472" y="600"/>
      <point x="252" y="820"/>
      <point x="128" y="1110"/>
      <point x="128" y="1276" type="qcurve"/>
      <point x="128" y="1442"/>
      <point x="252" y="1732"/>
      <point x="472" y="1952"/>
      <point x="762" y="2076"/>
      <point x="928" y="2076" type="qcurve"/>
      <point x="1094" y="2076"/>
      <point x="1384" y="1952"/>
      <point x="1604" y="1732"/>
      <point x="1728" y="1442"/>
      <point x="1728" y="1276" type="qcurve"/>
      <point x="1728" y="1110"/>
      <point x="1604" y="820"/>
      <point x="1384" y="600"/>
      <point x="1094" y="476"/>
    </contour>
    <contour>
      <point x="928" y="700" type="qcurve"/>
      <point x="1088" y="700"/>
      <point x="1349" y="855"/>
      <point x="1504" y="1117"/>
      <point x="1504" y="1276" type="qcurve"/>
      <point x="1504" y="1435"/>
      <point x="1349" y="1697"/>
      <point x="1087" y="1852"/>
      <point x="928" y="1852" type="qcurve"/>
      <point x="769" y="1852"/>
      <point x="507" y="1697"/>
      <point x="352" y="1435"/>
      <point x="352" y="1276" type="qcurve"/>
      <point x="352" y="1117"/>
      <point x="507" y="856"/>
      <point x="769" y="700"/>
    </contour>
  </outline>
</glyph>
<glyph name="macron" format="2">
  <advance width="1808"/>
  <unicode hex="00AF"/>
  <outline>
    <contour>
      <point x="1404" y="2048" type="line"/>
      <point x="1404" y="1796" type="line"/>
      <point x="404" y="1796" type="line"/>
      <point x="404" y="2048" type="line"/>
    </contour>
  </outline>
</glyph>
<glyph name="degree" format="2">
  <advance width="1304"/>
  <unicode hex="00B0"/>
  <outline>
    <contour>
      <point x="652" y="1036" type="qcurve"/>
      <point x="510" y="1036"/>
      <point x="278" y="1174"/>
      <point x="140" y="1407"/>
      <point x="140" y="1548" type="qcurve"/>
      <point x="140" y="1690"/>
      <point x="278" y="1922"/>
      <point x="510" y="2060"/>
      <point x="652" y="2060" type="qcurve"/>
      <point x="794" y="2060"/>
      <point x="1026" y="1922"/>
      <point x="1164" y="1690"/>
      <point x="1164" y="1548" type="qcurve"/>
      <point x="1164" y="1407"/>
      <point x="1026" y="1174"/>
      <point x="794" y="1036"/>
    </contour>
    <contour>
      <point x="652" y="1376" type="qcurve"/>
      <point x="700" y="1376"/>
      <point x="778" y="1422"/>
      <point x="824" y="1501"/>
      <point x="824" y="1548" type="qcurve"/>
      <point x="824" y="1596"/>
      <point x="778" y="1674"/>
      <point x="700" y="1720"/>
      <point x="652" y="1720" type="qcurve"/>
      <point x="605" y="1720"/>
      <point x="526" y="1674"/>
      <point x="480" y="1596"/>
      <point x="480" y="1548" type="qcurve"/>
      <point x="480" y="1501"/>
      <point x="526" y="1422"/>
      <point x="605" y="1376"/>
    </contour>
  </outline>
</glyph>
<glyph name="plusminus" format="2">
  <advance width="1952"/>
  <unicode hex="00B1"/>
  <outline>
    <contour>
      <point x="232" y="64" type="line"/>
      <point x="232" y="480" type="line"/>
      <point x="1720" y="480" type="line"/>
      <point x="1720" y="64" type="line"/>
    </contour>
    <contour>
      <point x="232" y="912" type="line"/>
      <point x="232" y="1312" type="line"/>
      <point x="1720" y="1312" type="line"/>
      <point x="1720" y="912" type="line"/>
    </contour>
    <contour>
      <point x="752" y="608" type="line"/>
      <point x="752" y="1616" type="line"/>
      <point x="1200" y="1616" type="line"/>
      <point x="1200" y="608" type="line"/>
    </contour>
  </outline>
</glyph>
<glyph name="twosuperior" format="2">
  <advance width="1200"/>
  <unicode hex="00B2"/>
  <outline>
    <contour>
      <point x="112" y="1024" type="line"/>
      <point x="112" y="1288" type="line"/>
      <point x="612" y="1660" type="line"/>
      <point x="681" y="1711"/>
      <point x="776" y="1797"/>
      <point x="776" y="1860" type="qcurve"/>
      <point x="776" y="1920"/>
      <point x="672" y="1980"/>
      <point x="600" y="1980" type="qcurve"/>
      <point x="522" y="1980"/>
      <point x="428" y="1911"/>
      <point x="428" y="1836" type="qcurve"/>
      <point x="76" y="1836" type="line"/>
      <point x="76" y="2043"/>
      <point x="373" y="2268"/>
      <point x="604" y="2268" type="qcurve"/>
      <point x="764" y="2268"/>
      <point x="997" y="2159"/>
      <point x="1124" y="1976"/>
      <point x="1124" y="1864" type="qcurve"/>
      <point x="1124" y="1772"/>
      <point x="1047" y="1614"/>
      <point x="888" y="1472"/>
      <point x="764" y="1404" type="qcurve"/>
      <point x="640" y="1336" type="line"/>
      <point x="640" y="1324" type="line"/>
      <point x="1124" y="1324" type="line"/>
      <point x="1124" y="1024" type="line"/>
    </contour>
  </outline>
</glyph>
<glyph name="threesuperior" format="2">
  <advance width="1268"/>
  <unicode hex="00B3"/>
  <outline>
    <contour>
      <point x="628" y="1008" type="qcurve"/>
      <point x="468" y="1008"/>
      <point x="220" y="1103"/>
      <point x="76" y="1274"/>
      <point x="72" y="1388" type="qcurve"/>
      <point x="448" y="1388" type="line"/>
      <point x="454" y="1349"/>
      <point x="556" y="1312"/>
      <point x="628" y="1312" type="qcurve"/>
      <point x="700" y="1312"/>
      <point x="808" y="1357"/>
      <point x="808" y="1408" type="qcurve"/>
      <point x="808" y="1453"/>
      <point x="704" y="1512"/>
      <point x="608" y="1512" type="qcurve"/>
      <point x="440" y="1512" type="line"/>
      <point x="440" y="1784" type="line"/>
      <point x="608" y="1784" type="line"/>
      <point x="689" y="1784"/>
      <point x="780" y="1842"/>
      <point x="780" y="1884" type="qcurve"/>
      <point x="780" y="1929"/>
      <point x="698" y="1980"/>
      <point x="632" y="1980" type="qcurve"/>
      <point x="557" y="1980"/>
      <point x="455" y="1932"/>
      <point x="452" y="1896" type="qcurve"/>
      <point x="100" y="1896" type="line"/>
      <point x="102" y="2006"/>
      <point x="245" y="2174"/>
      <point x="486" y="2268"/>
      <point x="636" y="2268" type="qcurve"/>
      <point x="788" y="2268"/>
      <point x="1013" y="2170"/>
      <point x="1136" y="2006"/>
      <point x="1136" y="1908" type="qcurve"/>
      <point x="1136" y="1800"/>
      <point x="986" y="1676"/>
      <point x="884" y="1664" type="qcurve"/>
      <point x="884" y="1652" type="line"/>
      <point x="1028" y="1643"/>
      <point x="1192" y="1504"/>
      <point x="1192" y="1384" type="qcurve"/>
      <point x="1192" y="1272"/>
      <point x="1045" y="1103"/>
      <point x="790" y="1008"/>
    </contour>
  </outline>
</glyph>
<glyph name="acute" format="2">
  <advance width="1400"/>
  <unicode hex="00B4"/>
  <outline>
    <contour>
      <point x="516" y="1728" type="line"/>
      <point x="708" y="2176" type="line"/>
      <point x="1180" y="2176" type="line"/>
      <point x="880" y="1728" type="line"/>
    </contour>
  </outline>
</glyph>
<glyph name="mu" format="2">
  <advance width="1960"/>
  <unicode hex="00B5"/>
  <outline>
    <contour>
      <point x="140" y="-544" type="line"/>
      <point x="140" y="1536" type="line"/>
      <point x="692" y="1536" type="line"/>
      <point x="692" y="672" type="line"/>
      <point x="693" y="601"/>
      <point x="766" y="490"/>
      <point x="896" y="428"/>
      <point x="980" y="428" type="qcurve"/>
      <point x="1065" y="428"/>
      <point x="1195" y="490"/>
      <point x="1269" y="601"/>
      <point x="1268" y="672" type="qcurve"/>
      <point x="1268" y="1536" type="line"/>
      <point x="1820" y="1536" type="line"/>
      <point x="1820" y="0" type="line"/>
      <point x="1296" y="0" type="line"/>
      <point x="1296" y="212" type="line"/>
      <point x="1284" y="212" type="line"/>
      <point x="1249" y="127"/>
      <point x="1087" y="28"/>
      <point x="980" y="28" type="qcurve"/>
      <point x="874" y="28"/>
      <point x="711" y="127"/>
      <point x="676" y="212" type="qcurve"/>
      <point x="664" y="212" type="line"/>
      <point x="664" y="-544" type="line"/>
    </contour>
  </outline>
</glyph>
<glyph name="paragraph" format="2">
  <advance width="1736"/>
  <unicode hex="00B6"/>
  <outline>
    <contour>
      <point x="1292" y="1648" type="line"/>
      <point x="956" y="1648" type="line"/>
      <point x="956" y="760" type="line"/>
      <point x="836" y="760" type="line"/>
      <point x="606" y="760"/>
      <point x="290" y="927"/>
      <point x="128" y="1218"/>
      <point x="128" y="1404" type="qcurve"/>
      <point x="128" y="1588"/>
      <point x="290" y="1879"/>
      <point x="606" y="2048"/>
      <point x="836" y="2048" type="qcurve"/>
      <point x="1292" y="2048" type="line"/>
    </contour>
    <contour>
      <point x="1204" y="0" type="line"/>
      <point x="1204" y="2048" type="line"/>
      <point x="1604" y="2048" type="line"/>
      <point x="1604" y="0" type="line"/>
    </contour>
  </outline>
</glyph>
<glyph name="cedilla" format="2">
  <advance width="1256"/>
  <unicode hex="00B8"/>
  <outline>
    <contour>
      <point x="532" y="8" type="line"/>
      <point x="728" y="8" type="line"/>
      <point x="712" y="-84" type="line"/>
      <point x="831" y="-102"/>
      <point x="963" y="-234"/>
      <point x="964" y="-332" type="qcurve"/>
      <point x="966" y="-494"/>
      <point x="645" y="-680"/>
      <point x="364" y="-680" type="qcurve"/>
      <point x="364" y="-468" type="line"/>
      <point x="512" y="-468"/>
      <point x="668" y="-405"/>
      <point x="672" y="-344" type="qcurve"/>
      <point x="676" y="-288"/>
      <point x="581" y="-215"/>
      <point x="484" y="-200" type="qcurve"/>
    </contour>
  </outline>
</glyph>
<glyph name="onesuperior" format="2">
  <advance width="918"/>
  <unicode hex="00B9"/>
  <outline>
    <contour>
      <point x="382" y="1024" type="line"/>
      <point x="382" y="1932" type="line"/>
      <point x="376" y="1932" type="line"/>
      <point x="96" y="1764" type="line"/>
      <point x="96" y="2060" type="line"/>
      <point x="410" y="2252" type="line"/>
      <point x="730" y="2252" type="line"/>
      <point x="730" y="1024" type="line"/>
    </contour>
  </outline>
</glyph>
<glyph name="ordmasculine" format="2">
  <advance width="1432"/>
  <unicode hex="00BA"/>
  <outline>
    <contour>
      <point x="216" y="1436" type="qcurve"/>
      <point x="216" y="1540" type="line"/>
      <point x="216" y="1756"/>
      <point x="488" y="2032"/>
      <point x="716" y="2032" type="qcurve"/>
      <point x="947" y="2032"/>
      <point x="1216" y="1756"/>
      <point x="1216" y="1540" type="qcurve"/>
      <point x="1216" y="1436" type="line"/>
      <point x="1216" y="1223"/>
      <point x="951" y="948"/>
      <point x="720" y="948" type="qcurve"/>
      <point x="486" y="948"/>
      <point x="216" y="1223"/>
    </contour>
    <contour>
      <point x="468" y="1540" type="qcurve"/>
      <point x="468" y="1436" type="line"/>
      <point x="468" y="1313"/>
      <point x="594" y="1152"/>
      <point x="720" y="1152" type="qcurve"/>
      <point x="843" y="1152"/>
      <point x="964" y="1313"/>
      <point x="964" y="1436" type="qcurve"/>
      <point x="964" y="1540" type="line"/>
      <point x="964" y="1660"/>
      <point x="842" y="1828"/>
      <point x="716" y="1828" type="qcurve"/>
      <point x="593" y="1828"/>
      <point x="468" y="1660"/>
    </contour>
  </outline>
</glyph>
<glyph name="questiondown" format="2">
  <advance width="1688"/>
  <unicode hex="00BF"/>
  <outline>
    <contour>
      <point x="900" y="1536" type="qcurve"/>
      <point x="1016" y="1536"/>
      <point x="1182" y="1373"/>
      <point x="1180" y="1256" type="qcurve"/>
      <point x="1182" y="1142"/>
      <point x="1016" y="980"/>
      <point x="900" y="980" type="qcurve"/>
      <point x="790" y="980"/>
      <point x="622" y="1142"/>
      <point x="620" y="1256" type="qcurve"/>
      <point x="622" y="1373"/>
      <point x="790" y="1536"/>
    </contour>
    <contour>
      <point x="1144" y="864" type="line"/>
      <point x="1144" y="816" type="line"/>
      <point x="1144" y="652"/>
      <point x="1092" y="455"/>
      <point x="991" y="337"/>
      <point x="916" y="288" type="qcurve"/>
      <point x="821" y="226"/>
      <point x="692" y="108"/>
      <point x="692" y="24" type="qcurve"/>
      <point x="692" y="-26"/>
      <point x="740" y="-102"/>
      <point x="822" y="-144"/>
      <point x="872" y="-144" type="qcurve"/>
      <point x="926" y="-144"/>
      <point x="1017" y="-94"/>
      <point x="1072" y="-5"/>
      <point x="1072" y="52" type="qcurve"/>
      <point x="1584" y="52" type="line"/>
      <point x="1582" y="-168"/>
      <point x="1386" y="-443"/>
      <point x="1063" y="-572"/>
      <point x="868" y="-572" type="qcurve"/>
      <point x="655" y="-572"/>
      <point x="318" y="-447"/>
      <point x="124" y="-196"/>
      <point x="124" y="-8" type="qcurve"/>
      <point x="124" y="174"/>
      <point x="306" y="407"/>
      <point x="452" y="492" type="qcurve"/>
      <point x="525" y="535"/>
      <point x="622" y="623"/>
      <point x="672" y="737"/>
      <point x="672" y="816" type="qcurve"/>
      <point x="672" y="864" type="line"/>
    </contour>
  </outline>
</glyph>
<glyph name="Adieresis" format="2">
  <advance width="2240"/>
  <unicode hex="00C4"/>
  <outline>
    <contour>
      <point x="664" y="0" type="line"/>
      <point x="64" y="0" type="line"/>
      <point x="740" y="2048" type="line"/>
      <point x="1500" y="2048" type="line"/>
      <point x="2176" y="0" type="line"/>
      <point x="1576" y="0" type="line"/>
      <point x="1128" y="1484" type="line"/>
      <point x="1112" y="1484" type="line"/>
    </contour>
    <contour>
      <point x="552" y="808" type="line"/>
      <point x="1680" y="808" type="line"/>
      <point x="1680" y="392" type="line"/>
      <point x="552" y="392" type="line"/>
    </contour>
    <contour>
      <point x="804" y="2228" type="qcurve"/>
      <point x="702" y="2228"/>
      <point x="560" y="2364"/>
      <point x="560" y="2460" type="qcurve"/>
      <point x="560" y="2556"/>
      <point x="702" y="2692"/>
      <point x="804" y="2692" type="qcurve"/>
      <point x="903" y="2692"/>
      <point x="1044" y="2556"/>
      <point x="1044" y="2460" type="qcurve"/>
      <point x="1044" y="2364"/>
      <point x="903" y="2228"/>
    </contour>
    <contour>
      <point x="1440" y="2228" type="qcurve"/>
      <point x="1338" y="2228"/>
      <point x="1196" y="2364"/>
      <point x="1196" y="2460" type="qcurve"/>
      <point x="1196" y="2556"/>
      <point x="1338" y="2692"/>
      <point x="1440" y="2692" type="qcurve"/>
      <point x="1539" y="2692"/>
      <point x="1680" y="2556"/>
      <point x="1680" y="2460" type="qcurve"/>
      <point x="1680" y="2364"/>
      <point x="1539" y="2228"/>
    </contour>
  </outline>
</glyph>
<glyph name="Aring" format="2">
  <advance width="2240"/>
  <unicode hex="00C5"/>
  <outline>
    <contour>
      <point x="664" y="0" type="line"/>
      <point x="64" y="0" type="line"/>
      <point x="740" y="2048" type="line"/>
      <point x="1500" y="2048" type="line"/>
      <point x="2176" y="0" type="line"/>
      <point x="1576" y="0" type="line"/>
      <point x="1128" y="1484" type="line"/>
      <point x="1112" y="1484" type="line"/>
    </contour>
    <contour>
      <point x="552" y="808" type="line"/>
      <point x="1680" y="808" type="line"/>
      <point x="1680" y="392" type="line"/>
      <point x="552" y="392" type="line"/>
    </contour>
    <contour>
      <point x="1120" y="2152" type="qcurve"/>
      <point x="987" y="2152"/>
      <point x="800" y="2333"/>
      <point x="800" y="2460" type="qcurve"/>
      <point x="800" y="2588"/>
      <point x="987" y="2768"/>
      <point x="1120" y="2768" type="qcurve"/>
      <point x="1253" y="2768"/>
      <point x="1440" y="2588"/>
      <point x="1440" y="2460" type="qcurve"/>
      <point x="1440" y="2333"/>
      <point x="1253" y="2152"/>
    </contour>
    <contour>
      <point x="1120" y="2340" type="qcurve"/>
      <point x="1172" y="2341"/>
      <point x="1248" y="2411"/>
      <point x="1248" y="2461" type="qcurve"/>
      <point x="1248" y="2510"/>
      <point x="1173" y="2581"/>
      <point x="1120" y="2580" type="qcurve"/>
      <point x="1068" y="2579"/>
      <point x="992" y="2510"/>
      <point x="992" y="2460" type="qcurve"/>
      <point x="992" y="2411"/>
      <point x="1067" y="2339"/>
    </contour>
  </outline>
</glyph>
<glyph name="AE" format="2">
  <advance width="2976"/>
  <unicode hex="00C6"/>
  <outline>
    <contour>
      <point x="64" y="0" type="line"/>
      <point x="864" y="2048" type="line"/>
      <point x="2832" y="2048" type="line"/>
      <point x="2832" y="1600" type="line"/>
      <point x="1912" y="1600" type="line"/>
      <point x="1912" y="1248" type="line"/>
      <point x="2756" y="1248" type="line"/>
      <point x="2756" y="800" type="line"/>
      <point x="1912" y="800" type="line"/>
      <point x="1912" y="448" type="line"/>
      <point x="2828" y="448" type="line"/>
      <point x="2828" y="0" type="line"/>
      <point x="1356" y="0" type="line"/>
      <point x="1356" y="1484" type="line"/>
      <point x="1216" y="1484" type="line"/>
      <point x="676" y="0" type="line"/>
    </contour>
    <contour>
      <point x="556" y="392" type="line"/>
      <point x="556" y="808" type="line"/>
      <point x="1684" y="808" type="line"/>
      <point x="1684" y="392" type="line"/>
    </contour>
  </outline>
</glyph>
<glyph name="Odieresis" format="2">
  <advance width="2240"/>
  <unicode hex="00D6"/>
  <outline>
    <contour>
      <point x="2116" y="1024" type="qcurve"/>
      <point x="2116" y="682"/>
      <point x="1850" y="213"/>
      <point x="1398" y="-28"/>
      <point x="1120" y="-28" type="qcurve"/>
      <point x="840" y="-28"/>
      <point x="389" y="215"/>
      <point x="124" y="684"/>
      <point x="124" y="1024" type="qcurve"/>
      <point x="124" y="1366"/>
      <point x="389" y="1835"/>
      <point x="840" y="2076"/>
      <point x="1120" y="2076" type="qcurve"/>
      <point x="1398" y="2076"/>
      <point x="1850" y="1835"/>
      <point x="2116" y="1366"/>
    </contour>
    <contour>
      <point x="1544" y="1024" type="qcurve"/>
      <point x="1544" y="1208"/>
      <point x="1447" y="1461"/>
      <point x="1258" y="1592"/>
      <point x="1120" y="1592" type="qcurve"/>
      <point x="982" y="1592"/>
      <point x="793" y="1461"/>
      <point x="696" y="1208"/>
      <point x="696" y="1024" type="qcurve"/>
      <point x="696" y="840"/>
      <point x="793" y="587"/>
      <point x="982" y="456"/>
      <point x="1120" y="456" type="qcurve"/>
      <point x="1258" y="456"/>
      <point x="1447" y="587"/>
      <point x="1544" y="840"/>
    </contour>
    <contour>
      <point x="804" y="2228" type="qcurve"/>
      <point x="702" y="2228"/>
      <point x="560" y="2364"/>
      <point x="560" y="2460" type="qcurve"/>
      <point x="560" y="2556"/>
      <point x="702" y="2692"/>
      <point x="804" y="2692" type="qcurve"/>
      <point x="903" y="2692"/>
      <point x="1044" y="2556"/>
      <point x="1044" y="2460" type="qcurve"/>
      <point x="1044" y="2364"/>
      <point x="903" y="2228"/>
    </contour>
    <contour>
      <point x="1440" y="2228" type="qcurve"/>
      <point x="1338" y="2228"/>
      <point x="1196" y="2364"/>
      <point x="1196" y="2460" type="qcurve"/>
      <point x="1196" y="2556"/>
      <point x="1338" y="2692"/>
      <point x="1440" y="2692" type="qcurve"/>
      <point x="1539" y="2692"/>
      <point x="1680" y="2556"/>
      <point x="1680" y="2460" type="qcurve"/>
      <point x="1680" y="2364"/>
      <point x="1539" y="2228"/>
    </contour>
  </outline>
</glyph>
<glyph name="multiply" format="2">
  <advance width="1952"/>
  <unicode hex="00D7"/>
  <outline>
    <contour>
      <point x="1428" y="44" type="line"/>
      <point x="188" y="1280" type="line"/>
      <point x="524" y="1620" type="line"/>
      <point x="1764" y="380" type="line"/>
    </contour>
    <contour>
      <point x="524" y="44" type="line"/>
      <point x="188" y="380" type="line"/>
      <point x="1428" y="1620" type="line"/>
      <point x="1764" y="1280" type="line"/>
    </contour>
  </outline>
</glyph>
<glyph name="Thorn" format="2">
  <advance width="1964"/>
  <unicode hex="00DE"/>
  <outline>
    <contour>
      <point x="136" y="2048" type="line"/>
      <point x="692" y="2048" type="line"/>
      <point x="692" y="0" type="line"/>
      <point x="136" y="0" type="line"/>
    </contour>
    <contour>
      <point x="392" y="1704" type="line"/>
      <point x="928" y="1704" type="line"/>
      <point x="1194" y="1704"/>
      <point x="1562" y="1538"/>
      <point x="1752" y="1244"/>
      <point x="1752" y="1052" type="qcurve"/>
      <point x="1752" y="860"/>
      <point x="1562" y="568"/>
      <point x="1194" y="404"/>
      <point x="928" y="404" type="qcurve"/>
      <point x="392" y="404" type="line"/>
      <point x="392" y="812" type="line"/>
      <point x="928" y="812" type="line"/>
      <point x="1038" y="812"/>
      <point x="1166" y="885"/>
      <point x="1220" y="994"/>
      <point x="1220" y="1048" type="qcurve"/>
      <point x="1220" y="1104"/>
      <point x="1166" y="1217"/>
      <point x="1038" y="1292"/>
      <point x="928" y="1292" type="qcurve"/>
      <point x="392" y="1292" type="line"/>
    </contour>
  </outline>
</glyph>
<glyph name="germandbls" format="2">
  <advance width="1972"/>
  <unicode hex="00DF"/>
  <outline>
    <contour>
      <point x="132" y="0" type="line"/>
      <point x="132" y="1496" type="line"/>
      <point x="132" y="1677"/>
      <point x="322" y="1937"/>
      <point x="673" y="2076"/>
      <point x="912" y="2076" type="qcurve"/>
      <point x="1131" y="2076"/>
      <point x="1504" y="1952"/>
      <point x="1732" y="1699"/>
      <point x="1732" y="1504" type="qcurve"/>
      <point x="1732" y="1356"/>
      <point x="1589" y="1140"/>
      <point x="1456" y="1108" type="qcurve"/>
      <point x="1456" y="1084" type="line"/>
      <point x="1659" y="1074"/>
      <point x="1886" y="781"/>
      <point x="1884" y="564" type="qcurve"/>
      <point x="1883" y="373"/>
      <point x="1703" y="123"/>
      <point x="1388" y="0"/>
      <point x="1184" y="0" type="qcurve"/>
      <point x="884" y="0" type="line"/>
      <point x="884" y="432" type="line"/>
      <point x="1068" y="432" type="line"/>
      <point x="1146" y="432"/>
      <point x="1262" y="480"/>
      <point x="1325" y="570"/>
      <point x="1324" y="632" type="qcurve"/>
      <point x="1323" y="727"/>
      <point x="1169" y="832"/>
      <point x="1036" y="832" type="qcurve"/>
      <point x="892" y="832" type="line"/>
      <point x="892" y="1236" type="line"/>
      <point x="984" y="1236" type="line"/>
      <point x="1038" y="1236"/>
      <point x="1118" y="1285"/>
      <point x="1163" y="1370"/>
      <point x="1164" y="1424" type="qcurve"/>
      <point x="1166" y="1516"/>
      <point x="1043" y="1628"/>
      <point x="932" y="1628" type="qcurve"/>
      <point x="817" y="1628"/>
      <point x="684" y="1502"/>
      <point x="684" y="1392" type="qcurve"/>
      <point x="684" y="0" type="line"/>
    </contour>
  </outline>
</glyph>
<glyph name="ae" format="2">
  <advance width="2552"/>
  <unicode hex="00E6"/>
  <outline>
    <contour>
      <point x="1760" y="-28" type="qcurve"/>
      <point x="1573" y="-28"/>
      <point x="1264" y="115"/>
      <point x="1192" y="268" type="qcurve"/>
      <point x="1140" y="1264" type="line"/>
      <point x="1248" y="1426"/>
      <point x="1528" y="1556"/>
      <point x="1704" y="1556" type="qcurve"/>
      <point x="1878" y="1556"/>
      <point x="2160" y="1448"/>
      <point x="2360" y="1243"/>
      <point x="2468" y="951"/>
      <point x="2468" y="768" type="qcurve"/>
      <point x="2468" y="640" type="line"/>
      <point x="1148" y="640" type="line"/>
      <point x="1148" y="944" type="line"/>
      <point x="1960" y="944" type="line"/>
      <point x="1958" y="1010"/>
      <point x="1893" y="1111"/>
      <point x="1784" y="1168"/>
      <point x="1716" y="1168" type="qcurve"/>
      <point x="1648" y="1168"/>
      <point x="1537" y="1111"/>
      <point x="1470" y="1010"/>
      <point x="1468" y="944" type="qcurve"/>
      <point x="1468" y="616" type="line"/>
      <point x="1468" y="542"/>
      <point x="1530" y="426"/>
      <point x="1646" y="360"/>
      <point x="1728" y="360" type="qcurve"/>
      <point x="1785" y="360"/>
      <point x="1880" y="392"/>
      <point x="1948" y="453"/>
      <point x="1964" y="496" type="qcurve"/>
      <point x="2468" y="496" type="line"/>
      <point x="2442" y="336"/>
      <point x="2248" y="101"/>
      <point x="1947" y="-28"/>
    </contour>
    <contour>
      <point x="748" y="324" type="qcurve"/>
      <point x="811" y="324"/>
      <point x="922" y="376"/>
      <point x="992" y="474"/>
      <point x="992" y="544" type="qcurve"/>
      <point x="992" y="672" type="line"/>
      <point x="970" y="663"/>
      <point x="921" y="647"/>
      <point x="866" y="633"/>
      <point x="805" y="621"/>
      <point x="772" y="616" type="qcurve"/>
      <point x="708" y="606"/>
      <point x="627" y="561"/>
      <point x="588" y="496"/>
      <point x="588" y="456" type="qcurve"/>
      <point x="588" y="392"/>
      <point x="678" y="324"/>
    </contour>
    <contour>
      <point x="608" y="-24" type="qcurve"/>
      <point x="441" y="-24"/>
      <point x="198" y="73"/>
      <point x="68" y="272"/>
      <point x="68" y="424" type="qcurve"/>
      <point x="68" y="550"/>
      <point x="154" y="728"/>
      <point x="309" y="842"/>
      <point x="514" y="903"/>
      <point x="632" y="912" type="qcurve"/>
      <point x="762" y="922"/>
      <point x="918" y="952"/>
      <point x="988" y="1004"/>
      <point x="988" y="1048" type="qcurve"/>
      <point x="988" y="1052" type="line"/>
      <point x="988" y="1113"/>
      <point x="897" y="1176"/>
      <point x="824" y="1176" type="qcurve"/>
      <point x="746" y="1176"/>
      <point x="645" y="1108"/>
      <point x="636" y="1036" type="qcurve"/>
      <point x="128" y="1036" type="line"/>
      <point x="138" y="1176"/>
      <point x="296" y="1413"/>
      <point x="606" y="1556"/>
      <point x="844" y="1556" type="qcurve"/>
      <point x="921" y="1556"/>
      <point x="1050" y="1528"/>
      <point x="1156" y="1476"/>
      <point x="1235" y="1400"/>
      <point x="1260" y="1352" type="qcurve"/>
      <point x="1236" y="232" type="line"/>
      <point x="1204" y="232" type="line"/>
      <point x="1156" y="146"/>
      <point x="973" y="32"/>
      <point x="737" y="-24"/>
    </contour>
  </outline>
</glyph>
<glyph name="edieresis" format="2">
  <advance width="1712"/>
  <unicode hex="00EB"/>
  <outline>
    <contour>
      <point x="876" y="-28" type="qcurve"/>
      <point x="630" y="-28"/>
      <point x="275" y="161"/>
      <point x="84" y="516"/>
      <point x="84" y="764" type="qcurve"/>
      <point x="84" y="1002"/>
      <point x="276" y="1358"/>
      <point x="626" y="1556"/>
      <point x="864" y="1556" type="qcurve"/>
      <point x="1038" y="1556"/>
      <point x="1320" y="1448"/>
      <point x="1520" y="1243"/>
      <point x="1628" y="951"/>
      <point x="1628" y="768" type="qcurve"/>
      <point x="1628" y="640" type="line"/>
      <point x="256" y="640" type="line"/>
      <point x="256" y="944" type="line"/>
      <point x="1120" y="944" type="line"/>
      <point x="1119" y="1010"/>
      <point x="1054" y="1111"/>
      <point x="945" y="1168"/>
      <point x="876" y="1168" type="qcurve"/>
      <point x="809" y="1168"/>
      <point x="697" y="1111"/>
      <point x="630" y="1011"/>
      <point x="628" y="944" type="qcurve"/>
      <point x="628" y="616" type="line"/>
      <point x="628" y="542"/>
      <point x="690" y="426"/>
      <point x="806" y="360"/>
      <point x="888" y="360" type="qcurve"/>
      <point x="945" y="360"/>
      <point x="1040" y="392"/>
      <point x="1108" y="453"/>
      <point x="1124" y="496" type="qcurve"/>
      <point x="1628" y="496" type="line"/>
      <point x="1602" y="336"/>
      <point x="1408" y="101"/>
      <point x="1089" y="-28"/>
    </contour>
    <contour>
      <point x="540" y="1716" type="qcurve"/>
      <point x="438" y="1716"/>
      <point x="296" y="1852"/>
      <point x="296" y="1948" type="qcurve"/>
      <point x="296" y="2044"/>
      <point x="438" y="2180"/>
      <point x="540" y="2180" type="qcurve"/>
      <point x="639" y="2180"/>
      <point x="780" y="2044"/>
      <point x="780" y="1948" type="qcurve"/>
      <point x="780" y="1852"/>
      <point x="639" y="1716"/>
    </contour>
    <contour>
      <point x="1176" y="1716" type="qcurve"/>
      <point x="1074" y="1716"/>
      <point x="932" y="1852"/>
      <point x="932" y="1948" type="qcurve"/>
      <point x="932" y="2044"/>
      <point x="1074" y="2180"/>
      <point x="1176" y="2180" type="qcurve"/>
      <point x="1275" y="2180"/>
      <point x="1416" y="2044"/>
      <point x="1416" y="1948" type="qcurve"/>
      <point x="1416" y="1852"/>
      <point x="1275" y="1716"/>
    </contour>
  </outline>
</glyph>
<glyph name="idieresis" format="2">
  <advance width="832"/>
  <unicode hex="00EF"/>
  <outline>
    <contour>
      <point x="140" y="0" type="line"/>
      <point x="140" y="1536" type="line"/>
      <point x="692" y="1536" type="line"/>
      <point x="692" y="0" type="line"/>
    </contour>
    <contour>
      <point x="100" y="1716" type="qcurve"/>
      <point x="-2" y="1716"/>
      <point x="-144" y="1852"/>
      <point x="-144" y="1948" type="qcurve"/>
      <point x="-144" y="2044"/>
      <point x="-2" y="2180"/>
      <point x="100" y="2180" type="qcurve"/>
      <point x="199" y="2180"/>
      <point x="340" y="2044"/>
      <point x="340" y="1948" type="qcurve"/>
      <point x="340" y="1852"/>
      <point x="199" y="1716"/>
    </contour>
    <contour>
      <point x="736" y="1716" type="qcurve"/>
      <point x="634" y="1716"/>
      <point x="492" y="1852"/>
      <point x="492" y="1948" type="qcurve"/>
      <point x="492" y="2044"/>
      <point x="634" y="2180"/>
      <point x="736" y="2180" type="qcurve"/>
      <point x="835" y="2180"/>
      <point x="976" y="2044"/>
      <point x="976" y="1948" type="qcurve"/>
      <point x="976" y="1852"/>
      <point x="835" y="1716"/>
    </contour>
  </outline>
</glyph>
<glyph name="eth" format="2">
  <advance width="1726"/>
  <unicode hex="00F0"/>
  <outline>
    <contour>
      <point x="1296" y="1916" type="line"/>
      <point x="280" y="1384" type="line"/>
      <point x="280" y="1608" type="line"/>
      <point x="1296" y="2140" type="line"/>
    </contour>
    <contour>
      <point x="852" y="-32" type="qcurve"/>
      <point x="623" y="-32"/>
      <point x="277" y="151"/>
      <point x="84" y="482"/>
      <point x="84" y="704" type="qcurve"/>
      <point x="84" y="898"/>
      <point x="237" y="1219"/>
      <point x="521" y="1410"/>
      <point x="716" y="1410" type="qcurve"/>
      <point x="794" y="1410"/>
      <point x="929" y="1378"/>
      <point x="1041" y="1320"/>
      <point x="1084" y="1280" type="qcurve"/>
      <point x="1106" y="1280" type="line"/>
      <point x="1027" y="1434"/>
      <point x="743" y="1676"/>
      <point x="419" y="1843"/>
      <point x="280" y="1884" type="qcurve"/>
      <point x="280" y="2150" type="line"/>
      <point x="549" y="2115"/>
      <point x="1039" y="1900"/>
      <point x="1421" y="1554"/>
      <point x="1642" y="1093"/>
      <point x="1642" y="812" type="qcurve"/>
      <point x="1642" y="561"/>
      <point x="1453" y="180"/>
      <point x="1099" y="-32"/>
    </contour>
    <contour>
      <point x="870" y="370" type="qcurve"/>
      <point x="950" y="370"/>
      <point x="1070" y="459"/>
      <point x="1136" y="627"/>
      <point x="1136" y="746" type="qcurve"/>
      <point x="1136" y="857"/>
      <point x="1076" y="1014"/>
      <point x="957" y="1096"/>
      <point x="870" y="1096" type="qcurve"/>
      <point x="782" y="1096"/>
      <point x="663" y="1013"/>
      <point x="604" y="857"/>
      <point x="604" y="746" type="qcurve"/>
      <point x="604" y="628"/>
      <point x="670" y="460"/>
      <point x="789" y="370"/>
    </contour>
  </outline>
</glyph>
<glyph name="odieresis" format="2">
  <advance width="1760"/>
  <unicode hex="00F6"/>
  <outline>
    <contour>
      <point x="880" y="-28" type="qcurve"/>
      <point x="630" y="-28"/>
      <point x="274" y="171"/>
      <point x="84" y="528"/>
      <point x="84" y="764" type="qcurve"/>
      <point x="84" y="1000"/>
      <point x="274" y="1357"/>
      <point x="630" y="1556"/>
      <point x="880" y="1556" type="qcurve"/>
      <point x="1130" y="1556"/>
      <point x="1486" y="1357"/>
      <point x="1676" y="1000"/>
      <point x="1676" y="764" type="qcurve"/>
      <point x="1676" y="528"/>
      <point x="1486" y="171"/>
      <point x="1130" y="-28"/>
    </contour>
    <contour>
      <point x="884" y="380" type="qcurve"/>
      <point x="954" y="380"/>
      <point x="1056" y="474"/>
      <point x="1112" y="648"/>
      <point x="1112" y="768" type="qcurve"/>
      <point x="1112" y="889"/>
      <point x="1056" y="1062"/>
      <point x="954" y="1156"/>
      <point x="884" y="1156" type="qcurve"/>
      <point x="810" y="1156"/>
      <point x="704" y="1062"/>
      <point x="648" y="889"/>
      <point x="648" y="768" type="qcurve"/>
      <point x="648" y="648"/>
      <point x="704" y="474"/>
      <point x="810" y="380"/>
    </contour>
    <contour>
      <point x="564" y="1716" type="qcurve"/>
      <point x="462" y="1716"/>
      <point x="320" y="1852"/>
      <point x="320" y="1948" type="qcurve"/>
      <point x="320" y="2044"/>
      <point x="462" y="2180"/>
      <point x="564" y="2180" type="qcurve"/>
      <point x="663" y="2180"/>
      <point x="804" y="2044"/>
      <point x="804" y="1948" type="qcurve"/>
      <point x="804" y="1852"/>
      <point x="663" y="1716"/>
    </contour>
    <contour>
      <point x="1200" y="1716" type="qcurve"/>
      <point x="1098" y="1716"/>
      <point x="956" y="1852"/>
      <point x="956" y="1948" type="qcurve"/>
      <point x="956" y="2044"/>
      <point x="1098" y="2180"/>
      <point x="1200" y="2180" type="qcurve"/>
      <point x="1299" y="2180"/>
      <point x="1440" y="2044"/>
      <point x="1440" y="1948" type="qcurve"/>
      <point x="1440" y="1852"/>
      <point x="1299" y="1716"/>
    </contour>
  </outline>
</glyph>
<glyph name="divide" format="2">
  <advance width="1952"/>
  <unicode hex="00F7"/>
  <outline>
    <contour>
      <point x="1716" y="1040" type="line"/>
      <point x="1716" y="624" type="line"/>
      <point x="236" y="624" type="line"/>
      <point x="236" y="1040" type="line"/>
    </contour>
    <contour>
      <point x="976" y="-32" type="qcurve"/>
      <point x="858" y="-32"/>
      <point x="692" y="134"/>
      <point x="692" y="252" type="qcurve"/>
      <point x="692" y="368"/>
      <point x="858" y="532"/>
      <point x="976" y="532" type="qcurve"/>
      <point x="1092" y="532"/>
      <point x="1256" y="368"/>
      <point x="1256" y="252" type="qcurve"/>
      <point x="1256" y="134"/>
      <point x="1092" y="-32"/>
    </contour>
    <contour>
      <point x="976" y="1132" type="qcurve"/>
      <point x="859" y="1132"/>
      <point x="692" y="1299"/>
      <point x="692" y="1416" type="qcurve"/>
      <point x="692" y="1533"/>
      <point x="859" y="1696"/>
      <point x="976" y="1696" type="qcurve"/>
      <point x="1093" y="1696"/>
      <point x="1256" y="1533"/>
      <point x="1256" y="1416" type="qcurve"/>
      <point x="1256" y="1299"/>
      <point x="1093" y="1132"/>
    </contour>
  </outline>
</glyph>
<glyph name="oslash" format="2">
  <advance width="1760"/>
  <unicode hex="00F8"/>
  <outline>
    <contour>
      <point x="428" y="-108" type="line"/>
      <point x="204" y="44" type="line"/>
      <point x="1328" y="1632" type="line"/>
      <point x="1556" y="1480" type="line"/>
    </contour>
    <contour>
      <point x="880" y="-32" type="qcurve"/>
      <point x="630" y="-32"/>
      <point x="274" y="167"/>
      <point x="84" y="524"/>
      <point x="84" y="760" type="qcurve"/>
      <point x="84" y="996"/>
      <point x="274" y="1353"/>
      <point x="630" y="1552"/>
      <point x="880" y="1552" type="qcurve"/>
      <point x="1130" y="1552"/>
      <point x="1486" y="1353"/>
      <point x="1676" y="996"/>
      <point x="1676" y="760" type="qcurve"/>
      <point x="1676" y="524"/>
      <point x="1486" y="167"/>
      <point x="1130" y="-32"/>
    </contour>
    <contour>
      <point x="884" y="376" type="qcurve"/>
      <point x="954" y="376"/>
      <point x="1056" y="470"/>
      <point x="1112" y="644"/>
      <point x="1112" y="764" type="qcurve"/>
      <point x="1112" y="885"/>
      <point x="1056" y="1058"/>
      <point x="954" y="1152"/>
      <point x="884" y="1152" type="qcurve"/>
      <point x="810" y="1152"/>
      <point x="704" y="1058"/>
      <point x="648" y="885"/>
      <point x="648" y="764" type="qcurve"/>
      <point x="648" y="644"/>
      <point x="704" y="470"/>
      <point x="810" y="376"/>
    </contour>
  </outline>
</glyph>
<glyph name="thorn" format="2">
  <advance width="1732"/>
  <unicode hex="00FE"/>
  <outline>
    <contour>
      <point x="140" y="2048" type="line"/>
      <point x="692" y="2048" type="line"/>
      <point x="692" y="1312" type="line"/>
      <point x="484" y="728" type="line"/>
      <point x="692" y="312" type="line"/>
      <point x="692" y="-576" type="line"/>
      <point x="140" y="-576" type="line"/>
    </contour>
    <contour>
      <point x="472" y="1404" type="line"/>
      <point x="708" y="1404" type="line"/>
      <point x="735" y="1466"/>
      <point x="838" y="1532"/>
      <point x="971" y="1556"/>
      <point x="1040" y="1556" type="qcurve"/>
      <point x="1189" y="1556"/>
      <point x="1464" y="1394"/>
      <point x="1641" y="1046"/>
      <point x="1640" y="768" type="qcurve"/>
      <point x="1641" y="500"/>
      <point x="1472" y="151"/>
      <point x="1197" y="-20"/>
      <point x="1036" y="-20" type="qcurve"/>
      <point x="973" y="-20"/>
      <point x="843" y="-1"/>
      <point x="737" y="60"/>
      <point x="708" y="124" type="qcurve"/>
      <point x="472" y="124" type="line"/>
    </contour>
    <contour>
      <point x="1124" y="768" type="qcurve"/>
      <point x="1125" y="890"/>
      <point x="1066" y="1052"/>
      <point x="949" y="1132"/>
      <point x="860" y="1132" type="qcurve"/>
      <point x="763" y="1132"/>
      <point x="661" y="1030"/>
      <point x="625" y="864"/>
      <point x="624" y="768" type="qcurve"/>
      <point x="625" y="676"/>
      <point x="658" y="509"/>
      <point x="759" y="404"/>
      <point x="860" y="404" type="qcurve"/>
      <point x="949" y="404"/>
      <point x="1066" y="484"/>
      <point x="1125" y="646"/>
    </contour>
  </outline>
</glyph>
<glyph name="ydieresis" format="2">
  <advance width="1704"/>
  <unicode hex="00FF"/>
  <outline>
    <contour>
      <point x="476" y="-576" type="qcurve"/>
      <point x="381" y="-576"/>
      <point x="209" y="-547"/>
      <point x="144" y="-522" type="qcurve"/>
      <point x="264" y="-130" type="line"/>
      <point x="332" y="-154"/>
      <point x="445" y="-168"/>
      <point x="526" y="-138"/>
      <point x="544" y="-96" type="qcurve"/>
      <point x="556" y="-68" type="line"/>
      <point x="16" y="1536" type="line"/>
      <point x="592" y="1536" type="line"/>
      <point x="840" y="472" type="line"/>
      <point x="856" y="472" type="line"/>
      <point x="1108" y="1536" type="line"/>
      <point x="1688" y="1536" type="line"/>
      <point x="1128" y="-128" type="line"/>
      <point x="1086" y="-255"/>
      <point x="927" y="-458"/>
      <point x="669" y="-576"/>
    </contour>
    <contour>
      <point x="532" y="1716" type="qcurve"/>
      <point x="430" y="1716"/>
      <point x="288" y="1852"/>
      <point x="288" y="1948" type="qcurve"/>
      <point x="288" y="2044"/>
      <point x="430" y="2180"/>
      <point x="532" y="2180" type="qcurve"/>
      <point x="631" y="2180"/>
      <point x="772" y="2044"/>
      <point x="772" y="1948" type="qcurve"/>
      <point x="772" y="1852"/>
      <point x="631" y="1716"/>
    </contour>
    <contour>
      <point x="1168" y="1716" type="qcurve"/>
      <point x="1066" y="1716"/>
      <point x="924" y="1852"/>
      <point x="924" y="1948" type="qcurve"/>
      <point x="924" y="2044"/>
      <point x="1066" y="2180"/>
      <point x="1168" y="2180" type="qcurve"/>
      <point x="1267" y="2180"/>
      <point x="1408" y="2044"/>
      <point x="1408" y="1948" type="qcurve"/>
      <point x="1408" y="1852"/>
      <point x="1267" y="1716"/>
    </contour>
  </outline>
</glyph>
<glyph name="Hbar" format="2">
  <advance width="2344"/>
  <unicode hex="0126"/>
  <outline>
    <contour>
      <point x="2268" y="1744" type="line"/>
      <point x="2268" y="1480" type="line"/>
      <point x="76" y="1480" type="line"/>
      <point x="76" y="1744" type="line"/>
    </contour>
    <contour>
      <point x="248" y="0" type="line"/>
      <point x="248" y="2048" type="line"/>
      <point x="804" y="2048" type="line"/>
      <point x="804" y="1248" type="line"/>
      <point x="1540" y="1248" type="line"/>
      <point x="1540" y="2048" type="line"/>
      <point x="2096" y="2048" type="line"/>
      <point x="2096" y="0" type="line"/>
      <point x="1540" y="0" type="line"/>
      <point x="1540" y="800" type="line"/>
      <point x="804" y="800" type="line"/>
      <point x="804" y="0" type="line"/>
    </contour>
  </outline>
</glyph>
<glyph name="hbar" format="2">
  <advance width="1820"/>
  <unicode hex="0127"/>
  <outline>
    <contour>
      <point x="692" y="864" type="qcurve"/>
      <point x="692" y="0" type="line"/>
      <point x="140" y="0" type="line"/>
      <point x="140" y="2048" type="line"/>
      <point x="672" y="2048" type="line"/>
      <point x="672" y="1244" type="line"/>
      <point x="688" y="1244" type="line"/>
      <point x="740" y="1391"/>
      <point x="982" y="1556"/>
      <point x="1152" y="1556" type="qcurve"/>
      <point x="1315" y="1556"/>
      <point x="1556" y="1408"/>
      <point x="1689" y="1148"/>
      <point x="1688" y="980" type="qcurve"/>
      <point x="1688" y="0" type="line"/>
      <point x="1136" y="0" type="line"/>
      <point x="1136" y="864" type="line"/>
      <point x="1137" y="978"/>
      <point x="1022" y="1108"/>
      <point x="916" y="1108" type="qcurve"/>
      <point x="849" y="1108"/>
      <point x="748" y="1049"/>
      <point x="693" y="940"/>
    </contour>
    <contour>
      <point x="-136" y="1612" type="line"/>
      <point x="-136" y="1908" type="line"/>
      <point x="940" y="1908" type="line"/>
      <point x="940" y="1612" type="line"/>
    </contour>
  </outline>
</glyph>
<glyph name="dotlessi" format="2">
  <advance width="832"/>
  <unicode hex="0131"/>
  <outline>
    <contour>
      <point x="140" y="0" type="line"/>
      <point x="140" y="1536" type="line"/>
      <point x="692" y="1536" type="line"/>
      <point x="692" y="0" type="line"/>
    </contour>
  </outline>
</glyph>
<glyph name="kgreenlandic" format="2">
  <advance width="1964"/>
  <unicode hex="0138"/>
  <outline>
    <contour>
      <point x="696" y="1536" type="line"/>
      <point x="696" y="0" type="line"/>
      <point x="176" y="0" type="line"/>
      <point x="176" y="1536" type="line"/>
    </contour>
    <contour>
      <point x="1812" y="1536" type="line"/>
      <point x="1124" y="506" type="line"/>
      <point x="636" y="506" type="line"/>
      <point x="580" y="1018" type="line"/>
      <point x="846" y="1018" type="line"/>
      <point x="1144" y="1536" type="line"/>
    </contour>
    <contour>
      <point x="1124" y="0" type="line"/>
      <point x="828" y="584" type="line"/>
      <point x="1296" y="808" type="line"/>
      <point x="1788" y="0" type="line"/>
    </contour>
  </outline>
</glyph>
<glyph name="Lslash" format="2">
  <advance width="1692"/>
  <unicode hex="0141"/>
  <outline>
    <contour>
      <point x="1032" y="1352" type="line"/>
      <point x="1032" y="1076" type="line"/>
      <point x="28" y="820" type="line"/>
      <point x="28" y="1092" type="line"/>
    </contour>
    <contour>
      <point x="276" y="0" type="line"/>
      <point x="276" y="2048" type="line"/>
      <point x="832" y="2048" type="line"/>
      <point x="832" y="448" type="line"/>
      <point x="1660" y="448" type="line"/>
      <point x="1660" y="0" type="line"/>
    </contour>
  </outline>
</glyph>
<glyph name="lslash" format="2">
  <advance width="976"/>
  <unicode hex="0142"/>
  <unicode hex="E051"/>
  <outline>
    <contour>
      <point x="896" y="1368" type="line"/>
      <point x="896" y="1092" type="line"/>
      <point x="0" y="832" type="line"/>
      <point x="0" y="1108" type="line"/>
    </contour>
    <contour>
      <point x="188" y="2048" type="line"/>
      <point x="740" y="2048" type="line"/>
      <point x="740" y="500" type="line"/>
      <point x="741" y="453"/>
      <point x="794" y="404"/>
      <point x="844" y="404" type="qcurve"/>
      <point x="870" y="404"/>
      <point x="902" y="408"/>
      <point x="912" y="412" type="qcurve"/>
      <point x="992" y="32" type="line"/>
      <point x="958" y="21"/>
      <point x="862" y="-3"/>
      <point x="764" y="-8" type="qcurve"/>
      <point x="467" y="-23"/>
      <point x="189" y="192"/>
      <point x="188" y="448" type="qcurve"/>
    </contour>
  </outline>
</glyph>
<glyph name="Eng" format="2">
  <advance width="2036"/>
  <unicode hex="014A"/>
  <outline>
    <contour>
      <point x="1440" y="0" type="line"/>
      <point x="1904" y="0" type="line"/>
      <point x="1904" y="-28" type="line"/>
      <point x="1904" y="-264"/>
      <point x="1728" y="-525"/>
      <point x="1400" y="-628"/>
      <point x="1172" y="-628" type="qcurve"/>
      <point x="1135" y="-628"/>
      <point x="1045" y="-613"/>
      <point x="1004" y="-600" type="qcurve"/>
      <point x="1004" y="-200" type="line"/>
      <point x="1044" y="-209"/>
      <point x="1148" y="-220"/>
      <point x="1200" y="-220" type="qcurve"/>
      <point x="1312" y="-220"/>
      <point x="1440" y="-124"/>
      <point x="1440" y="-40" type="qcurve"/>
    </contour>
    <contour>
      <point x="1904" y="2048" type="line"/>
      <point x="1904" y="0" type="line"/>
      <point x="1440" y="0" type="line"/>
      <point x="700" y="1076" type="line"/>
      <point x="688" y="1076" type="line"/>
      <point x="688" y="0" type="line"/>
      <point x="132" y="0" type="line"/>
      <point x="132" y="2048" type="line"/>
      <point x="604" y="2048" type="line"/>
      <point x="1332" y="976" type="line"/>
      <point x="1348" y="976" type="line"/>
      <point x="1348" y="2048" type="line"/>
    </contour>
  </outline>
</glyph>
<glyph name="eng" format="2">
  <advance width="1864"/>
  <unicode hex="014B"/>
  <outline>
    <contour>
      <point x="1136" y="32" type="line"/>
      <point x="1688" y="32" type="line"/>
      <point x="1688" y="0" type="line"/>
      <point x="1688" y="-292"/>
      <point x="1338" y="-576"/>
      <point x="1040" y="-576" type="qcurve"/>
      <point x="972" y="-576"/>
      <point x="842" y="-568"/>
      <point x="772" y="-556" type="qcurve"/>
      <point x="820" y="-112" type="line"/>
      <point x="857" y="-121"/>
      <point x="933" y="-132"/>
      <point x="980" y="-132" type="qcurve"/>
      <point x="1059" y="-132"/>
      <point x="1136" y="-64"/>
      <point x="1136" y="0" type="qcurve"/>
    </contour>
    <contour>
      <point x="692" y="864" type="qcurve"/>
      <point x="692" y="0" type="line"/>
      <point x="140" y="0" type="line"/>
      <point x="140" y="1536" type="line"/>
      <point x="664" y="1536" type="line"/>
      <point x="664" y="1244" type="line"/>
      <point x="680" y="1244" type="line"/>
      <point x="730" y="1390"/>
      <point x="983" y="1556"/>
      <point x="1152" y="1556" type="qcurve"/>
      <point x="1315" y="1556"/>
      <point x="1556" y="1407"/>
      <point x="1689" y="1147"/>
      <point x="1688" y="980" type="qcurve"/>
      <point x="1688" y="0" type="line"/>
      <point x="1136" y="0" type="line"/>
      <point x="1136" y="864" type="line"/>
      <point x="1137" y="978"/>
      <point x="1020" y="1108"/>
      <point x="916" y="1108" type="qcurve"/>
      <point x="848" y="1108"/>
      <point x="747" y="1049"/>
      <point x="693" y="940"/>
    </contour>
  </outline>
</glyph>
<glyph name="OE" format="2">
  <advance width="2988"/>
  <unicode hex="0152"/>
  <outline>
    <contour>
      <point x="1072" y="0" type="line"/>
      <point x="808" y="0"/>
      <point x="377" y="220"/>
      <point x="124" y="672"/>
      <point x="124" y="1020" type="qcurve"/>
      <point x="124" y="1370"/>
      <point x="377" y="1826"/>
      <point x="808" y="2048"/>
      <point x="1072" y="2048" type="qcurve"/>
      <point x="2844" y="2048" type="line"/>
      <point x="2844" y="1600" type="line"/>
      <point x="1924" y="1600" type="line"/>
      <point x="1924" y="1248" type="line"/>
      <point x="2768" y="1248" type="line"/>
      <point x="2768" y="800" type="line"/>
      <point x="1924" y="800" type="line"/>
      <point x="1924" y="448" type="line"/>
      <point x="2840" y="448" type="line"/>
      <point x="2840" y="0" type="line"/>
    </contour>
    <contour>
      <point x="1368" y="448" type="line"/>
      <point x="1368" y="1600" type="line"/>
      <point x="1072" y="1600" type="line"/>
      <point x="962" y="1600"/>
      <point x="788" y="1497"/>
      <point x="688" y="1244"/>
      <point x="688" y="1020" type="qcurve"/>
      <point x="688" y="794"/>
      <point x="788" y="546"/>
      <point x="962" y="448"/>
      <point x="1072" y="448" type="qcurve"/>
    </contour>
  </outline>
</glyph>
<glyph name="Ydieresis" format="2">
  <advance width="2152"/>
  <unicode hex="0178"/>
  <outline>
    <contour>
      <point x="48" y="2048" type="line"/>
      <point x="668" y="2048" type="line"/>
      <point x="1068" y="1216" type="line"/>
      <point x="1084" y="1216" type="line"/>
      <point x="1484" y="2048" type="line"/>
      <point x="2104" y="2048" type="line"/>
      <point x="1352" y="644" type="line"/>
      <point x="1352" y="0" type="line"/>
      <point x="800" y="0" type="line"/>
      <point x="800" y="644" type="line"/>
    </contour>
    <contour>
      <point x="760" y="2228" type="qcurve"/>
      <point x="658" y="2228"/>
      <point x="516" y="2364"/>
      <point x="516" y="2460" type="qcurve"/>
      <point x="516" y="2556"/>
      <point x="658" y="2692"/>
      <point x="760" y="2692" type="qcurve"/>
      <point x="859" y="2692"/>
      <point x="1000" y="2556"/>
      <point x="1000" y="2460" type="qcurve"/>
      <point x="1000" y="2364"/>
      <point x="859" y="2228"/>
    </contour>
    <contour>
      <point x="1396" y="2228" type="qcurve"/>
      <point x="1294" y="2228"/>
      <point x="1152" y="2364"/>
      <point x="1152" y="2460" type="qcurve"/>
      <point x="1152" y="2556"/>
      <point x="1294" y="2692"/>
      <point x="1396" y="2692" type="qcurve"/>
      <point x="1495" y="2692"/>
      <point x="1636" y="2556"/>
      <point x="1636" y="2460" type="qcurve"/>
      <point x="1636" y="2364"/>
      <point x="1495" y="2228"/>
    </contour>
  </outline>
</glyph>
<glyph name="zcaron" format="2">
  <advance width="1668"/>
  <unicode hex="017E"/>
  <outline>
    <contour>
      <point x="156" y="0" type="line"/>
      <point x="156" y="304" type="line"/>
      <point x="828" y="1108" type="line"/>
      <point x="828" y="1116" type="line"/>
      <point x="180" y="1116" type="line"/>
      <point x="180" y="1536" type="line"/>
      <point x="1480" y="1536" type="line"/>
      <point x="1480" y="1200" type="line"/>
      <point x="868" y="428" type="line"/>
      <point x="868" y="420" type="line"/>
      <point x="1504" y="420" type="line"/>
      <point x="1504" y="0" type="line"/>
    </contour>
    <contour>
      <point x="636" y="2188" type="line"/>
      <point x="832" y="1968" type="line"/>
      <point x="1028" y="2188" type="line"/>
      <point x="1484" y="2188" type="line"/>
      <point x="1484" y="2176" type="line"/>
      <point x="1024" y="1720" type="line"/>
      <point x="640" y="1720" type="line"/>
      <point x="180" y="2176" type="line"/>
      <point x="180" y="2188" type="line"/>
    </contour>
  </outline>
</glyph>
<glyph name="longs" format="2">
  <advance width="856"/>
  <unicode hex="017F"/>
  <outline>
    <contour>
      <point x="508" y="0" type="line"/>
      <point x="-12" y="0" type="line"/>
      <point x="-12" y="1596" type="line"/>
      <point x="-13" y="1863"/>
      <point x="320" y="2140"/>
      <point x="624" y="2140" type="qcurve"/>
      <point x="683" y="2140"/>
      <point x="804" y="2124"/>
      <point x="868" y="2112" type="qcurve"/>
      <point x="836" y="1716" type="line"/>
      <point x="799" y="1722"/>
      <point x="741" y="1728"/>
      <point x="688" y="1728" type="qcurve"/>
      <point x="600" y="1728"/>
      <point x="507" y="1665"/>
      <point x="508" y="1596" type="qcurve"/>
    </contour>
  </outline>
</glyph>
<glyph name="Bhook" format="2">
  <advance width="2560"/>
  <unicode hex="0181"/>
  <outline>
    <contour>
      <point x="1144" y="1604" type="line"/>
      <point x="780" y="1604" type="line"/>
      <point x="695" y="1604"/>
      <point x="600" y="1524"/>
      <point x="563" y="1404"/>
      <point x="564" y="1344" type="qcurve"/>
      <point x="564" y="1196" type="line"/>
      <point x="76" y="1196" type="line"/>
      <point x="76" y="1440" type="line"/>
      <point x="75" y="1731"/>
      <point x="458" y="2048"/>
      <point x="780" y="2048" type="qcurve"/>
      <point x="1144" y="2048" type="line"/>
    </contour>
    <contour>
      <point x="812" y="0" type="line"/>
      <point x="812" y="2048" type="line"/>
      <point x="1700" y="2048" type="line"/>
      <point x="1934" y="2048"/>
      <point x="2253" y="1922"/>
      <point x="2416" y="1692"/>
      <point x="2416" y="1536" type="qcurve"/>
      <point x="2416" y="1423"/>
      <point x="2317" y="1237"/>
      <point x="2139" y="1112"/>
      <point x="2020" y="1088" type="qcurve"/>
      <point x="2020" y="1068" type="line"/>
      <point x="2152" y="1063"/>
      <point x="2368" y="940"/>
      <point x="2496" y="725"/>
      <point x="2496" y="580" type="qcurve"/>
      <point x="2496" y="412"/>
      <point x="2321" y="150"/>
      <point x="1999" y="0"/>
      <point x="1776" y="0" type="qcurve"/>
    </contour>
    <contour>
      <point x="1368" y="444" type="line"/>
      <point x="1628" y="444" type="line"/>
      <point x="1768" y="444"/>
      <point x="1908" y="549"/>
      <point x="1908" y="652" type="qcurve"/>
      <point x="1908" y="724"/>
      <point x="1842" y="824"/>
      <point x="1721" y="876"/>
      <point x="1636" y="876" type="qcurve"/>
      <point x="1368" y="876" type="line"/>
    </contour>
    <contour>
      <point x="1368" y="1220" type="line"/>
      <point x="1596" y="1220" type="line"/>
      <point x="1669" y="1220"/>
      <point x="1781" y="1266"/>
      <point x="1844" y="1353"/>
      <point x="1844" y="1416" type="qcurve"/>
      <point x="1844" y="1511"/>
      <point x="1708" y="1612"/>
      <point x="1604" y="1612" type="qcurve"/>
      <point x="1368" y="1612" type="line"/>
    </contour>
  </outline>
</glyph>
<glyph name="Btopbar" format="2">
  <advance width="1848"/>
  <unicode hex="0182"/>
  <outline>
    <contour>
      <point x="132" y="0" type="line"/>
      <point x="132" y="2048" type="line"/>
      <point x="1572" y="2048" type="line"/>
      <point x="1572" y="1600" type="line"/>
      <point x="688" y="1600" type="line"/>
      <point x="688" y="1360" type="line"/>
      <point x="896" y="1360" type="line"/>
      <point x="1154" y="1360"/>
      <point x="1541" y="1194"/>
      <point x="1756" y="892"/>
      <point x="1756" y="688" type="qcurve"/>
      <point x="1756" y="484"/>
      <point x="1541" y="174"/>
      <point x="1154" y="0"/>
      <point x="896" y="0" type="qcurve"/>
    </contour>
    <contour>
      <point x="688" y="436" type="line"/>
      <point x="896" y="436" type="line"/>
      <point x="996" y="436"/>
      <point x="1133" y="502"/>
      <point x="1204" y="618"/>
      <point x="1204" y="692" type="qcurve"/>
      <point x="1204" y="797"/>
      <point x="1046" y="936"/>
      <point x="896" y="936" type="qcurve"/>
      <point x="688" y="936" type="line"/>
    </contour>
  </outline>
</glyph>
<glyph name="btopbar" format="2">
  <advance width="1816"/>
  <unicode hex="0183"/>
  <outline>
    <contour>
      <point x="1496" y="2048" type="line"/>
      <point x="1496" y="1684" type="line"/>
      <point x="684" y="1684" type="line"/>
      <point x="684" y="1268" type="line"/>
      <point x="692" y="1268" type="line"/>
      <point x="722" y="1346"/>
      <point x="838" y="1477"/>
      <point x="1010" y="1556"/>
      <point x="1124" y="1556" type="qcurve"/>
      <point x="1276" y="1556"/>
      <point x="1551" y="1394"/>
      <point x="1724" y="1046"/>
      <point x="1724" y="768" type="qcurve"/>
      <point x="1724" y="502"/>
      <point x="1559" y="152"/>
      <point x="1284" y="-20"/>
      <point x="1120" y="-20" type="qcurve"/>
      <point x="1012" y="-20"/>
      <point x="843" y="51"/>
      <point x="724" y="174"/>
      <point x="692" y="252" type="qcurve"/>
      <point x="680" y="252" type="line"/>
      <point x="680" y="0" type="line"/>
      <point x="132" y="0" type="line"/>
      <point x="132" y="2048" type="line"/>
    </contour>
    <contour>
      <point x="672" y="768" type="qcurve"/>
      <point x="672" y="656"/>
      <point x="731" y="493"/>
      <point x="840" y="404"/>
      <point x="916" y="404" type="qcurve"/>
      <point x="992" y="404"/>
      <point x="1099" y="491"/>
      <point x="1156" y="654"/>
      <point x="1156" y="768" type="qcurve"/>
      <point x="1156" y="882"/>
      <point x="1099" y="1045"/>
      <point x="992" y="1132"/>
      <point x="916" y="1132" type="qcurve"/>
      <point x="840" y="1132"/>
      <point x="731" y="1045"/>
      <point x="672" y="882"/>
    </contour>
  </outline>
</glyph>
<glyph name="Tonesix" format="2">
  <advance width="2340"/>
  <unicode hex="0184"/>
  <outline>
    <contour>
      <point x="980" y="2048" type="line"/>
      <point x="980" y="1600" type="line"/>
      <point x="40" y="1600" type="line"/>
      <point x="40" y="2048" type="line"/>
    </contour>
    <contour>
      <point x="884" y="1360" type="line"/>
      <point x="1308" y="1360" type="line"/>
      <point x="1566" y="1360"/>
      <point x="1953" y="1194"/>
      <point x="2168" y="892"/>
      <point x="2168" y="688" type="qcurve"/>
      <point x="2168" y="484"/>
      <point x="1953" y="174"/>
      <point x="1566" y="0"/>
      <point x="1308" y="0" type="qcurve"/>
      <point x="544" y="0" type="line"/>
      <point x="544" y="2048" type="line"/>
      <point x="1100" y="2048" type="line"/>
      <point x="1100" y="436" type="line"/>
      <point x="1308" y="436" type="line"/>
      <point x="1408" y="436"/>
      <point x="1545" y="502"/>
      <point x="1616" y="618"/>
      <point x="1616" y="692" type="qcurve"/>
      <point x="1616" y="797"/>
      <point x="1458" y="936"/>
      <point x="1308" y="936" type="qcurve"/>
      <point x="884" y="936" type="line"/>
    </contour>
  </outline>
</glyph>
<glyph name="tonesix" format="2">
  <advance width="1952"/>
  <unicode hex="0185"/>
  <outline>
    <contour>
      <point x="400" y="2112" type="line"/>
      <point x="476" y="2112" type="line"/>
      <point x="476" y="1440" type="line"/>
      <point x="400" y="1440" type="line"/>
      <point x="112" y="1640" type="line"/>
      <point x="112" y="1904" type="line"/>
    </contour>
    <contour>
      <point x="712" y="1404" type="line"/>
      <point x="948" y="1404" type="line"/>
      <point x="975" y="1472"/>
      <point x="1089" y="1537"/>
      <point x="1221" y="1556"/>
      <point x="1276" y="1556" type="qcurve"/>
      <point x="1425" y="1556"/>
      <point x="1701" y="1394"/>
      <point x="1879" y="1046"/>
      <point x="1880" y="768" type="qcurve"/>
      <point x="1879" y="500"/>
      <point x="1710" y="151"/>
      <point x="1435" y="-20"/>
      <point x="1276" y="-20" type="qcurve"/>
      <point x="1205" y="-20"/>
      <point x="1074" y="0"/>
      <point x="973" y="62"/>
      <point x="948" y="124" type="qcurve"/>
      <point x="712" y="124" type="line"/>
    </contour>
    <contour>
      <point x="1364" y="768" type="qcurve"/>
      <point x="1363" y="888"/>
      <point x="1304" y="1050"/>
      <point x="1187" y="1132"/>
      <point x="1100" y="1132" type="qcurve"/>
      <point x="999" y="1132"/>
      <point x="897" y="1028"/>
      <point x="863" y="862"/>
      <point x="864" y="768" type="qcurve"/>
      <point x="863" y="676"/>
      <point x="895" y="509"/>
      <point x="997" y="404"/>
      <point x="1100" y="404" type="qcurve"/>
      <point x="1187" y="404"/>
      <point x="1304" y="486"/>
      <point x="1363" y="648"/>
    </contour>
    <contour>
      <point x="380" y="2048" type="line"/>
      <point x="932" y="2048" type="line"/>
      <point x="932" y="1312" type="line"/>
      <point x="728" y="728" type="line"/>
      <point x="928" y="312" type="line"/>
      <point x="928" y="0" type="line"/>
      <point x="380" y="0" type="line"/>
    </contour>
  </outline>
</glyph>
<glyph name="Oopen" format="2">
  <advance width="2164"/>
  <unicode hex="0186"/>
  <outline>
    <contour>
      <point x="120" y="768" type="qcurve"/>
      <point x="684" y="768" type="line"/>
      <point x="690" y="698"/>
      <point x="741" y="584"/>
      <point x="830" y="501"/>
      <point x="956" y="456"/>
      <point x="1036" y="456" type="qcurve"/>
      <point x="1176" y="456"/>
      <point x="1369" y="592"/>
      <point x="1468" y="846"/>
      <point x="1468" y="1024" type="qcurve"/>
      <point x="1468" y="1212"/>
      <point x="1367" y="1465"/>
      <point x="1176" y="1592"/>
      <point x="1040" y="1592" type="qcurve"/>
      <point x="964" y="1592"/>
      <point x="841" y="1553"/>
      <point x="751" y="1479"/>
      <point x="695" y="1374"/>
      <point x="684" y="1308" type="qcurve"/>
      <point x="120" y="1312" type="line"/>
      <point x="131" y="1443"/>
      <point x="256" y="1711"/>
      <point x="487" y="1938"/>
      <point x="827" y="2076"/>
      <point x="1052" y="2076" type="qcurve"/>
      <point x="1334" y="2076"/>
      <point x="1781" y="1834"/>
      <point x="2040" y="1365"/>
      <point x="2040" y="1024" type="qcurve"/>
      <point x="2040" y="682"/>
      <point x="1776" y="213"/>
      <point x="1328" y="-28"/>
      <point x="1052" y="-28" type="qcurve"/>
      <point x="859" y="-28"/>
      <point x="532" y="78"/>
      <point x="286" y="281"/>
      <point x="137" y="578"/>
    </contour>
  </outline>
</glyph>
<glyph name="Chook" format="2">
  <advance width="2484"/>
  <unicode hex="0187"/>
  <outline>
    <contour>
      <point x="2044" y="1280" type="line"/>
      <point x="1508" y="1280" type="line"/>
      <point x="1508" y="1488" type="line"/>
      <point x="1508" y="1698"/>
      <point x="1719" y="1985"/>
      <point x="2062" y="2132"/>
      <point x="2260" y="2132" type="qcurve"/>
      <point x="2323" y="2132"/>
      <point x="2436" y="2129"/>
      <point x="2508" y="2120" type="qcurve"/>
      <point x="2508" y="1680" type="line"/>
      <point x="2478" y="1680"/>
      <point x="2383" y="1684"/>
      <point x="2356" y="1684" type="qcurve"/>
      <point x="2292" y="1684"/>
      <point x="2147" y="1630"/>
      <point x="2044" y="1504"/>
      <point x="2044" y="1396" type="qcurve"/>
    </contour>
    <contour>
      <point x="2044" y="1280" type="qcurve"/>
      <point x="1480" y="1280" type="line"/>
      <point x="1474" y="1350"/>
      <point x="1423" y="1464"/>
      <point x="1334" y="1547"/>
      <point x="1208" y="1592"/>
      <point x="1128" y="1592" type="qcurve"/>
      <point x="988" y="1592"/>
      <point x="795" y="1456"/>
      <point x="696" y="1202"/>
      <point x="696" y="1024" type="qcurve"/>
      <point x="696" y="836"/>
      <point x="797" y="583"/>
      <point x="989" y="456"/>
      <point x="1124" y="456" type="qcurve"/>
      <point x="1201" y="456"/>
      <point x="1323" y="495"/>
      <point x="1413" y="569"/>
      <point x="1470" y="674"/>
      <point x="1480" y="740" type="qcurve"/>
      <point x="2044" y="736" type="line"/>
      <point x="2034" y="606"/>
      <point x="1908" y="337"/>
      <point x="1677" y="110"/>
      <point x="1337" y="-28"/>
      <point x="1112" y="-28" type="qcurve"/>
      <point x="830" y="-28"/>
      <point x="383" y="214"/>
      <point x="124" y="684"/>
      <point x="124" y="1024" type="qcurve"/>
      <point x="124" y="1366"/>
      <point x="388" y="1835"/>
      <point x="836" y="2076"/>
      <point x="1112" y="2076" type="qcurve"/>
      <point x="1306" y="2076"/>
      <point x="1632" y="1970"/>
      <point x="1878" y="1767"/>
      <point x="2028" y="1471"/>
    </contour>
  </outline>
</glyph>
<glyph name="chook" format="2">
  <advance width="1872"/>
  <unicode hex="0188"/>
  <outline>
    <contour>
      <point x="1628" y="896" type="line"/>
      <point x="1128" y="896" type="line"/>
      <point x="1128" y="1152" type="line"/>
      <point x="1128" y="1322"/>
      <point x="1278" y="1560"/>
      <point x="1537" y="1684"/>
      <point x="1700" y="1684" type="qcurve"/>
      <point x="1749" y="1684"/>
      <point x="1848" y="1667"/>
      <point x="1904" y="1652" type="qcurve"/>
      <point x="1904" y="1320" type="line"/>
      <point x="1872" y="1323"/>
      <point x="1814" y="1332"/>
      <point x="1780" y="1332" type="qcurve"/>
      <point x="1694" y="1332"/>
      <point x="1628" y="1244"/>
      <point x="1628" y="1148" type="qcurve"/>
    </contour>
    <contour>
      <point x="880" y="-28" type="qcurve"/>
      <point x="630" y="-28"/>
      <point x="274" y="171"/>
      <point x="84" y="528"/>
      <point x="84" y="764" type="qcurve"/>
      <point x="84" y="1000"/>
      <point x="274" y="1357"/>
      <point x="630" y="1556"/>
      <point x="880" y="1556" type="qcurve"/>
      <point x="1106" y="1556"/>
      <point x="1437" y="1393"/>
      <point x="1619" y="1096"/>
      <point x="1620" y="896" type="qcurve"/>
      <point x="1108" y="896" type="line"/>
      <point x="1097" y="1017"/>
      <point x="980" y="1144"/>
      <point x="888" y="1144" type="qcurve"/>
      <point x="816" y="1144"/>
      <point x="708" y="1061"/>
      <point x="648" y="894"/>
      <point x="648" y="768" type="qcurve"/>
      <point x="648" y="642"/>
      <point x="708" y="475"/>
      <point x="816" y="392"/>
      <point x="888" y="392" type="qcurve"/>
      <point x="979" y="392"/>
      <point x="1099" y="519"/>
      <point x="1108" y="640" type="qcurve"/>
      <point x="1620" y="640" type="line"/>
      <point x="1617" y="437"/>
      <point x="1437" y="136"/>
      <point x="1108" y="-28"/>
    </contour>
  </outline>
</glyph>
<glyph name="Dhook" format="2">
  <advance width="2748"/>
  <unicode hex="018A"/>
  <outline>
    <contour>
      <point x="76" y="1196" type="line"/>
      <point x="76" y="1440" type="line"/>
      <point x="75" y="1731"/>
      <point x="458" y="2048"/>
      <point x="780" y="2048" type="qcurve"/>
      <point x="1144" y="2048" type="line"/>
      <point x="1144" y="1576" type="line"/>
      <point x="780" y="1576" type="line"/>
      <point x="695" y="1576"/>
      <point x="600" y="1510"/>
      <point x="563" y="1404"/>
      <point x="564" y="1344" type="qcurve"/>
      <point x="564" y="1196" type="line"/>
    </contour>
    <contour>
      <point x="1604" y="0" type="qcurve"/>
      <point x="816" y="0" type="line"/>
      <point x="816" y="2048" type="line"/>
      <point x="1596" y="2048" type="line"/>
      <point x="1912" y="2048"/>
      <point x="2373" y="1803"/>
      <point x="2624" y="1344"/>
      <point x="2624" y="1024" type="qcurve"/>
      <point x="2624" y="704"/>
      <point x="2374" y="245"/>
      <point x="1916" y="0"/>
    </contour>
    <contour>
      <point x="1372" y="472" type="line"/>
      <point x="1584" y="472" type="line"/>
      <point x="1736" y="472"/>
      <point x="1951" y="570"/>
      <point x="2064" y="810"/>
      <point x="2064" y="1024" type="qcurve"/>
      <point x="2064" y="1238"/>
      <point x="1949" y="1478"/>
      <point x="1728" y="1576"/>
      <point x="1568" y="1576" type="qcurve"/>
      <point x="1372" y="1576" type="line"/>
    </contour>
  </outline>
</glyph>
<glyph name="Dtopbar" format="2">
  <advance width="1964"/>
  <unicode hex="018B"/>
  <outline>
    <contour>
      <point x="1796" y="0" type="line"/>
      <point x="1032" y="0" type="line"/>
      <point x="774" y="0"/>
      <point x="387" y="176"/>
      <point x="172" y="486"/>
      <point x="172" y="688" type="qcurve"/>
      <point x="172" y="890"/>
      <point x="387" y="1192"/>
      <point x="774" y="1360"/>
      <point x="1032" y="1360" type="qcurve"/>
      <point x="1260" y="1360" type="line"/>
      <point x="1260" y="1628" type="line"/>
      <point x="356" y="1628" type="line"/>
      <point x="356" y="2064" type="line"/>
      <point x="1796" y="2064" type="line"/>
    </contour>
    <contour>
      <point x="1260" y="428" type="line"/>
      <point x="1260" y="936" type="line"/>
      <point x="1032" y="936" type="line"/>
      <point x="879" y="936"/>
      <point x="708" y="797"/>
      <point x="708" y="692" type="qcurve"/>
      <point x="708" y="618"/>
      <point x="785" y="498"/>
      <point x="930" y="428"/>
      <point x="1032" y="428" type="qcurve"/>
    </contour>
  </outline>
</glyph>
<glyph name="deltaturned" format="2">
  <advance width="2060"/>
  <unicode hex="018D"/>
  <outline>
    <contour>
      <point x="1628" y="-516" type="line"/>
      <point x="408" y="-516" type="line"/>
      <point x="408" y="-104" type="line"/>
      <point x="964" y="-104" type="line"/>
      <point x="940" y="-90"/>
      <point x="877" y="-64"/>
      <point x="788" y="-16"/>
      <point x="724" y="32" type="qcurve"/>
      <point x="590" y="132"/>
      <point x="384" y="357"/>
      <point x="268" y="612"/>
      <point x="268" y="756" type="qcurve"/>
      <point x="268" y="784" type="line"/>
      <point x="268" y="1014"/>
      <point x="443" y="1362"/>
      <point x="784" y="1556"/>
      <point x="1032" y="1556" type="qcurve"/>
      <point x="1278" y="1556"/>
      <point x="1619" y="1383"/>
      <point x="1796" y="1072"/>
      <point x="1796" y="864" type="qcurve"/>
      <point x="1796" y="836" type="line"/>
      <point x="1796" y="632"/>
      <point x="1646" y="328"/>
      <point x="1406" y="142"/>
      <point x="1272" y="116" type="qcurve"/>
      <point x="1272" y="116"/>
      <point x="1235" y="116"/>
      <point x="1220" y="116" type="qcurve"/>
      <point x="1259" y="88"/>
      <point x="1376" y="-19"/>
      <point x="1499" y="-138"/>
      <point x="1603" y="-240"/>
      <point x="1628" y="-264" type="qcurve"/>
    </contour>
    <contour>
      <point x="1280" y="756" type="qcurve"/>
      <point x="1280" y="784" type="line"/>
      <point x="1280" y="876"/>
      <point x="1248" y="1041"/>
      <point x="1142" y="1144"/>
      <point x="1032" y="1144" type="qcurve"/>
      <point x="930" y="1144"/>
      <point x="823" y="1051"/>
      <point x="784" y="888"/>
      <point x="784" y="784" type="qcurve"/>
      <point x="784" y="756" type="line"/>
      <point x="784" y="606"/>
      <point x="904" y="410"/>
      <point x="988" y="368" type="qcurve"/>
      <point x="1000" y="362"/>
      <point x="1024" y="360"/>
      <point x="1036" y="360" type="qcurve"/>
      <point x="1130" y="360"/>
      <point x="1236" y="465"/>
      <point x="1280" y="644"/>
    </contour>
  </outline>
</glyph>
<glyph name="Ereversed" format="2">
  <advance width="1752"/>
  <unicode hex="018E"/>
  <outline>
    <contour>
      <point x="1620" y="2048" type="line"/>
      <point x="1620" y="0" type="line"/>
      <point x="144" y="0" type="line"/>
      <point x="144" y="448" type="line"/>
      <point x="1064" y="448" type="line"/>
      <point x="1064" y="800" type="line"/>
      <point x="220" y="800" type="line"/>
      <point x="220" y="1248" type="line"/>
      <point x="1064" y="1248" type="line"/>
      <point x="1064" y="1600" type="line"/>
      <point x="148" y="1600" type="line"/>
      <point x="148" y="2048" type="line"/>
    </contour>
  </outline>
</glyph>
<glyph name="Schwa" format="2">
  <advance width="2232"/>
  <unicode hex="018F"/>
  <outline>
    <contour>
      <point x="1100" y="-28" type="qcurve"/>
      <point x="817" y="-28"/>
      <point x="408" y="207"/>
      <point x="189" y="638"/>
      <point x="188" y="932" type="qcurve"/>
      <point x="188" y="1204" type="line"/>
      <point x="1628" y="1204" type="line"/>
      <point x="1628" y="760" type="line"/>
      <point x="724" y="760" type="line"/>
      <point x="724" y="720" type="line"/>
      <point x="725" y="644"/>
      <point x="809" y="523"/>
      <point x="976" y="452"/>
      <point x="1098" y="452" type="qcurve"/>
      <point x="1248" y="452"/>
      <point x="1428" y="561"/>
      <point x="1508" y="744"/>
      <point x="1508" y="856" type="qcurve"/>
      <point x="1508" y="1184" type="line"/>
      <point x="1508" y="1294"/>
      <point x="1425" y="1480"/>
      <point x="1185" y="1592"/>
      <point x="948" y="1592" type="qcurve"/>
      <point x="845" y="1592"/>
      <point x="628" y="1572"/>
      <point x="443" y="1542"/>
      <point x="384" y="1528" type="qcurve"/>
      <point x="312" y="1988" type="line"/>
      <point x="343" y="2000"/>
      <point x="567" y="2042"/>
      <point x="869" y="2076"/>
      <point x="1016" y="2076" type="qcurve"/>
      <point x="1355" y="2076"/>
      <point x="1812" y="1847"/>
      <point x="2044" y="1444"/>
      <point x="2044" y="1184" type="qcurve"/>
      <point x="2044" y="856" type="line"/>
      <point x="2044" y="596"/>
      <point x="1807" y="197"/>
      <point x="1383" y="-28"/>
    </contour>
  </outline>
</glyph>
<glyph name="Eopen" format="2">
  <advance width="1964"/>
  <unicode hex="0190"/>
  <outline>
    <contour>
      <point x="1244" y="980" type="line"/>
      <point x="876" y="980" type="line"/>
      <point x="676" y="980"/>
      <point x="364" y="1109"/>
      <point x="186" y="1335"/>
      <point x="186" y="1480" type="qcurve"/>
      <point x="186" y="1668"/>
      <point x="378" y="1934"/>
      <point x="741" y="2076"/>
      <point x="996" y="2076" type="qcurve"/>
      <point x="1221" y="2076"/>
      <point x="1573" y="1926"/>
      <point x="1775" y="1664"/>
      <point x="1776" y="1496" type="qcurve"/>
      <point x="1240" y="1496" type="line"/>
      <point x="1239" y="1573"/>
      <point x="1116" y="1644"/>
      <point x="994" y="1644" type="qcurve"/>
      <point x="855" y="1644"/>
      <point x="726" y="1548"/>
      <point x="726" y="1444" type="qcurve"/>
      <point x="726" y="1378"/>
      <point x="780" y="1289"/>
      <point x="891" y="1244"/>
      <point x="976" y="1244" type="qcurve"/>
      <point x="1244" y="1244" type="line"/>
    </contour>
    <contour>
      <point x="876" y="1100" type="qcurve"/>
      <point x="1244" y="1100" type="line"/>
      <point x="1244" y="840" type="line"/>
      <point x="976" y="840" type="line"/>
      <point x="876" y="840"/>
      <point x="752" y="788"/>
      <point x="694" y="687"/>
      <point x="694" y="614" type="qcurve"/>
      <point x="694" y="535"/>
      <point x="759" y="441"/>
      <point x="885" y="400"/>
      <point x="976" y="400" type="qcurve"/>
      <point x="1119" y="400"/>
      <point x="1267" y="482"/>
      <point x="1268" y="556" type="qcurve"/>
      <point x="1808" y="556" type="line"/>
      <point x="1807" y="384"/>
      <point x="1600" y="120"/>
      <point x="1235" y="-28"/>
      <point x="996" y="-28" type="qcurve"/>
      <point x="727" y="-28"/>
      <point x="350" y="114"/>
      <point x="154" y="386"/>
      <point x="154" y="580" type="qcurve"/>
      <point x="154" y="827"/>
      <point x="534" y="1100"/>
    </contour>
  </outline>
</glyph>
<glyph name="Fhook" format="2">
  <advance width="1748"/>
  <unicode hex="0191"/>
  <outline>
    <contour>
      <point x="236" y="0" type="line"/>
      <point x="792" y="0" type="line"/>
      <point x="792" y="-48" type="line"/>
      <point x="792" y="-229"/>
      <point x="683" y="-442"/>
      <point x="503" y="-545"/>
      <point x="285" y="-576"/>
      <point x="176" y="-576" type="qcurve"/>
      <point x="136" y="-576"/>
      <point x="-20" y="-574"/>
      <point x="-64" y="-568" type="qcurve"/>
      <point x="-64" y="-160" type="line"/>
      <point x="-41" y="-163"/>
      <point x="12" y="-160"/>
      <point x="28" y="-160" type="qcurve"/>
      <point x="105" y="-160"/>
      <point x="236" y="-117"/>
      <point x="236" y="-48" type="qcurve"/>
    </contour>
    <contour>
      <point x="236" y="0" type="line"/>
      <point x="236" y="2048" type="line"/>
      <point x="1676" y="2048" type="line"/>
      <point x="1676" y="1600" type="line"/>
      <point x="792" y="1600" type="line"/>
      <point x="792" y="1248" type="line"/>
      <point x="1588" y="1248" type="line"/>
      <point x="1588" y="800" type="line"/>
      <point x="792" y="800" type="line"/>
      <point x="792" y="0" type="line"/>
    </contour>
  </outline>
</glyph>
<glyph name="florin" format="2">
  <advance width="1476"/>
  <unicode hex="0192"/>
  <outline>
    <contour>
      <point x="1276" y="1488" type="line"/>
      <point x="1276" y="1120" type="line"/>
      <point x="964" y="1120" type="line"/>
      <point x="964" y="8" type="line"/>
      <point x="964" y="-277"/>
      <point x="660" y="-576"/>
      <point x="388" y="-576" type="qcurve"/>
      <point x="330" y="-576"/>
      <point x="216" y="-568"/>
      <point x="148" y="-556" type="qcurve"/>
      <point x="168" y="-148" type="line"/>
      <point x="194" y="-154"/>
      <point x="265" y="-164"/>
      <point x="296" y="-164" type="qcurve"/>
      <point x="400" y="-164"/>
      <point x="440" y="-70"/>
      <point x="440" y="8" type="qcurve"/>
      <point x="440" y="1120" type="line"/>
      <point x="220" y="1120" type="line"/>
      <point x="220" y="1488" type="line"/>
      <point x="440" y="1488" type="line"/>
      <point x="440" y="1596" type="line"/>
      <point x="442" y="1863"/>
      <point x="781" y="2140"/>
      <point x="1088" y="2140" type="qcurve"/>
      <point x="1159" y="2140"/>
      <point x="1270" y="2125"/>
      <point x="1328" y="2116" type="qcurve"/>
      <point x="1300" y="1724" type="line"/>
      <point x="1269" y="1730"/>
      <point x="1203" y="1736"/>
      <point x="1144" y="1736" type="qcurve"/>
      <point x="1065" y="1736"/>
      <point x="966" y="1665"/>
      <point x="964" y="1596" type="qcurve"/>
      <point x="964" y="1488" type="line"/>
    </contour>
  </outline>
</glyph>
<glyph name="Ghook" format="2">
  <advance width="2464"/>
  <unicode hex="0193"/>
  <unicode hex="E004"/>
  <outline>
    <contour>
      <point x="2044" y="1372" type="line"/>
      <point x="1476" y="1372" type="line"/>
      <point x="1472" y="1748" type="line"/>
      <point x="1471" y="1906"/>
      <point x="1599" y="2147"/>
      <point x="1819" y="2312"/>
      <point x="2095" y="2396"/>
      <point x="2240" y="2396" type="qcurve"/>
      <point x="2300" y="2396"/>
      <point x="2415" y="2379"/>
      <point x="2484" y="2364" type="qcurve"/>
      <point x="2484" y="1932" type="line"/>
      <point x="2445" y="1935"/>
      <point x="2372" y="1944"/>
      <point x="2336" y="1944" type="qcurve"/>
      <point x="2262" y="1944"/>
      <point x="2128" y="1918"/>
      <point x="2044" y="1834"/>
      <point x="2044" y="1748" type="qcurve"/>
    </contour>
    <contour>
      <point x="1128" y="-28" type="qcurve"/>
      <point x="831" y="-28"/>
      <point x="379" y="226"/>
      <point x="124" y="696"/>
      <point x="124" y="1020" type="qcurve"/>
      <point x="124" y="1274"/>
      <point x="282" y="1666"/>
      <point x="562" y="1937"/>
      <point x="927" y="2076"/>
      <point x="1134" y="2076" type="qcurve"/>
      <point x="1316" y="2076"/>
      <point x="1632" y="1973"/>
      <point x="1877" y="1785"/>
      <point x="2028" y="1527"/>
      <point x="2044" y="1372" type="qcurve"/>
      <point x="1484" y="1372" type="line"/>
      <point x="1471" y="1425"/>
      <point x="1412" y="1507"/>
      <point x="1323" y="1563"/>
      <point x="1211" y="1592"/>
      <point x="1146" y="1592" type="qcurve"/>
      <point x="1006" y="1592"/>
      <point x="804" y="1458"/>
      <point x="696" y="1206"/>
      <point x="696" y="1028" type="qcurve"/>
      <point x="696" y="848"/>
      <point x="796" y="592"/>
      <point x="990" y="456"/>
      <point x="1132" y="456" type="qcurve"/>
      <point x="1259" y="456"/>
      <point x="1428" y="530"/>
      <point x="1512" y="666"/>
      <point x="1512" y="758" type="qcurve"/>
      <point x="1628" y="748" type="line"/>
      <point x="1140" y="748" type="line"/>
      <point x="1140" y="1144" type="line"/>
      <point x="2064" y="1144" type="line"/>
      <point x="2064" y="0" type="line"/>
      <point x="1710" y="0" type="line"/>
      <point x="1688" y="224" type="line"/>
      <point x="1676" y="224" type="line"/>
      <point x="1582" y="104"/>
      <point x="1307" y="-28"/>
    </contour>
  </outline>
</glyph>
<glyph name="Gamma" format="2">
  <advance width="2312"/>
  <unicode hex="0194"/>
  <outline>
    <contour>
      <point x="136" y="2048" type="line"/>
      <point x="776" y="2048" type="line"/>
      <point x="1304" y="944" type="line"/>
      <point x="1449" y="641"/>
      <point x="1643" y="186"/>
      <point x="1740" y="-123"/>
      <point x="1740" y="-208" type="qcurve"/>
      <point x="1740" y="-320"/>
      <point x="1594" y="-502"/>
      <point x="1331" y="-608"/>
      <point x="1156" y="-608" type="qcurve"/>
      <point x="888" y="-608"/>
      <point x="552" y="-385"/>
      <point x="552" y="-192" type="qcurve"/>
      <point x="552" y="-157"/>
      <point x="570" y="-68"/>
      <point x="623" y="78"/>
      <point x="725" y="316"/>
      <point x="892" y="681"/>
      <point x="1016" y="946" type="qcurve"/>
      <point x="1532" y="2048" type="line"/>
      <point x="2176" y="2048" type="line"/>
      <point x="1212" y="232" type="line"/>
      <point x="1178" y="167"/>
      <point x="1127" y="27"/>
      <point x="1100" y="-107"/>
      <point x="1100" y="-162" type="qcurve"/>
      <point x="1100" y="-210"/>
      <point x="1127" y="-256"/>
      <point x="1156" y="-256" type="qcurve"/>
      <point x="1185" y="-256"/>
      <point x="1212" y="-210"/>
      <point x="1212" y="-160" type="qcurve"/>
      <point x="1212" y="-104"/>
      <point x="1185" y="31"/>
      <point x="1137" y="171"/>
      <point x="1104" y="232" type="qcurve"/>
    </contour>
  </outline>
</glyph>
<glyph name="hv" format="2">
  <advance width="2836"/>
  <unicode hex="0195"/>
  <outline>
    <contour>
      <point x="140" y="0" type="line"/>
      <point x="140" y="2048" type="line"/>
      <point x="672" y="2048" type="line"/>
      <point x="672" y="1244" type="line"/>
      <point x="688" y="1244" type="line"/>
      <point x="740" y="1391"/>
      <point x="982" y="1556"/>
      <point x="1152" y="1556" type="qcurve"/>
      <point x="1315" y="1556"/>
      <point x="1555" y="1408"/>
      <point x="1688" y="1148"/>
      <point x="1688" y="980" type="qcurve"/>
      <point x="1688" y="768" type="line"/>
      <point x="1136" y="768" type="line"/>
      <point x="1136" y="864" type="line"/>
      <point x="1136" y="978"/>
      <point x="1022" y="1108"/>
      <point x="916" y="1108" type="qcurve"/>
      <point x="849" y="1108"/>
      <point x="748" y="1049"/>
      <point x="693" y="940"/>
      <point x="692" y="864" type="qcurve"/>
      <point x="692" y="0" type="line"/>
    </contour>
    <contour>
      <point x="1828" y="-28" type="qcurve"/>
      <point x="1595" y="-28"/>
      <point x="1288" y="129"/>
      <point x="1136" y="409"/>
      <point x="1136" y="592" type="qcurve"/>
      <point x="1136" y="768" type="line"/>
      <point x="1688" y="768" type="line"/>
      <point x="1688" y="592" type="line"/>
      <point x="1688" y="539"/>
      <point x="1726" y="461"/>
      <point x="1796" y="420"/>
      <point x="1844" y="420" type="qcurve"/>
      <point x="1959" y="420"/>
      <point x="2090" y="654"/>
      <point x="2144" y="1090"/>
      <point x="2144" y="1392" type="qcurve"/>
      <point x="2144" y="1536" type="line"/>
      <point x="2696" y="1536" type="line"/>
      <point x="2696" y="1392" type="line"/>
      <point x="2696" y="929"/>
      <point x="2532" y="296"/>
      <point x="2153" y="-28"/>
    </contour>
  </outline>
</glyph>
<glyph name="Khook" format="2">
  <advance width="2160"/>
  <unicode hex="0198"/>
  <outline>
    <contour>
      <point x="132" y="0" type="line"/>
      <point x="132" y="2048" type="line"/>
      <point x="688" y="2048" type="line"/>
      <point x="688" y="1256" type="line"/>
      <point x="716" y="1256" type="line"/>
      <point x="1296" y="1844" type="line"/>
      <point x="1418" y="1968"/>
      <point x="1688" y="2085"/>
      <point x="1984" y="2060"/>
      <point x="2144" y="1972" type="qcurve"/>
      <point x="1980" y="1584" type="line"/>
      <point x="1884" y="1629"/>
      <point x="1773" y="1573"/>
      <point x="1708" y="1508" type="qcurve"/>
      <point x="1292" y="1088" type="line"/>
      <point x="2128" y="0" type="line"/>
      <point x="1464" y="0" type="line"/>
      <point x="936" y="692" type="line"/>
      <point x="688" y="436" type="line"/>
      <point x="688" y="0" type="line"/>
    </contour>
  </outline>
</glyph>
<glyph name="khook" format="2">
  <advance width="1708"/>
  <unicode hex="0199"/>
  <outline>
    <contour>
      <point x="1132" y="0" type="line"/>
      <point x="816" y="488" type="line"/>
      <point x="692" y="352" type="line"/>
      <point x="692" y="0" type="line"/>
      <point x="140" y="0" type="line"/>
      <point x="140" y="1420" type="line"/>
      <point x="692" y="1420" type="line"/>
      <point x="692" y="1100" type="line"/>
      <point x="712" y="1100" type="line"/>
      <point x="1076" y="1536" type="line"/>
      <point x="1704" y="1536" type="line"/>
      <point x="1140" y="880" type="line"/>
      <point x="1720" y="0" type="line"/>
    </contour>
    <contour>
      <point x="692" y="1256" type="line"/>
      <point x="140" y="1256" type="line"/>
      <point x="140" y="1548" type="line"/>
      <point x="140" y="1730"/>
      <point x="250" y="1942"/>
      <point x="430" y="2045"/>
      <point x="646" y="2076"/>
      <point x="752" y="2076" type="qcurve"/>
      <point x="840" y="2076"/>
      <point x="977" y="2063"/>
      <point x="1024" y="2060" type="qcurve"/>
      <point x="1024" y="1652" type="line"/>
      <point x="992" y="1655"/>
      <point x="931" y="1660"/>
      <point x="900" y="1660" type="qcurve"/>
      <point x="829" y="1660"/>
      <point x="693" y="1617"/>
      <point x="692" y="1548" type="qcurve"/>
    </contour>
  </outline>
</glyph>
<glyph name="lambdastroke" format="2">
  <advance width="1952"/>
  <unicode hex="019B"/>
  <outline>
    <contour>
      <point x="1296" y="1884" type="line"/>
      <point x="1296" y="1592" type="line"/>
      <point x="304" y="1292" type="line"/>
      <point x="304" y="1592" type="line"/>
    </contour>
    <contour>
      <point x="972" y="832" type="line"/>
      <point x="700" y="0" type="line"/>
      <point x="148" y="0" type="line"/>
      <point x="708" y="1540" type="line"/>
      <point x="1064" y="1544" type="line"/>
    </contour>
    <contour>
      <point x="612" y="2140" type="qcurve"/>
      <point x="770" y="2140"/>
      <point x="978" y="2013"/>
      <point x="1028" y="1896" type="qcurve"/>
      <point x="1604" y="560" type="line"/>
      <point x="1619" y="526"/>
      <point x="1662" y="442"/>
      <point x="1725" y="380"/>
      <point x="1768" y="380" type="qcurve"/>
      <point x="1785" y="380"/>
      <point x="1809" y="380"/>
      <point x="1816" y="380" type="qcurve"/>
      <point x="1812" y="-24" type="line"/>
      <point x="1775" y="-30"/>
      <point x="1683" y="-28"/>
      <point x="1624" y="-28" type="qcurve"/>
      <point x="1485" y="-28"/>
      <point x="1290" y="72"/>
      <point x="1167" y="226"/>
      <point x="1136" y="308" type="qcurve"/>
      <point x="780" y="1300" type="line"/>
      <point x="632" y="1608" type="line"/>
      <point x="607" y="1661"/>
      <point x="510" y="1724"/>
      <point x="424" y="1724" type="qcurve"/>
      <point x="405" y="1724"/>
      <point x="363" y="1723"/>
      <point x="328" y="1720" type="qcurve"/>
      <point x="312" y="2104" type="line"/>
      <point x="377" y="2122"/>
      <point x="557" y="2140"/>
    </contour>
  </outline>
</glyph>
<glyph name="Mturned" format="2">
  <advance width="2780"/>
  <unicode hex="019C"/>
  <outline>
    <contour>
      <point x="2048" y="392" type="line"/>
      <point x="2048" y="2048" type="line"/>
      <point x="2568" y="2048" type="line"/>
      <point x="2568" y="0" type="line"/>
      <point x="2108" y="0" type="line"/>
    </contour>
    <contour>
      <point x="2116" y="692" type="qcurve"/>
      <point x="2252" y="696" type="line"/>
      <point x="2252" y="488"/>
      <point x="2109" y="161"/>
      <point x="1842" y="-28"/>
      <point x="1656" y="-28" type="qcurve"/>
      <point x="1496" y="-28"/>
      <point x="1261" y="90"/>
      <point x="1132" y="352"/>
      <point x="1132" y="568" type="qcurve"/>
      <point x="1132" y="2048" type="line"/>
      <point x="1644" y="2048" type="line"/>
      <point x="1644" y="568" type="line"/>
      <point x="1644" y="514"/>
      <point x="1685" y="431"/>
      <point x="1768" y="384"/>
      <point x="1832" y="384" type="qcurve"/>
      <point x="1936" y="384"/>
      <point x="2061" y="465"/>
      <point x="2116" y="604"/>
    </contour>
    <contour>
      <point x="1200" y="692" type="qcurve"/>
      <point x="1344" y="696" type="line"/>
      <point x="1344" y="482"/>
      <point x="1204" y="156"/>
      <point x="934" y="-28"/>
      <point x="740" y="-28" type="qcurve"/>
      <point x="558" y="-28"/>
      <point x="326" y="92"/>
      <point x="216" y="354"/>
      <point x="216" y="568" type="qcurve"/>
      <point x="216" y="2048" type="line"/>
      <point x="728" y="2048" type="line"/>
      <point x="728" y="568" type="line"/>
      <point x="728" y="514"/>
      <point x="769" y="431"/>
      <point x="852" y="384"/>
      <point x="916" y="384" type="qcurve"/>
      <point x="1020" y="384"/>
      <point x="1145" y="463"/>
      <point x="1200" y="602"/>
    </contour>
  </outline>
</glyph>
<glyph name="Nhookleft" format="2">
  <advance width="2108"/>
  <unicode hex="019D"/>
  <outline>
    <contour>
      <point x="204" y="0" type="line"/>
      <point x="760" y="0" type="line"/>
      <point x="760" y="-48" type="line"/>
      <point x="760" y="-229"/>
      <point x="651" y="-442"/>
      <point x="471" y="-545"/>
      <point x="253" y="-576"/>
      <point x="144" y="-576" type="qcurve"/>
      <point x="104" y="-576"/>
      <point x="-52" y="-574"/>
      <point x="-96" y="-568" type="qcurve"/>
      <point x="-96" y="-160" type="line"/>
      <point x="-73" y="-163"/>
      <point x="-20" y="-160"/>
      <point x="-4" y="-160" type="qcurve"/>
      <point x="73" y="-160"/>
      <point x="204" y="-117"/>
      <point x="204" y="-48" type="qcurve"/>
    </contour>
    <contour>
      <point x="1976" y="2048" type="line"/>
      <point x="1976" y="0" type="line"/>
      <point x="1512" y="0" type="line"/>
      <point x="772" y="1076" type="line"/>
      <point x="760" y="1076" type="line"/>
      <point x="760" y="0" type="line"/>
      <point x="204" y="0" type="line"/>
      <point x="204" y="2048" type="line"/>
      <point x="676" y="2048" type="line"/>
      <point x="1404" y="976" type="line"/>
      <point x="1420" y="976" type="line"/>
      <point x="1420" y="2048" type="line"/>
    </contour>
  </outline>
</glyph>
<glyph name="Ohorn" format="2">
  <advance width="2364"/>
  <unicode hex="01A0"/>
  <outline>
    <contour>
      <point x="2032" y="2116" type="qcurve"/>
      <point x="2332" y="2116" type="line"/>
      <point x="2332" y="1810"/>
      <point x="2087" y="1468"/>
      <point x="1808" y="1468" type="qcurve"/>
      <point x="1808" y="1704" type="line"/>
      <point x="1946" y="1704"/>
      <point x="2032" y="1921"/>
    </contour>
    <contour>
      <point x="2116" y="1024" type="qcurve"/>
      <point x="2116" y="682"/>
      <point x="1850" y="213"/>
      <point x="1398" y="-28"/>
      <point x="1120" y="-28" type="qcurve"/>
      <point x="840" y="-28"/>
      <point x="389" y="215"/>
      <point x="124" y="684"/>
      <point x="124" y="1024" type="qcurve"/>
      <point x="124" y="1366"/>
      <point x="389" y="1835"/>
      <point x="840" y="2076"/>
      <point x="1120" y="2076" type="qcurve"/>
      <point x="1398" y="2076"/>
      <point x="1850" y="1835"/>
      <point x="2116" y="1366"/>
    </contour>
    <contour>
      <point x="1544" y="1024" type="qcurve"/>
      <point x="1544" y="1208"/>
      <point x="1447" y="1461"/>
      <point x="1258" y="1592"/>
      <point x="1120" y="1592" type="qcurve"/>
      <point x="982" y="1592"/>
      <point x="793" y="1461"/>
      <point x="696" y="1208"/>
      <point x="696" y="1024" type="qcurve"/>
      <point x="696" y="840"/>
      <point x="793" y="587"/>
      <point x="982" y="456"/>
      <point x="1120" y="456" type="qcurve"/>
      <point x="1258" y="456"/>
      <point x="1447" y="587"/>
      <point x="1544" y="840"/>
    </contour>
  </outline>
</glyph>
<glyph name="ohorn" format="2">
  <advance width="1844"/>
  <unicode hex="01A1"/>
  <outline>
    <contour>
      <point x="1568" y="1608" type="qcurve"/>
      <point x="1844" y="1608" type="line"/>
      <point x="1844" y="1338"/>
      <point x="1574" y="1044"/>
      <point x="1292" y="1044" type="qcurve"/>
      <point x="1292" y="1216" type="line"/>
      <point x="1402" y="1216"/>
      <point x="1522" y="1309"/>
      <point x="1568" y="1484"/>
    </contour>
    <contour>
      <point x="880" y="-28" type="qcurve"/>
      <point x="630" y="-28"/>
      <point x="274" y="171"/>
      <point x="84" y="528"/>
      <point x="84" y="764" type="qcurve"/>
      <point x="84" y="1000"/>
      <point x="274" y="1357"/>
      <point x="630" y="1556"/>
      <point x="880" y="1556" type="qcurve"/>
      <point x="1130" y="1556"/>
      <point x="1486" y="1357"/>
      <point x="1676" y="1000"/>
      <point x="1676" y="764" type="qcurve"/>
      <point x="1676" y="528"/>
      <point x="1486" y="171"/>
      <point x="1130" y="-28"/>
    </contour>
    <contour>
      <point x="884" y="380" type="qcurve"/>
      <point x="954" y="380"/>
      <point x="1056" y="474"/>
      <point x="1112" y="648"/>
      <point x="1112" y="768" type="qcurve"/>
      <point x="1112" y="889"/>
      <point x="1056" y="1062"/>
      <point x="954" y="1156"/>
      <point x="884" y="1156" type="qcurve"/>
      <point x="810" y="1156"/>
      <point x="704" y="1062"/>
      <point x="648" y="889"/>
      <point x="648" y="768" type="qcurve"/>
      <point x="648" y="648"/>
      <point x="704" y="474"/>
      <point x="810" y="380"/>
    </contour>
  </outline>
</glyph>
<glyph name="Oi" format="2">
  <advance width="2764"/>
  <unicode hex="01A2"/>
  <outline>
    <contour>
      <point x="1896" y="1328" type="line"/>
      <point x="1896" y="244" type="line"/>
      <point x="1840" y="188"/>
      <point x="1611" y="61"/>
      <point x="1286" y="-28"/>
      <point x="1082" y="-28" type="qcurve"/>
      <point x="855" y="-28"/>
      <point x="500" y="103"/>
      <point x="253" y="355"/>
      <point x="124" y="717"/>
      <point x="124" y="948" type="qcurve"/>
      <point x="124" y="1064" type="line"/>
      <point x="672" y="1068" type="line"/>
      <point x="672" y="948" type="line"/>
      <point x="672" y="784"/>
      <point x="747" y="537"/>
      <point x="934" y="400"/>
      <point x="1100" y="400" type="qcurve"/>
      <point x="1198" y="400"/>
      <point x="1339" y="444"/>
      <point x="1376" y="468" type="qcurve"/>
      <point x="1376" y="1328" type="line"/>
    </contour>
    <contour>
      <point x="1896" y="1804" type="qcurve"/>
      <point x="1896" y="736" type="line"/>
      <point x="1376" y="728" type="line"/>
      <point x="1376" y="1584" type="line"/>
      <point x="1327" y="1620"/>
      <point x="1178" y="1648"/>
      <point x="1104" y="1648" type="qcurve"/>
      <point x="928" y="1648"/>
      <point x="741" y="1519"/>
      <point x="672" y="1274"/>
      <point x="672" y="1100" type="qcurve"/>
      <point x="672" y="956" type="line"/>
      <point x="124" y="960" type="line"/>
      <point x="124" y="1100" type="line"/>
      <point x="124" y="1333"/>
      <point x="253" y="1695"/>
      <point x="500" y="1946"/>
      <point x="855" y="2076"/>
      <point x="1082" y="2076" type="qcurve"/>
      <point x="1288" y="2076"/>
      <point x="1613" y="1988"/>
      <point x="1840" y="1862"/>
    </contour>
    <contour>
      <point x="2632" y="2048" type="line"/>
      <point x="2632" y="-576" type="line"/>
      <point x="2120" y="-576" type="line"/>
      <point x="2120" y="1396" type="line"/>
      <point x="1600" y="1144" type="line"/>
      <point x="1600" y="1740" type="line"/>
      <point x="2248" y="2048" type="line"/>
    </contour>
  </outline>
</glyph>
